<svg xmlns="http://www.w3.org/2000/svg" width="160" height="160"><path d="M0 0 C1.9375 1.0625 1.9375 1.0625 3 3 C5.18748893 18.03898639 -8.65253686 37.42616585 -16 50 C-12.18728209 46.82273508 -8.54483529 43.600001 -5.0625 40.0625 C14.43746682 20.33796542 14.43746682 20.33796542 22.375 19.75 C26.2486765 20.0171501 27.29524546 20.36132194 30 23 C32.09414704 30.67883885 28.38823707 37.59984476 24.9375 44.25 C24.43887451 45.249104 23.94024902 46.24820801 23.42651367 47.27758789 C21.96758838 50.19378996 20.48470414 53.09686399 19 56 C18.234198 57.53377078 17.47087145 59.06878209 16.7109375 60.60546875 C15.15738552 63.74558617 13.58624614 66.87623201 12 70 C17.32211779 65.48997648 22.28980729 60.76028821 27.1171875 55.72265625 C29 54 29 54 31 54 C31 53.34 31 52.68 31 52 C33.04837967 50.24762896 35.09681991 48.6137324 37.25 47 C37.83652344 46.54882812 38.42304687 46.09765625 39.02734375 45.6328125 C46.55944257 39.91180261 46.55944257 39.91180261 51.0625 40.1875 C54.12909218 41.03570635 55.27569441 41.36816516 57 44 C59.27927863 50.07807634 56.3440418 55.34899542 54 61 C51.68874099 65.95088236 49.23303918 70.82111942 46.75 75.6875 C46.09318405 76.98604201 45.4369304 78.28486861 44.78125 79.58398438 C43.19395124 82.72595459 41.59914001 85.86403659 40 89 C45.67922039 85.21385307 50.52535171 80.53004395 55.25 75.625 C68.99134691 61.66782041 68.99134691 61.66782041 76.8125 60.625 C80 61 80 61 82.9375 62.9375 C85.22466123 66.33358788 85.54566957 68.16868568 84.82421875 72.1796875 C80.9909729 85.29629178 73.76874496 97.23300674 67 109 C67.33 109.33 67.66 109.66 68 110 C68.8353125 108.9790625 68.8353125 108.9790625 69.6875 107.9375 C72 106 72 106 74.375 105.9375 C77.9260483 107.37482908 80.16439718 109.42817418 83 112 C79.53924354 120.10594295 71.08642179 126.16107217 64.3125 131.5625 C63.79067139 131.99191895 63.26884277 132.42133789 62.73120117 132.86376953 C58.90747901 135.82023717 55.80137499 136.76592583 51 137 C48.125 136 48.125 136 46 134 C43.32364232 126.44322537 47.4323756 119.35709784 50.64233398 112.48291016 C52.46751044 108.7370202 54.35621383 105.02403396 56.25 101.3125 C56.90681595 100.01395799 57.5630696 98.71513139 58.21875 97.41601562 C59.80604876 94.27404541 61.40085999 91.13596341 63 88 C61.2356817 88 60.23973354 89.54647966 59.0078125 90.7109375 C58.08162109 91.58226318 58.08162109 91.58226318 57.13671875 92.47119141 C56.47285156 93.09944824 55.80898437 93.72770508 55.125 94.375 C53.7529299 95.66180574 52.38053167 96.94826169 51.0078125 98.234375 C49.11221577 100.0141347 47.21740717 101.79464985 45.32714844 103.58007812 C32.68521573 115.50030973 32.68521573 115.50030973 25.3125 116.5 C22 116 22 116 19.5625 114.4375 C17.43642296 111.12081981 17.22918657 108.75856814 18 105 C22.24788073 92.17805587 29.25491106 79.67419239 36 68 C35.67 67.67 35.34 67.34 35 67 C34.5875 67.42410156 34.175 67.84820312 33.75 68.28515625 C30.04820764 72.04478911 26.24195665 75.5995723 22.2421875 79.0390625 C18.66104501 82.17100245 15.19263509 85.4262122 11.7109375 88.66796875 C7.17636502 92.56874652 3.15617494 95.86901755 -3 96 C-7.56521739 93.86956522 -7.56521739 93.86956522 -9 91 C-10.68847207 78.33645951 -0.96585153 64.92359986 4.81298828 54.23193359 C6.60952071 50.85392053 8.30623766 47.43055328 10 44 C9.2265625 44.78503906 8.453125 45.57007813 7.65625 46.37890625 C1.9491616 52.14666923 -3.77526115 57.78621327 -10 63 C-10.99515625 63.84949219 -11.9903125 64.69898437 -13.015625 65.57421875 C-14.09326848 66.48754763 -15.17139335 67.4003088 -16.25 68.3125 C-17.24515625 69.15425781 -18.2403125 69.99601562 -19.265625 70.86328125 C-22.60450309 73.47237598 -24.80194485 74.85024311 -29 75.375 C-32 75 -32 75 -34.375 73.5625 C-36.84762311 69.66336356 -36.80849468 66.39618984 -36 62 C-32.92245642 52.67119603 -28.01814061 44.0014955 -23.34033203 35.39697266 C-22.92251465 34.62401855 -22.50469727 33.85106445 -22.07421875 33.0546875 C-21.69869873 32.36874512 -21.32317871 31.68280273 -20.9362793 30.97607422 C-19.79415368 28.73255746 -19.79415368 28.73255746 -19 25 C-21.31 26.98 -23.62 28.96 -26 31 C-28.97 29.02 -31.94 27.04 -35 25 C-34.00995574 21.03982296 -33.74231832 20.37200469 -30.97265625 17.79296875 C-30.34963623 17.20926514 -29.72661621 16.62556152 -29.0847168 16.02416992 C-28.41738525 15.41806885 -27.75005371 14.81196777 -27.0625 14.1875 C-26.04893433 13.25417847 -26.04893433 13.25417847 -25.01489258 12.30200195 C-9.30490253 -1.95892685 -9.30490253 -1.95892685 0 0 Z " fill="#B2C630" transform="translate(53,12)"></path><path d="M0 0 C2.9375 1.9375 2.9375 1.9375 5 5 C5.95767491 19.60454238 -6.00725322 35.84359513 -13 48 C-12.67 48.33 -12.34 48.66 -12 49 C-11.443125 48.319375 -10.88625 47.63875 -10.3125 46.9375 C-8 45 -8 45 -5.625 44.9375 C-2.0739517 46.37482908 0.16439718 48.42817418 3 51 C-0.46075646 59.10594295 -8.91357821 65.16107217 -15.6875 70.5625 C-16.20932861 70.99191895 -16.73115723 71.42133789 -17.26879883 71.86376953 C-21.09252099 74.82023717 -24.19862501 75.76592583 -29 76 C-31.875 75 -31.875 75 -34 73 C-36.67635768 65.44322537 -32.5676244 58.35709784 -29.35766602 51.48291016 C-27.53248956 47.7370202 -25.64378617 44.02403396 -23.75 40.3125 C-23.09318405 39.01395799 -22.4369304 37.71513139 -21.78125 36.41601562 C-20.19395124 33.27404541 -18.59914001 30.13596341 -17 27 C-18.7643183 27 -19.76026646 28.54647966 -20.9921875 29.7109375 C-21.60964844 30.29182129 -22.22710937 30.87270508 -22.86328125 31.47119141 C-23.52714844 32.09944824 -24.19101563 32.72770508 -24.875 33.375 C-26.2470701 34.66180574 -27.61946833 35.94826169 -28.9921875 37.234375 C-30.88778423 39.0141347 -32.78259283 40.79464985 -34.67285156 42.58007812 C-47.31478427 54.50030973 -47.31478427 54.50030973 -54.6875 55.5 C-58 55 -58 55 -60.4375 53.4375 C-62.56357704 50.12081981 -62.77081343 47.75856814 -62 44 C-59.63111157 36.84966857 -56.14160172 30.11734057 -52.8125 23.375 C-52.46767578 22.67576416 -52.12285156 21.97652832 -51.76757812 21.25610352 C-50.37929612 18.49821747 -49.19797639 16.19797639 -47 14 C-47.46477863 18.64778626 -48.89219852 21.94841913 -51.0234375 26.00390625 C-52.4425513 28.90457487 -53.19270866 31.8784735 -54 35 C-54.27070312 35.83144531 -54.54140625 36.66289063 -54.8203125 37.51953125 C-55.10648437 38.39996094 -55.39265625 39.28039062 -55.6875 40.1875 C-55.95949219 41.00605469 -56.23148437 41.82460937 -56.51171875 42.66796875 C-57.03709509 45.17716614 -56.82199309 46.60022152 -56 49 C-56.66 49 -57.32 49 -58 49 C-58 50.32 -58 51.64 -58 53 C-55.59357898 52.04142565 -54.26915705 51.46255137 -52.9453125 49.1875 C-52.67460938 48.465625 -52.40390625 47.74375 -52.125 47 C-48.2438237 37.72086587 -44.09696206 31.63749467 -36.0546875 25.48046875 C-32.62767126 22.69766144 -29.62309677 19.6717 -26.5625 16.5 C-9.43247832 -1.10970333 -9.43247832 -1.10970333 0 0 Z " fill="#A2B620" transform="translate(133,73)"></path><path d="M0 0 C2.9375 1.9375 2.9375 1.9375 5 5 C5.95767491 19.60454238 -6.00725322 35.84359513 -13 48 C-13.33 47.01 -13.66 46.02 -14 45 C-13.34 44.01 -12.68 43.02 -12 42 C-11.32741333 39.66836622 -10.66152556 37.3347961 -10 35 C-7.53929867 28.26964933 -7.53929867 28.26964933 -5 27 C-4.34786708 24.97536745 -4.34786708 24.97536745 -4 23 C-3.34 23 -2.68 23 -2 23 C-1.814375 21.9790625 -1.814375 21.9790625 -1.625 20.9375 C-1 18 -1 18 0.0625 14.6875 C1.11449929 10.54963612 1.14901292 7.24686823 1 3 C-0.99863756 3.57944932 -0.99863756 3.57944932 -3 5 C-4.08885464 7.67813829 -4.08885464 7.67813829 -5 11 C-7.3225306 16.89900965 -9.97207836 23.05032827 -14 28 C-14.99 28.33 -15.98 28.66 -17 29 C-17 28.01 -17 27.02 -17 26 C-17.42708252 26.40202637 -17.85416504 26.80405273 -18.29418945 27.21826172 C-22.5021104 31.17712977 -26.71769527 35.12766831 -30.93945312 39.07177734 C-32.71924912 40.73727838 -34.49304537 42.40886435 -36.265625 44.08203125 C-47.47217286 54.52165056 -47.47217286 54.52165056 -54.6875 55.5 C-58 55 -58 55 -60.4375 53.4375 C-62.56357704 50.12081981 -62.77081343 47.75856814 -62 44 C-59.63111157 36.84966857 -56.14160172 30.11734057 -52.8125 23.375 C-52.46767578 22.67576416 -52.12285156 21.97652832 -51.76757812 21.25610352 C-50.37929612 18.49821747 -49.19797639 16.19797639 -47 14 C-47.46477863 18.64778626 -48.89219852 21.94841913 -51.0234375 26.00390625 C-52.4425513 28.90457487 -53.19270866 31.8784735 -54 35 C-54.27070312 35.83144531 -54.54140625 36.66289063 -54.8203125 37.51953125 C-55.10648437 38.39996094 -55.39265625 39.28039062 -55.6875 40.1875 C-55.95949219 41.00605469 -56.23148437 41.82460937 -56.51171875 42.66796875 C-57.03709509 45.17716614 -56.82199309 46.60022152 -56 49 C-56.66 49 -57.32 49 -58 49 C-58 50.32 -58 51.64 -58 53 C-55.59357898 52.04142565 -54.26915705 51.46255137 -52.9453125 49.1875 C-52.67460938 48.465625 -52.40390625 47.74375 -52.125 47 C-48.2438237 37.72086587 -44.09696206 31.63749467 -36.0546875 25.48046875 C-32.62767126 22.69766144 -29.62309677 19.6717 -26.5625 16.5 C-9.43247832 -1.10970333 -9.43247832 -1.10970333 0 0 Z " fill="#B7CB35" transform="translate(133,73)"></path><path d="M0 0 C0.66 0 1.32 0 2 0 C4.11736164 8.20477637 3.32934406 14.72850294 -0.578125 22.140625 C-0.94597107 22.87069763 -1.31381714 23.60077026 -1.69281006 24.35296631 C-2.46792628 25.88316642 -3.2516117 27.40905356 -4.04345703 28.93066406 C-5.24965056 31.24932828 -6.42956436 33.57991437 -7.60546875 35.9140625 C-8.36569619 37.40701033 -9.12736646 38.89922452 -9.890625 40.390625 C-10.24183411 41.08029358 -10.59304321 41.76996216 -10.95489502 42.48052979 C-12.97273372 46.34517555 -15.16744923 49.65527122 -18 53 C-20.9574663 57.49766268 -23.72081907 62.01590027 -25.625 67.0625 C-27 70 -27 70 -29.1875 70.9375 C-29.785625 70.958125 -30.38375 70.97875 -31 71 C-31 69.68 -31 68.36 -31 67 C-30.34 67 -29.68 67 -29 67 C-29.54914063 65.91138672 -29.54914063 65.91138672 -30.109375 64.80078125 C-31.19445515 61.38848972 -30.75057659 60.3685168 -29.25 57.1875 C-27.86907496 54.08041867 -26.70855973 51.2012943 -26 47.875 C-25.19265891 44.32412812 -23.82515739 41.34857055 -22.09765625 38.15234375 C-20.87850455 35.84329075 -20.87850455 35.84329075 -19.67578125 32.6796875 C-18.01519457 28.75556612 -15.68769119 25.56761368 -13.125 22.1875 C-9.07751498 16.70081159 -5.86017634 11.20095607 -3 5 C-1.3125 1.875 -1.3125 1.875 0 0 Z " fill="#9BAF18" transform="translate(106,55)"></path><path d="M0 0 C2.0625 0.4375 2.0625 0.4375 4 1 C4.15780819 11.41898255 0.6000116 19.10410301 -4.125 28.0625 C-4.78558336 29.35914655 -5.44444671 30.65667084 -6.1015625 31.95507812 C-9.58724248 38.77483981 -13.31477324 45.32202595 -17.55639648 51.70996094 C-19.44177332 54.70080057 -20.75276537 57.69849656 -22 61 C-22.66 61 -23.32 61 -24 61 C-24.33 63.31 -24.66 65.62 -25 68 C-26.32 68 -27.64 68 -29 68 C-29.43301548 61.2160908 -27.70905929 55.70296179 -24.875 49.5625 C-23.48423534 45.48954636 -23.31536626 41.27404267 -23 37 C-22.34 37 -21.68 37 -21 37 C-20.62875 35.7934375 -20.62875 35.7934375 -20.25 34.5625 C-18.73921353 30.25675857 -16.89811144 26.14635993 -15 22 C-14.34 22 -13.68 22 -13 22 C-12.7525 20.948125 -12.505 19.89625 -12.25 18.8125 C-11.21980596 15.15531115 -9.45186172 12.91158579 -7 10 C-5.75983331 7.3205355 -5.75983331 7.3205355 -5 5 C-4.34 5 -3.68 5 -3 5 C-2.690625 4.360625 -2.38125 3.72125 -2.0625 3.0625 C-1 1 -1 1 0 0 Z " fill="#98AC16" transform="translate(78,37)"></path><path d="M0 0 C1.9375 1.0625 1.9375 1.0625 3 3 C3.23639776 5.71857423 3.13476016 8.25987669 3 11 C2.67 11 2.34 11 2 11 C2 8.69 2 6.38 2 4 C-3.10557473 7.71314526 -5.55426749 11.20217529 -8 17 C-8.66 17 -9.32 17 -10 17 C-10.268125 17.72574219 -10.53625 18.45148437 -10.8125 19.19921875 C-11.98670381 21.96864024 -13.3394324 24.30919434 -15 26.8125 C-15.515625 27.60269531 -16.03125 28.39289062 -16.5625 29.20703125 C-17.036875 29.79871094 -17.51125 30.39039062 -18 31 C-18.66 31 -19.32 31 -20 31 C-19.01 27.535 -19.01 27.535 -18 24 C-21.96 27.465 -21.96 27.465 -26 31 C-28.97 29.02 -31.94 27.04 -35 25 C-34.00995574 21.03982296 -33.74231832 20.37200469 -30.97265625 17.79296875 C-30.34963623 17.20926514 -29.72661621 16.62556152 -29.0847168 16.02416992 C-28.41738525 15.41806885 -27.75005371 14.81196777 -27.0625 14.1875 C-26.04893433 13.25417847 -26.04893433 13.25417847 -25.01489258 12.30200195 C-9.30490253 -1.95892685 -9.30490253 -1.95892685 0 0 Z " fill="#B8CC37" transform="translate(53,12)"></path><path d="M0 0 C3.46091915 1.51942792 5.76320741 3.58610672 8.5625 6.125 C5.10174354 14.23094295 -3.35107821 20.28607217 -10.125 25.6875 C-10.64682861 26.11691895 -11.16865723 26.54633789 -11.70629883 26.98876953 C-15.51290586 29.93200391 -18.63816556 30.97991734 -23.4375 31.125 C-24.0975 30.465 -24.7575 29.805 -25.4375 29.125 C-24.7775 29.125 -24.1175 29.125 -23.4375 29.125 C-23.16486328 28.22007812 -23.16486328 28.22007812 -22.88671875 27.296875 C-21.53637353 23.00346967 -20.3214329 19.63587484 -17.4375 16.125 C-16.75617549 14.46427151 -16.09007873 12.797233 -15.4375 11.125 C-13.9375 8.3125 -13.9375 8.3125 -12.4375 6.125 C-11.7775 6.125 -11.1175 6.125 -10.4375 6.125 C-10.1075 5.135 -9.7775 4.145 -9.4375 3.125 C-8.7775 3.785 -8.1175 4.445 -7.4375 5.125 C-6.3546875 3.8565625 -6.3546875 3.8565625 -5.25 2.5625 C-2.4375 0.125 -2.4375 0.125 0 0 Z " fill="#B8CB36" transform="translate(127.4375,117.875)"></path><path d="M0 0 C0.6875 1.6875 0.6875 1.6875 1 4 C0 5.66666667 -1 7.33333333 -2 9 C-2.31962204 10.37549474 -2.59557723 11.76148866 -2.83984375 13.15234375 C-3.87582599 18.063722 -5.80454964 22.02291874 -8.25 26.375 C-8.65259033 27.11250488 -9.05518066 27.85000977 -9.4699707 28.60986328 C-10.63747573 30.74511632 -11.81819234 32.87264214 -13 35 C-14.06365481 36.95770635 -15.12634203 38.91593914 -16.1875 40.875 C-17.64776769 43.5514795 -19.12280645 46.21616292 -20.62890625 48.8671875 C-23.43935231 53.86504098 -25.75326355 58.38968597 -27 64 C-27.99 64 -28.98 64 -30 64 C-30.20747664 58.91682226 -29.56274639 54.78269088 -28 50 C-27.28988101 47.68804771 -26.58168197 45.37550518 -25.875 43.0625 C-25.25068609 41.0414546 -24.62591479 39.02055018 -24 37 C-23.34 37 -22.68 37 -22 37 C-21.79375 36.0925 -21.5875 35.185 -21.375 34.25 C-17.51963302 21.03539732 -8.84034467 10.26620671 0 0 Z " fill="#99AC16" transform="translate(53,21)"></path><path d="M0 0 C2.9375 1.9375 2.9375 1.9375 5 5 C5.95767491 19.60454238 -6.00725322 35.84359513 -13 48 C-13.33 47.01 -13.66 46.02 -14 45 C-13.34 44.01 -12.68 43.02 -12 42 C-11.32741333 39.66836622 -10.66152556 37.3347961 -10 35 C-7.53929867 28.26964933 -7.53929867 28.26964933 -5 27 C-4.34786708 24.97536745 -4.34786708 24.97536745 -4 23 C-3.34 23 -2.68 23 -2 23 C-1.814375 21.9790625 -1.814375 21.9790625 -1.625 20.9375 C-1 18 -1 18 0.0625 14.6875 C1.11449929 10.54963612 1.14901292 7.24686823 1 3 C-0.99863756 3.57944932 -0.99863756 3.57944932 -3 5 C-4.08885464 7.67813829 -4.08885464 7.67813829 -5 11 C-7.3225306 16.89900965 -9.97207836 23.05032827 -14 28 C-14.99 28.33 -15.98 28.66 -17 29 C-17 28.01 -17 27.02 -17 26 C-17.44279297 26.41773682 -17.88558594 26.83547363 -18.34179688 27.26586914 C-20.39314917 29.19955151 -22.44656317 31.13103149 -24.5 33.0625 C-25.19609375 33.71927734 -25.8921875 34.37605469 -26.609375 35.05273438 C-31.31611684 39.47620008 -36.10978989 43.78030154 -41 48 C-41 47.01 -41 46.02 -41 45 C-40.01 44.34 -39.02 43.68 -38 43 C-37.67 42.01 -37.34 41.02 -37 40 C-35.4765625 38.53515625 -35.4765625 38.53515625 -33.625 37.0625 C-30.98088197 34.89421507 -29.02158212 32.76637554 -27 30 C-26.34 30 -25.68 30 -25 30 C-24.67 29.01 -24.34 28.02 -24 27 C-23.01 27 -22.02 27 -21 27 C-20.9175 26.4225 -20.835 25.845 -20.75 25.25 C-19.78202213 22.3460664 -18.31305716 20.96259396 -16 19 C-15.34 19 -14.68 19 -14 19 C-13.731875 18.360625 -13.46375 17.72125 -13.1875 17.0625 C-12 15 -12 15 -9 14 C-9 11.69 -9 9.38 -9 7 C-11.97 7.99 -14.94 8.98 -18 10 C-13.9878918 4.14900888 -7.53402263 -1.67422725 0 0 Z " fill="#CBDD4D" transform="translate(133,73)"></path><path d="M0 0 C2.17578125 1.22265625 2.17578125 1.22265625 4 3 C4.4609375 5.375 4.4609375 5.375 4.375 8 C4.35566406 9.299375 4.35566406 9.299375 4.3359375 10.625 C4 13 4 13 2 16 C2 12.7 2 9.4 2 6 C-2.20180184 6.5739739 -2.20180184 6.5739739 -4 10 C-4.66 10 -5.32 10 -6 10 C-6.0825 10.721875 -6.165 11.44375 -6.25 12.1875 C-7.15732732 15.58997746 -8.79377658 17.27466519 -11 20 C-12.14087768 22.29613618 -13.06235523 24.60900583 -14 27 C-14.66 27 -15.32 27 -16 27 C-16.18175781 27.58007812 -16.36351562 28.16015625 -16.55078125 28.7578125 C-18.0418106 33.39147293 -19.68333576 37.69762355 -22 42 C-22.66 42 -23.32 42 -24 42 C-22.69008258 37.73851282 -21.04942607 33.96729003 -18.92578125 30.05078125 C-18.34119141 28.95572266 -17.75660156 27.86066406 -17.15429688 26.73242188 C-15.91890332 24.43849386 -14.67926515 22.14684709 -13.43554688 19.85742188 C-12.85482422 18.76623047 -12.27410156 17.67503906 -11.67578125 16.55078125 C-11.13864502 15.55731689 -10.60150879 14.56385254 -10.0480957 13.5402832 C-8.65415075 10.94729164 -8.65415075 10.94729164 -10 8 C-13.10742423 9.46818668 -15.90471739 11.20025 -18.75 13.125 C-19.54921875 13.66382813 -20.3484375 14.20265625 -21.171875 14.7578125 C-21.77515625 15.16773438 -22.3784375 15.57765625 -23 16 C-23.66 15.67 -24.32 15.34 -25 15 C-9.34914228 -1.64984864 -9.34914228 -1.64984864 0 0 Z " fill="#CADD4C" transform="translate(79,32)"></path><path d="M0 0 C0.55253221 7.35174806 -0.48935892 12.511583 -4 19 C-4.33 19 -4.66 19 -5 19 C-5.37148484 14.66601023 -4.28537994 12.61851824 -2 9 C-2 8.01 -2 7.02 -2 6 C-15.50544979 22.59890655 -15.50544979 22.59890655 -24 42 C-24.66 42 -25.32 42 -26 42 C-26.1546875 43.7015625 -26.1546875 43.7015625 -26.3125 45.4375 C-26.80208778 49.41015515 -27.89812628 52.91985042 -29.234375 56.6796875 C-30.45709609 60.38528101 -31.23203882 64.1782638 -32 68 C-32.66 67.67 -33.32 67.34 -34 67 C-32.98970573 57.73896916 -31.00079133 49.39212087 -27.5 40.75 C-27.19191406 39.97398438 -26.88382813 39.19796875 -26.56640625 38.3984375 C-25.71732919 36.26299046 -24.86007795 34.13103473 -24 32 C-23.39671875 30.49179687 -23.39671875 30.49179687 -22.78125 28.953125 C-22.5234375 28.30859375 -22.265625 27.6640625 -22 27 C-21.34 27 -20.68 27 -20 27 C-19.73058594 26.27039063 -19.46117187 25.54078125 -19.18359375 24.7890625 C-18.03026366 22.07131436 -16.71167487 19.8172895 -15.0625 17.375 C-14.55847656 16.61960937 -14.05445312 15.86421875 -13.53515625 15.0859375 C-12 13 -12 13 -10.3984375 11.41015625 C-8.76168629 9.91028725 -8.76168629 9.91028725 -7.5625 7.0625 C-3.95918367 0 -3.95918367 0 0 0 Z " fill="#ADC12B" transform="translate(55,16)"></path><path d="M0 0 C2.63183484 1.72430559 2.96429365 2.87090782 3.8125 5.9375 C4 9 4 9 2 13 C1.505 7.555 1.505 7.555 1 2 C-0.98 2.33 -2.96 2.66 -5 3 C-5.28875 3.94875 -5.5775 4.8975 -5.875 5.875 C-7 9 -7 9 -9 11 C-9.66 9.68 -10.32 8.36 -11 7 C-21.69661111 15.12738061 -21.69661111 15.12738061 -31.3515625 24.44140625 C-33.13678676 26.12933156 -34.792063 26.94640268 -37 28 C-38.43758346 29.01260441 -39.8545128 30.05512648 -41.25 31.125 C-41.95640625 31.66382813 -42.6628125 32.20265625 -43.390625 32.7578125 C-43.92171875 33.16773438 -44.4528125 33.57765625 -45 34 C-43.49280493 30.32310652 -41.36529009 28.3236862 -38.375 25.75 C-34.24778907 22.14317653 -30.37062609 18.40395735 -26.59375 14.43359375 C-25 13 -25 13 -23 13 C-23 12.34 -23 11.68 -23 11 C-20.95162033 9.24762896 -18.90318009 7.6137324 -16.75 6 C-16.16347656 5.54882812 -15.57695313 5.09765625 -14.97265625 4.6328125 C-6.50456111 -1.79913392 -6.50456111 -1.79913392 0 0 Z " fill="#C9DC49" transform="translate(107,53)"></path><path d="M0 0 C0.66 0.66 1.32 1.32 2 2 C-4.39622642 16.88679245 -4.39622642 16.88679245 -9 23 C-9.99 23.33 -10.98 23.66 -12 24 C-12 23.01 -12 22.02 -12 21 C-12.44279297 21.41773682 -12.88558594 21.83547363 -13.34179688 22.26586914 C-15.39314917 24.19955151 -17.44656317 26.13103149 -19.5 28.0625 C-20.19609375 28.71927734 -20.8921875 29.37605469 -21.609375 30.05273438 C-26.31611684 34.47620008 -31.10978989 38.78030154 -36 43 C-36 42.01 -36 41.02 -36 40 C-35.01 39.34 -34.02 38.68 -33 38 C-32.67 37.01 -32.34 36.02 -32 35 C-30.4765625 33.53515625 -30.4765625 33.53515625 -28.625 32.0625 C-25.98088197 29.89421507 -24.02158212 27.76637554 -22 25 C-21.34 25 -20.68 25 -20 25 C-19.67 24.01 -19.34 23.02 -19 22 C-18.01 22 -17.02 22 -16 22 C-15.9175 21.4225 -15.835 20.845 -15.75 20.25 C-14.78202213 17.3460664 -13.31305716 15.96259396 -11 14 C-10.34 14 -9.68 14 -9 14 C-8.731875 13.360625 -8.46375 12.72125 -8.1875 12.0625 C-7 10 -7 10 -4 9 C-3.67 6.69 -3.34 4.38 -3 2 C-2.34 2 -1.68 2 -1 2 C-0.67 1.34 -0.34 0.68 0 0 Z " fill="#BED23B" transform="translate(128,78)"></path><path d="M0 0 C0.495 0.99 0.495 0.99 1 2 C0.236875 2.20625 -0.52625 2.4125 -1.3125 2.625 C-4.82229103 4.42070704 -5.52599781 6.43136312 -7 10 C-8.299375 9.62875 -8.299375 9.62875 -9.625 9.25 C-14.06330418 8.92123673 -15.52432605 10.33778165 -19 13 C-19.886875 13.495 -20.77375 13.99 -21.6875 14.5 C-24.08639253 15.85977494 -24.08639253 15.85977494 -25.5 18.0625 C-27 20 -27 20 -29.5625 21 C-32.15437663 21.78440697 -32.15437663 21.78440697 -33.3125 24.125 C-33.539375 24.74375 -33.76625 25.3625 -34 26 C-34.33 24.68 -34.66 23.36 -35 22 C-10.13438369 -2.02687674 -10.13438369 -2.02687674 0 0 Z " fill="#DDF15E" transform="translate(53,12)"></path><path d="M0 0 C0.99 0.66 1.98 1.32 3 2 C-0.48992629 10.17426587 -9.03953944 16.25828548 -15.875 21.6875 C-16.42196533 22.13367676 -16.96893066 22.57985352 -17.5324707 23.03955078 C-19.1171875 24.26171875 -19.1171875 24.26171875 -22 26 C-23.32 25.67 -24.64 25.34 -26 25 C-25.01 22.03 -24.02 19.06 -23 16 C-22.278125 16.04125 -21.55625 16.0825 -20.8125 16.125 C-17.79136988 15.99072755 -15.77570937 15.12528758 -13 14 C-12.34 14.33 -11.68 14.66 -11 15 C-10.67 14.01 -10.34 13.02 -10 12 C-7.4375 10.8125 -7.4375 10.8125 -5 10 C-5 9.34 -5 8.68 -5 8 C-4.175 7.195625 -3.35 6.39125 -2.5 5.5625 C0.34916193 3.23877584 0.34916193 3.23877584 0 0 Z " fill="#D9EC58" transform="translate(133,122)"></path><path d="M0 0 C1.27417413 3.82252238 0.48247067 4.81347182 -1.125 8.4375 C-1.58777344 9.4996875 -2.05054688 10.561875 -2.52734375 11.65625 C-3.01332031 12.7596875 -3.49929687 13.863125 -4 15 C-4.90087371 17.14372214 -5.79692243 19.28948006 -6.6875 21.4375 C-7.08324219 22.38496094 -7.47898437 23.33242187 -7.88671875 24.30859375 C-8.25410156 25.19675781 -8.62148438 26.08492187 -9 27 C-9.37511719 27.81984375 -9.75023437 28.6396875 -10.13671875 29.484375 C-11.13808235 32.40237572 -11.19911488 34.73673257 -11.125 37.8125 C-11.10695313 38.78832031 -11.08890625 39.76414063 -11.0703125 40.76953125 C-11.04710937 41.50558594 -11.02390625 42.24164063 -11 43 C-11.66 43 -12.32 43 -13 43 C-15.71178388 38.93232418 -15.73662074 35.69180956 -15 31 C-11.4041463 20.1304042 -5.45968346 10.02155231 0 0 Z " fill="#CFE350" transform="translate(32,43)"></path><path d="M0 0 C0.66 0.33 1.32 0.66 2 1 C1.56042969 1.70898438 1.12085937 2.41796875 0.66796875 3.1484375 C-0.95319848 5.91998804 -2.32148204 8.72074404 -3.6875 11.625 C-7.36863784 19.07010128 -11.92426026 26.26284637 -18 32 C-17.67 31.05125 -17.34 30.1025 -17 29.125 C-15.89840809 26.22937548 -15.89840809 26.22937548 -16 24 C-17.98 25.65 -19.96 27.3 -22 29 C-20.53033642 25.60140297 -18.61962486 23.35036291 -16 20.75 C-15.29875 20.04359375 -14.5975 19.3371875 -13.875 18.609375 C-12 17 -12 17 -10 17 C-9.690625 16.05125 -9.38125 15.1025 -9.0625 14.125 C-8 11 -8 11 -7 9 C-6.34 9 -5.68 9 -5 9 C-4.731875 8.071875 -4.46375 7.14375 -4.1875 6.1875 C-3.08851629 3.23759634 -2.37581439 1.94384814 0 0 Z " fill="#BCCF3B" transform="translate(104,55)"></path><path d="M0 0 C2.4375 0.1875 2.4375 0.1875 3.4375 1.1875 C3.57865161 3.85808851 3.47997107 6.51182238 3.4375 9.1875 C3.1075 9.1875 2.7775 9.1875 2.4375 9.1875 C2.4375 6.8775 2.4375 4.5675 2.4375 2.1875 C-2.66807473 5.90064526 -5.11676749 9.38967529 -7.5625 15.1875 C-8.2225 15.1875 -8.8825 15.1875 -9.5625 15.1875 C-9.830625 15.91324219 -10.09875 16.63898437 -10.375 17.38671875 C-11.54920381 20.15614024 -12.9019324 22.49669434 -14.5625 25 C-15.078125 25.79019531 -15.59375 26.58039062 -16.125 27.39453125 C-16.599375 27.98621094 -17.07375 28.57789062 -17.5625 29.1875 C-18.2225 29.1875 -18.8825 29.1875 -19.5625 29.1875 C-18.08241304 24.18636406 -15.9306664 19.85834403 -13.4375 15.3125 C-13.06496094 14.62414063 -12.69242188 13.93578125 -12.30859375 13.2265625 C-11.39750474 11.54455202 -10.48059685 9.86569564 -9.5625 8.1875 C-8.5725 8.1875 -7.5825 8.1875 -6.5625 8.1875 C-6.27375 7.23875 -5.985 6.29 -5.6875 5.3125 C-3.87712926 0.28369238 -3.87712926 0.28369238 0 0 Z " fill="#BFD33B" transform="translate(52.5625,13.8125)"></path><path d="M0 0 C-0.99 0.33 -1.98 0.66 -3 1 C-3.309375 1.78375 -3.61875 2.5675 -3.9375 3.375 C-5.16645501 6.4112418 -6.1649001 7.41567947 -9 9 C-10.32 9 -11.64 9 -13 9 C-15.6513729 10.5172598 -15.6513729 10.5172598 -18.25 12.5 C-19.14203125 13.1496875 -20.0340625 13.799375 -20.953125 14.46875 C-21.62859375 14.9740625 -22.3040625 15.479375 -23 16 C-23.66 15.67 -24.32 15.34 -25 15 C-9.73214286 -1.24240122 -9.73214286 -1.24240122 0 0 Z " fill="#D9EC59" transform="translate(79,32)"></path><path d="M0 0 C0.33 0 0.66 0 1 0 C1.6973701 6.79935846 -1.30073046 12.2083429 -4.75 17.875 C-6.61271656 22.53179141 -6.23798473 27.04639199 -6 32 C-6.99 31.67 -7.98 31.34 -9 31 C-11.06644161 26.86711677 -10.37953355 23.22364135 -9.05859375 18.96484375 C-6.57664135 12.31258887 -3.68523158 6.06887073 0 0 Z " fill="#CADE50" transform="translate(54,74)"></path><path d="M0 0 C2.63183484 1.72430559 2.96429365 2.87090782 3.8125 5.9375 C4 9 4 9 2 13 C1.67 9.37 1.34 5.74 1 2 C-0.98 2.33 -2.96 2.66 -5 3 C-5.28875 3.94875 -5.5775 4.8975 -5.875 5.875 C-7 9 -7 9 -9 11 C-9.66 9.68 -10.32 8.36 -11 7 C-12.32 7 -13.64 7 -15 7 C-13.76811091 3.16745617 -11.36839883 1.54390271 -7.875 -0.3046875 C-4.93084818 -1.39647713 -2.92293577 -0.99645538 0 0 Z " fill="#CCE048" transform="translate(107,53)"></path><path d="M0 0 C-0.57357353 3.70879792 -2.04633527 5.42111782 -4.67578125 8.0390625 C-5.42150391 8.78414062 -6.16722656 9.52921875 -6.93554688 10.296875 C-7.71994141 11.06515625 -8.50433594 11.8334375 -9.3125 12.625 C-10.08529297 13.40101562 -10.85808594 14.17703125 -11.65429688 14.9765625 C-17.97550295 21.23798073 -17.97550295 21.23798073 -22 23 C-21.60573363 19.45160269 -20.02848022 17.90772858 -17.53540039 15.49145508 C-15.83371393 13.83847327 -14.17657328 12.14692438 -12.51953125 10.44921875 C-11.28393164 9.19523615 -10.04825327 7.94133117 -8.8125 6.6875 C-7.86987305 5.71973633 -7.86987305 5.71973633 -6.90820312 4.73242188 C-6.30556641 4.12333984 -5.70292969 3.51425781 -5.08203125 2.88671875 C-4.53780518 2.33201904 -3.9935791 1.77731934 -3.43286133 1.20581055 C-2 0 -2 0 0 0 Z " fill="#D0E34D" transform="translate(54,48)"></path><path d="M0 0 C0 3 0 3 -1.6875 5.015625 C-2.450625 5.75296875 -3.21375 6.4903125 -4 7.25 C-4.82242188 8.04664062 -5.64484375 8.84328125 -6.4921875 9.6640625 C-9.30175923 12.28107791 -12.17166577 14.81002243 -15.08984375 17.3046875 C-17.04849729 19.04304259 -18.86584919 20.86933243 -20.6875 22.75 C-23.24281318 25.35806047 -25.72637264 27.31358591 -29 29 C-27.25 25.125 -27.25 25.125 -25 24 C-24.67 23.01 -24.34 22.02 -24 21 C-22.4765625 19.53515625 -22.4765625 19.53515625 -20.625 18.0625 C-17.98088197 15.89421507 -16.02158212 13.76637554 -14 11 C-13.34 11 -12.68 11 -12 11 C-11.67 10.01 -11.34 9.02 -11 8 C-9.68 8 -8.36 8 -7 8 C-7 7.34 -7 6.68 -7 6 C-5.46875 4.4921875 -5.46875 4.4921875 -3.5 2.875 C-2.8503125 2.33617188 -2.200625 1.79734375 -1.53125 1.2421875 C-1.0259375 0.83226563 -0.520625 0.42234375 0 0 Z " fill="#CBDF4C" transform="translate(120,92)"></path><path d="M0 0 C2.0625 0.4375 2.0625 0.4375 4 1 C3.67 2.32 3.34 3.64 3 5 C2.34 5 1.68 5 1 5 C-0.4146771 6.58477107 -0.4146771 6.58477107 -1.8125 8.625 C-4.41229586 12.21489011 -7.12989032 15.62340038 -10 19 C-10.75 17.3125 -10.75 17.3125 -11 15 C-9.72641268 13.28724465 -8.38576923 11.62332967 -7 10 C-5.75983331 7.3205355 -5.75983331 7.3205355 -5 5 C-4.34 5 -3.68 5 -3 5 C-2.690625 4.360625 -2.38125 3.72125 -2.0625 3.0625 C-1 1 -1 1 0 0 Z " fill="#AEC32C" transform="translate(78,37)"></path><path d="M0 0 C0.33 0.66 0.66 1.32 1 2 C0.29296875 3.734375 0.29296875 3.734375 -0.8125 5.75 C-2.5785683 9.1067394 -3.84467309 12.3799757 -5 16 C-5.87823439 18.44290485 -6.85083775 20.65570902 -8 23 C-8.99 23.33 -9.98 23.66 -11 24 C-11 22.02 -11 20.04 -11 18 C-10.34 18 -9.68 18 -9 18 C-8.7525 17.195625 -8.505 16.39125 -8.25 15.5625 C-6.73921353 11.25675857 -4.89811144 7.14635993 -3 3 C-2.34 3 -1.68 3 -1 3 C-0.67 2.01 -0.34 1.02 0 0 Z " fill="#A6BA23" transform="translate(66,56)"></path><path d="M0 0 C0.67578125 1.6875 0.67578125 1.6875 1 4 C-0.14453125 6.4375 -0.14453125 6.4375 -1.8125 9 C-3.70531624 11.94937637 -5.4964973 14.8316431 -7 18 C-7.66 18 -8.32 18 -9 18 C-9.99 20.475 -9.99 20.475 -11 23 C-11.33 22.34 -11.66 21.68 -12 21 C-11.26821134 18.92803369 -10.44100997 16.8891448 -9.5625 14.875 C-9.08941406 13.77929688 -8.61632812 12.68359375 -8.12890625 11.5546875 C-7.75636719 10.71164063 -7.38382813 9.86859375 -7 9 C-6.34 9 -5.68 9 -5 9 C-4.5978125 7.88625 -4.5978125 7.88625 -4.1875 6.75 C-3.05770579 4.13363446 -1.79106798 2.19812889 0 0 Z " fill="#B4C831" transform="translate(40,34)"></path><path d="M0 0 C0.99 0.99 1.98 1.98 3 3 C1.7260411 5.03833424 0.38938077 7.03852126 -1 9 C-1.66 9 -2.32 9 -3 9 C-3 9.66 -3 10.32 -3 11 C-4.65532623 12.01866229 -6.32260138 13.01810813 -8 14 C-8.33 14.66 -8.66 15.32 -9 16 C-9.66 15.67 -10.32 15.34 -11 15 C-9.65493623 11.36832782 -7.4563386 9.71894179 -4.46484375 7.37109375 C-2.22925528 5.27858294 -1.16757903 2.78921658 0 0 Z " fill="#C5D942" transform="translate(131,121)"></path><path d="M0 0 C0 3.05862368 -0.4301739 4.30600733 -1.6796875 7.01953125 C-2.03160156 7.79490234 -2.38351563 8.57027344 -2.74609375 9.36914062 C-3.11863281 10.17544922 -3.49117188 10.98175781 -3.875 11.8125 C-6.17211474 16.81663864 -8.38528248 21.72242326 -10 27 C-10.33 27 -10.66 27 -11 27 C-11.71641495 21.55524638 -9.78731403 18.12271501 -7.30078125 13.46484375 C-6.1979575 11.37510866 -5.25530712 9.313999 -4.375 7.125 C-3.16197557 4.36812629 -1.92615972 2.29304728 0 0 Z M-12 27 C-12 30 -12 30 -12 30 Z " fill="#A7BB24" transform="translate(91,80)"></path><path d="M0 0 C0.66 0.33 1.32 0.66 2 1 C-4.27 7.27 -10.54 13.54 -17 20 C-17.66 19.67 -18.32 19.34 -19 19 C-17.60974609 17.64455078 -17.60974609 17.64455078 -16.19140625 16.26171875 C-14.9815084 15.07057901 -13.77188732 13.87915809 -12.5625 12.6875 C-11.95083984 12.09259766 -11.33917969 11.49769531 -10.70898438 10.88476562 C-10.12568359 10.30791016 -9.54238281 9.73105469 -8.94140625 9.13671875 C-8.13231812 8.34334106 -8.13231812 8.34334106 -7.30688477 7.53393555 C-5.76440675 5.91744147 -5.76440675 5.91744147 -5 3 C-2.5625 1.25 -2.5625 1.25 0 0 Z " fill="#BDD239" transform="translate(59,45)"></path><path d="M0 0 C0.33 0 0.66 0 1 0 C1 6.27 1 12.54 1 19 C0.34 19 -0.32 19 -1 19 C-3.70308147 14.9453778 -3.54301708 11.76123668 -3 7 C-2.2062105 4.48098014 -1.20764211 2.3649658 0 0 Z " fill="#D6E956" transform="translate(20,67)"></path><path d="M0 0 C0.66 0.33 1.32 0.66 2 1 C-0.3118004 8.27537186 -2.9444594 15.1500173 -8 21 C-8.66 21 -9.32 21 -10 21 C-8.51991304 15.99886406 -6.3681664 11.67084403 -3.875 7.125 C-3.50246094 6.43664062 -3.12992188 5.74828125 -2.74609375 5.0390625 C-1.83500474 3.35705202 -0.91809685 1.67819564 0 0 Z " fill="#CEE249" transform="translate(43,22)"></path><path d="M0 0 C0.625 1.75 0.625 1.75 1 4 C0.69320312 4.59296875 0.38640625 5.1859375 0.0703125 5.796875 C-1.47344412 8.9745346 -1.1899173 11.7444658 -1.125 15.25 C-1.10695313 16.51328125 -1.08890625 17.7765625 -1.0703125 19.078125 C-1.04710938 20.04234375 -1.02390625 21.0065625 -1 22 C-2.96484375 20.68359375 -2.96484375 20.68359375 -5 19 C-6.32186041 12.09695117 -2.83550745 6.16722871 0 0 Z " fill="#C8DA49" transform="translate(76,105)"></path><path d="M0 0 C0.33 0 0.66 0 1 0 C2.00306087 7.3557797 -1.52098642 12.6942879 -5 19 C-5.33 19 -5.66 19 -6 19 C-6.59720137 13.17728663 -4.528243 9.0790596 -2 4 C-1.34 4 -0.68 4 0 4 C0 2.68 0 1.36 0 0 Z " fill="#B1C530" transform="translate(108,62)"></path><path d="M0 0 C0.33 0 0.66 0 1 0 C0.57278337 6.6264027 -2.01298698 11.61112644 -5.0625 17.4375 C-5.53494141 18.35982422 -6.00738281 19.28214844 -6.49414062 20.23242188 C-7.65377101 22.49311545 -8.82250342 24.74857555 -10 27 C-11 24 -11 24 -9.8203125 21.22265625 C-9.26085937 20.17980469 -8.70140625 19.13695312 -8.125 18.0625 C-5.52435589 13.2300747 -5.52435589 13.2300747 -4 8 C-3.34 8 -2.68 8 -2 8 C-1.855625 7.236875 -1.71125 6.47375 -1.5625 5.6875 C-1 3 -1 3 0 0 Z " fill="#AABD33" transform="translate(80,45)"></path><path d="M0 0 C2 1 2 1 2 1 Z M-4 2 C-3.01 2.33 -2.02 2.66 -1 3 C-1.9520721 4.00596297 -2.91187346 5.00461563 -3.875 6 C-4.40867187 6.556875 -4.94234375 7.11375 -5.4921875 7.6875 C-7 9 -7 9 -9 9 C-7.70700306 6.11562221 -6.34058637 4.12780579 -4 2 Z M-13 9 C-10.875 9.375 -10.875 9.375 -9 10 C-9.45375 10.433125 -9.9075 10.86625 -10.375 11.3125 C-12.20024334 13.10798342 -12.20024334 13.10798342 -14 16 C-14.625 13.625 -14.625 13.625 -15 11 C-14.34 10.34 -13.68 9.68 -13 9 Z " fill="#C9DE45" transform="translate(35,23)"></path><path d="M0 0 C0.33 0 0.66 0 1 0 C0.85892253 1.45880109 0.71197585 2.91703551 0.5625 4.375 C0.48128906 5.18710938 0.40007812 5.99921875 0.31640625 6.8359375 C0 9 0 9 -1 11 C-1.66 11 -2.32 11 -3 11 C-3.103125 11.639375 -3.20625 12.27875 -3.3125 12.9375 C-3.539375 13.618125 -3.76625 14.29875 -4 15 C-4.99 15.33 -5.98 15.66 -7 16 C-5.35433477 10.31497465 -2.70967216 5.23318364 0 0 Z " fill="#B5C73B" transform="translate(115,102)"></path><path d="M0 0 C2 1 2 1 4 3 C4.78944072 7.40618076 4.49537141 10.25694288 2 14 C2 10.7 2 7.4 2 4 C-2.20180184 4.5739739 -2.20180184 4.5739739 -4 8 C-4.66 8 -5.32 8 -6 8 C-6.33 9.65 -6.66 11.3 -7 13 C-8 10 -8 10 -6.875 7.625 C-4.82957869 4.76141017 -2.55306054 2.41505726 0 0 Z " fill="#BED23C" transform="translate(79,34)"></path><path d="M0 0 C1 3 1 3 -0.43359375 6.13671875 C-1.09135973 7.3260128 -1.75977815 8.50946371 -2.4375 9.6875 C-2.77587891 10.29400391 -3.11425781 10.90050781 -3.46289062 11.52539062 C-4.29957915 13.0220025 -5.14862831 14.51169189 -6 16 C-6.33 16 -6.66 16 -7 16 C-7.45374191 10.32822615 -6.65083143 7.4024732 -3 3 C-2.34 3 -1.68 3 -1 3 C-0.67 2.01 -0.34 1.02 0 0 Z " fill="#C4D841" transform="translate(118,121)"></path><path d="M0 0 C0.33 0 0.66 0 1 0 C0.67 4.29 0.34 8.58 0 13 C2.31 13.66 4.62 14.32 7 15 C5 17 5 17 1.875 17.125 C0.451875 17.063125 0.451875 17.063125 -1 17 C-2.66550691 12.00347926 -2.63421165 6.94227317 -1 1.9375 C-0.67 1.298125 -0.34 0.65875 0 0 Z " fill="#BCD039" transform="translate(22,70)"></path><path d="M0 0 C0.70703125 1.58203125 0.70703125 1.58203125 1 4 C-0.36328125 7.19921875 -0.36328125 7.19921875 -2.3125 10.6875 C-2.63412109 11.28111328 -2.95574219 11.87472656 -3.28710938 12.48632812 C-5.71421172 16.85710586 -5.71421172 16.85710586 -8 18 C-6.65150163 13.64029169 -4.95092154 9.68658562 -2.875 5.625 C-2.33617188 4.56539063 -1.79734375 3.50578125 -1.2421875 2.4140625 C-0.83226563 1.61742188 -0.42234375 0.82078125 0 0 Z " fill="#C0D341" transform="translate(85,87)"></path><path d="M0 0 C0.703125 1.64453125 0.703125 1.64453125 1 4 C-0.328125 6.76171875 -0.328125 6.76171875 -2.25 9.6875 C-2.87390625 10.66074219 -3.4978125 11.63398437 -4.140625 12.63671875 C-6 15 -6 15 -9 16 C-7.6878302 12.41847372 -6.10380616 9.44752292 -3.9375 6.3125 C-1.8177976 3.24499911 -1.8177976 3.24499911 0 0 Z " fill="#B5C934" transform="translate(125,86)"></path><path d="M0 0 C0.66 0.33 1.32 0.66 2 1 C-0.63886654 5.2026393 -3.36440339 8.56638098 -7 12 C-6.67566492 6.64847115 -3.50295176 3.71719957 0 0 Z " fill="#A9BD26" transform="translate(48,24)"></path><path d="M0 0 C2.5 0.125 2.5 0.125 3.5 1.125 C3.64115161 3.79558851 3.54247107 6.44932238 3.5 9.125 C3.17 9.125 2.84 9.125 2.5 9.125 C2.5 6.815 2.5 4.505 2.5 2.125 C1.3553125 2.8365625 1.3553125 2.8365625 0.1875 3.5625 C-2.5 5.125 -2.5 5.125 -5.5 6.125 C-3.20588235 0.16029412 -3.20588235 0.16029412 0 0 Z " fill="#C8DA4D" transform="translate(52.5,13.875)"></path><path d="M0 0 C0 0.99 0 1.98 0 3 C-0.66 2.34 -1.32 1.68 -2 1 C-1.34 0.67 -0.68 0.34 0 0 Z M-5 2 C-4.01 2.33 -3.02 2.66 -2 3 C-4.97 5.475 -4.97 5.475 -8 8 C-8.66 7.67 -9.32 7.34 -10 7 C-8.35 5.35 -6.7 3.7 -5 2 Z M-13 8 C-12.01 8.33 -11.02 8.66 -10 9 C-11.65 9.66 -13.3 10.32 -15 11 C-14.34 10.01 -13.68 9.02 -13 8 Z " fill="#CDE14C" transform="translate(69,37)"></path><path d="M0 0 C0.66 0.33 1.32 0.66 2 1 C1.3503125 2.051875 1.3503125 2.051875 0.6875 3.125 C-1.01501086 6.02557406 -2.52448567 8.97870875 -4 12 C-5 10 -5 10 -4.25 6.5625 C-3.1372327 3.39111319 -2.58274406 1.99575677 0 0 Z " fill="#B9CD35" transform="translate(104,55)"></path><path d="M0 0 C0.66 0 1.32 0 2 0 C0.45454854 5.47932789 -2.15543212 10.11429181 -5 15 C-6 13 -6 13 -5.44140625 11.0546875 C-5.00634766 9.97574219 -5.00634766 9.97574219 -4.5625 8.875 C-4.27503906 8.15054688 -3.98757812 7.42609375 -3.69140625 6.6796875 C-3.46324219 6.12539062 -3.23507813 5.57109375 -3 5 C-2.34 5 -1.68 5 -1 5 C-0.67 3.35 -0.34 1.7 0 0 Z " fill="#B9CC36" transform="translate(96,89)"></path><path d="M0 0 C0.33 0 0.66 0 1 0 C1.59720137 5.82271337 -0.471757 9.9209404 -3 15 C-4.07478554 11.77564339 -3.93162085 10.71203245 -3.1875 7.5 C-3.01605469 6.7265625 -2.84460937 5.953125 -2.66796875 5.15625 C-2 3 -2 3 0 0 Z " fill="#BBCF3D" transform="translate(54,74)"></path><path d="M0 0 C-0.25 1.875 -0.25 1.875 -1 4 C-2.32407669 4.68486725 -3.65909241 5.34870203 -5 6 C-6.28016835 7.00435972 -7.53128122 8.04690261 -8.75 9.125 C-9.36359375 9.66382812 -9.9771875 10.20265625 -10.609375 10.7578125 C-11.06828125 11.16773437 -11.5271875 11.57765625 -12 12 C-10.53033642 8.60140297 -8.61962486 6.35036291 -6 3.75 C-5.29875 3.04359375 -4.5975 2.3371875 -3.875 1.609375 C-2 0 -2 0 0 0 Z " fill="#C4D747" transform="translate(94,72)"></path><path d="M0 0 C0.99 0 1.98 0 3 0 C1 4 -1 8 -3 12 C-3.66 12 -4.32 12 -5 12 C-3.68938409 7.76570244 -2.05643741 3.92592596 0 0 Z " fill="#C2D63F" transform="translate(68,47)"></path><path d="M0 0 C-1.78614318 1.03046722 -3.57910018 2.04913236 -5.375 3.0625 C-6.87160156 3.91521484 -6.87160156 3.91521484 -8.3984375 4.78515625 C-9.25695312 5.18605469 -10.11546875 5.58695313 -11 6 C-11.66 5.67 -12.32 5.34 -13 5 C-5.19759185 -1.50200679 -5.19759185 -1.50200679 0 0 Z " fill="#DBED5E" transform="translate(105,53)"></path><path d="M0 0 C0.33 0.66 0.66 1.32 1 2 C0.07421875 4.12890625 0.07421875 4.12890625 -1.3125 6.5625 C-1.98732422 7.77099609 -1.98732422 7.77099609 -2.67578125 9.00390625 C-4 11 -4 11 -6 12 C-5.01 9.03 -4.02 6.06 -3 3 C-2.34 3 -1.68 3 -1 3 C-0.67 2.01 -0.34 1.02 0 0 Z " fill="#AEC22B" transform="translate(66,56)"></path><path d="M0 0 C0 3.19610552 -0.54671542 4.41717626 -2 7.1875 C-2.37125 7.90292969 -2.7425 8.61835937 -3.125 9.35546875 C-3.41375 9.89816406 -3.7025 10.44085938 -4 11 C-5 8 -5 8 -3.6875 4.375 C-2 1 -2 1 0 0 Z " fill="#AFC32C" transform="translate(121,113)"></path><path d="M0 0 C1.43088528 2.86177057 0.59991697 4.93375773 0 8 C-2.97 7.505 -2.97 7.505 -6 7 C-5.071875 6.1028125 -5.071875 6.1028125 -4.125 5.1875 C-1.86323046 2.99188856 -1.86323046 2.99188856 0 0 Z " fill="#C3D545" transform="translate(108,141)"></path><path d="M0 0 C0.66 0.99 1.32 1.98 2 3 C2.99 3.33 3.98 3.66 5 4 C1.36576791 6.32590854 -1.77088331 6.16265833 -6 6 C-6 5.67 -6 5.34 -6 5 C-4.35 5 -2.7 5 -1 5 C-0.67 3.35 -0.34 1.7 0 0 Z " fill="#C0D14D" transform="translate(81,122)"></path><path d="M0 0 C0 0.33 0 0.66 0 1 C-1.546875 1.433125 -1.546875 1.433125 -3.125 1.875 C-6.45007997 2.82308798 -9.72751453 3.88256594 -13 5 C-8.49251112 0.34226149 -6.53321609 -0.12098548 0 0 Z " fill="#DFF16B" transform="translate(79,32)"></path><path d="M0 0 C1.98 0 3.96 0 6 0 C5.13375 0.2784375 5.13375 0.2784375 4.25 0.5625 C0.89572157 2.70551122 -0.17907996 5.48822563 -2 9 C-3 6 -3 6 -1.5625 2.8125 C-1.046875 1.884375 -0.53125 0.95625 0 0 Z " fill="#D7EB55" transform="translate(48,13)"></path><path d="M0 0 C0.66 0 1.32 0 2 0 C3.03039555 4.53374042 3.17766075 5.64467851 1 10 C0.67 6.7 0.34 3.4 0 0 Z " fill="#C3D74E" transform="translate(108,56)"></path><path d="M0 0 C0.62109375 1.796875 0.62109375 1.796875 1 4 C-0.9375 7.25 -0.9375 7.25 -3 10 C-3.33 9.34 -3.66 8.68 -4 8 C-3.22265625 6.0546875 -3.22265625 6.0546875 -2.0625 3.875 C-1.49208984 2.78832031 -1.49208984 2.78832031 -0.91015625 1.6796875 C-0.60980469 1.12539062 -0.30945313 0.57109375 0 0 Z " fill="#B2C62F" transform="translate(108,137)"></path><path d="M0 0 C0.33 0.66 0.66 1.32 1 2 C0.06421005 4.35981813 -0.93347808 6.69631264 -2 9 C-2.66 9 -3.32 9 -4 9 C-2.94124926 5.59687262 -1.99097846 2.98646769 0 0 Z " fill="#D8EC57" transform="translate(37,34)"></path></svg>