<svg xmlns="http://www.w3.org/2000/svg" width="160" height="160"><path d="M0 0 C5.68356145 0.40502494 10.14467499 2.12822204 15.26953125 4.52734375 C16.03174484 4.87632217 16.79395844 5.2253006 17.57926941 5.58485413 C19.17877713 6.31942546 20.77627525 7.058387 22.37182617 7.80151367 C24.81803394 8.94007571 27.27064115 10.06382386 29.72460938 11.18554688 C31.28164477 11.90278945 32.83829935 12.62085946 34.39453125 13.33984375 C35.12783157 13.67636459 35.8611319 14.01288544 36.61665344 14.35960388 C41.76769079 16.76769079 41.76769079 16.76769079 44 19 C44.51217996 22.64361965 44.41690279 26.324542 44.4375 30 C44.47037109 31.00417969 44.50324219 32.00835937 44.53710938 33.04296875 C44.59115053 40.63820697 42.76384784 45.50178771 39 52 C38.05109135 53.86925215 37.11322632 55.74415922 36.1875 57.625 C35.45833333 59.08333333 34.72916667 60.54166667 34 62 C34.92337158 62.40839111 35.84674316 62.81678223 36.7980957 63.23754883 C40.22847164 64.75693624 43.65473226 66.28541507 47.07983398 67.81665039 C48.56180207 68.47766163 50.0448695 69.13621393 51.52905273 69.79223633 C53.66424795 70.73652588 55.79531181 71.68963604 57.92578125 72.64453125 C58.58838455 72.9352803 59.25098785 73.22602936 59.93367004 73.52558899 C66.17484627 76.34293469 66.17484627 76.34293469 68 79 C70.01606058 88.61497717 69.69870194 100.60700641 64.75 109.1875 C63.63086685 110.82207619 62.50905778 112.45541051 61.34472656 114.05810547 C58.52510181 118.12987296 56.12829902 122.47951086 53.625 126.75 C52.60116329 128.47681875 51.57284002 130.200989 50.5390625 131.921875 C50.09771973 132.66018555 49.65637695 133.39849609 49.20166016 134.15917969 C48 136 48 136 46 138 C39.34130285 137.8492705 33.85843224 134.88632922 27.9375 132.0625 C19.64491079 128.0932654 19.64491079 128.0932654 11 125 C10.32453125 126.13179688 9.6490625 127.26359375 8.953125 128.4296875 C8.05261295 129.91178025 7.15154199 131.39353352 6.25 132.875 C5.58484375 133.99455078 5.58484375 133.99455078 4.90625 135.13671875 C4.46796875 135.85214844 4.0296875 136.56757813 3.578125 137.3046875 C3.18012695 137.96452637 2.78212891 138.62436523 2.37207031 139.30419922 C0.7278094 141.33641208 -0.52013276 142.17827232 -3 143 C-6.5625 141.625 -6.5625 141.625 -10 140 C-10.99 140 -11.98 140 -13 140 C-13.38671875 140.73605469 -13.7734375 141.47210938 -14.171875 142.23046875 C-19.34446397 151.92267135 -19.34446397 151.92267135 -23 156 C-28.23711706 155.40777726 -32.41190375 153.69304887 -37.13671875 151.5078125 C-37.89797562 151.16120575 -38.65923248 150.814599 -39.44355774 150.45748901 C-41.04447206 149.72632494 -42.64374851 148.99156517 -44.24145508 148.25341797 C-46.68560237 147.12587542 -49.13621904 146.0134147 -51.58789062 144.90234375 C-53.14624246 144.18839234 -54.70419929 143.47357796 -56.26171875 142.7578125 C-57.35863289 142.26077316 -57.35863289 142.26077316 -58.47770691 141.75369263 C-61.83998944 140.18948768 -64.57492374 138.82378084 -67 136 C-67.66474077 132.51513518 -67.52260286 128.97890498 -67.5 125.4375 C-67.49500488 124.43549561 -67.49000977 123.43349121 -67.48486328 122.40112305 C-67.31116776 115.07296907 -66.20313743 110.0711985 -62 104 C-60.87989976 101.96703117 -59.77589733 99.92511659 -58.6875 97.875 C-57.79343863 96.24902441 -56.89826038 94.62365965 -56 93 C-56.50789063 92.89945312 -57.01578125 92.79890625 -57.5390625 92.6953125 C-60.95162762 91.73112743 -64.13832225 90.30518692 -67.375 88.875 C-68.07310791 88.56804199 -68.77121582 88.26108398 -69.49047852 87.94482422 C-88.50092239 79.49907761 -88.50092239 79.49907761 -91 77 C-92.29935903 64.33618856 -92.45684534 52.67806016 -85 42 C-84.20584064 40.68900676 -83.41400105 39.37660414 -82.625 38.0625 C-82.22796875 37.45019531 -81.8309375 36.83789062 -81.421875 36.20703125 C-78.82316936 32.17332606 -76.36290618 28.05115334 -73.8671875 23.953125 C-72.33805557 21.5346653 -70.76025848 19.25225619 -69 17 C-64.24003864 17.58628019 -60.42631077 18.9561504 -56.0703125 20.94140625 C-55.43511688 21.22853989 -54.79992126 21.51567352 -54.14547729 21.81150818 C-52.13556819 22.72189079 -50.13029344 23.64200189 -48.125 24.5625 C-46.75550375 25.18489523 -45.38571472 25.80664666 -44.015625 26.42773438 C-40.67366492 27.94439226 -37.33578616 29.46980249 -34 31 C-33.52296631 30.24871826 -33.04593262 29.49743652 -32.55444336 28.72338867 C-31.92675049 27.7357251 -31.29905762 26.74806152 -30.65234375 25.73046875 C-30.03093506 24.75231201 -29.40952637 23.77415527 -28.76928711 22.76635742 C-26.88325081 19.81745756 -24.95965121 16.90028379 -23 14 C-18.28596212 14.47939368 -14.33420699 14.96834048 -10 17 C-9.74347656 16.29359375 -9.48695312 15.5871875 -9.22265625 14.859375 C-7.8948784 11.75415651 -6.27173256 9.08367869 -4.4375 6.25 C-3.50744141 4.80367188 -3.50744141 4.80367188 -2.55859375 3.328125 C-1 1 -1 1 0 0 Z " fill="#98AB16" transform="translate(92,1)"></path><path d="M0 0 C0.33 0 0.66 0 1 0 C1.98341198 23.06328042 1.98341198 23.06328042 -2.50463867 29.69677734 C-4.09568474 32.14737794 -5.38860919 34.64368796 -6.67578125 37.265625 C-7.11446533 38.15540039 -7.55314941 39.04517578 -8.00512695 39.96191406 C-8.49758911 40.9707666 -8.49758911 40.9707666 -9 42 C-8.07662842 42.40839111 -7.15325684 42.81678223 -6.2019043 43.23754883 C-2.77152836 44.75693624 0.65473226 46.28541507 4.07983398 47.81665039 C5.56180207 48.47766163 7.0448695 49.13621393 8.52905273 49.79223633 C10.66424795 50.73652588 12.79531181 51.68963604 14.92578125 52.64453125 C15.58838455 52.9352803 16.25098785 53.22602936 16.93367004 53.52558899 C23.17484627 56.34293469 23.17484627 56.34293469 25 59 C27.01606058 68.61497717 26.69870194 80.60700641 21.75 89.1875 C20.63086685 90.82207619 19.50905778 92.45541051 18.34472656 94.05810547 C15.52510181 98.12987296 13.12829902 102.47951086 10.625 106.75 C9.60116329 108.47681875 8.57284002 110.200989 7.5390625 111.921875 C7.09771973 112.66018555 6.65637695 113.39849609 6.20166016 114.15917969 C5 116 5 116 3 118 C-3.65869715 117.8492705 -9.14156776 114.88632922 -15.0625 112.0625 C-23.35508921 108.0932654 -23.35508921 108.0932654 -32 105 C-32.63228516 106.0828125 -32.63228516 106.0828125 -33.27734375 107.1875 C-33.82519531 108.115625 -34.37304688 109.04375 -34.9375 110 C-35.48277344 110.928125 -36.02804688 111.85625 -36.58984375 112.8125 C-37.05519531 113.534375 -37.52054688 114.25625 -38 115 C-38.33 115 -38.66 115 -39 115 C-39.66131596 109.7094723 -38.04553852 106.84303382 -35.2890625 102.5390625 C-34.86367187 102.03117187 -34.43828125 101.52328125 -34 101 C-33.34 101 -32.68 101 -32 101 C-31.9071875 100.01 -31.9071875 100.01 -31.8125 99 C-30.84152427 95.41485883 -29.14661517 92.90753597 -27.05859375 89.8671875 C-25.75340188 87.9227734 -25.75340188 87.9227734 -26 85 C-27.36125 84.443125 -27.36125 84.443125 -28.75 83.875 C-33.38274522 81.90038728 -37.84392585 79.59231194 -42.328125 77.3046875 C-45.00346307 75.92545159 -45.00346307 75.92545159 -48 75 C-48 74.34 -48 73.68 -48 73 C-50.31 72.67 -52.62 72.34 -55 72 C-55.33 71.01 -55.66 70.02 -56 69 C-57.84725052 68.30840599 -57.84725052 68.30840599 -60 68 C-60.66 67.731875 -61.32 67.46375 -62 67.1875 C-64.1399087 66.75042244 -64.1399087 66.75042244 -65.859375 68.5234375 C-68.52169106 71.60356229 -70.33039675 74.86330067 -72.25 78.4375 C-73.03440684 79.86441093 -73.82090337 81.29017488 -74.609375 82.71484375 C-75.00447266 83.42882324 -75.39957031 84.14280273 -75.80664062 84.87841797 C-77.63485476 88.12865954 -79.55061897 91.32129168 -81.5 94.5 C-82.1496875 95.5621875 -82.799375 96.624375 -83.46875 97.71875 C-83.9740625 98.4715625 -84.479375 99.224375 -85 100 C-85.33 100 -85.66 100 -86 100 C-87.19218046 86.02805261 -86.2813041 76.34218751 -78.19726562 64.72216797 C-76.43404137 62.18591513 -74.82275302 59.55745974 -73.1875 56.9375 C-72.62933594 56.08285156 -72.07117188 55.22820312 -71.49609375 54.34765625 C-70.14637234 52.2296861 -68.9346646 50.08786406 -67.75 47.875 C-66 45 -66 45 -63 44 C-60.37133789 44.90869141 -60.37133789 44.90869141 -57.22265625 46.3515625 C-56.06830078 46.87363281 -54.91394531 47.39570312 -53.72460938 47.93359375 C-52.50371558 48.49698282 -51.28301313 49.06078674 -50.0625 49.625 C-47.69984009 50.70188508 -45.33656249 51.77741605 -42.97265625 52.8515625 C-41.81781738 53.37782227 -40.66297852 53.90408203 -39.47314453 54.44628906 C-34.35798611 56.73455479 -29.18781813 58.88254748 -24 61 C-23.6898999 60.21753906 -23.3797998 59.43507812 -23.06030273 58.62890625 C-20.60603851 52.54382287 -17.45427149 46.87756648 -13.94921875 41.33984375 C-13.55347656 40.71207031 -13.15773438 40.08429687 -12.75 39.4375 C-12.32589844 38.76589844 -11.90179688 38.09429687 -11.46484375 37.40234375 C-9.05220667 33.44561893 -6.80929008 29.39003634 -4.55078125 25.34375 C-4.03902344 24.5703125 -3.52726562 23.796875 -3 23 C-2.34 23 -1.68 23 -1 23 C-0.67 15.41 -0.34 7.82 0 0 Z " fill="#ACC02A" transform="translate(135,21)"></path><path d="M0 0 C0.71027344 0.27199219 1.42054687 0.54398437 2.15234375 0.82421875 C3.22162109 1.22060547 3.22162109 1.22060547 4.3125 1.625 C6.08984375 2.51171875 6.08984375 2.51171875 7.08984375 4.51171875 C9.40390595 5.24247523 11.73813244 5.91310133 14.08984375 6.51171875 C14.08984375 7.17171875 14.08984375 7.83171875 14.08984375 8.51171875 C14.89421875 8.57359375 15.69859375 8.63546875 16.52734375 8.69921875 C20.48360516 9.60152398 23.28987435 11.13798875 26.765625 13.16796875 C30.13019908 15.1132015 33.60189742 16.79945419 37.08984375 18.51171875 C36.30878897 22.48799761 34.47775125 25.19018201 32.24609375 28.51171875 C30.99293055 30.46237212 30.99293055 30.46237212 30.55859375 32.69921875 C30.40390625 33.29734375 30.24921875 33.89546875 30.08984375 34.51171875 C29.09984375 35.00671875 29.09984375 35.00671875 28.08984375 35.51171875 C25.54618933 39.28866016 23.95050896 42.01404492 23.65234375 46.57421875 C22.94657588 51.51459386 21.50226135 53.01180326 18.08984375 56.51171875 C17.47496094 56.29515625 16.86007813 56.07859375 16.2265625 55.85546875 C15.41832031 55.57703125 14.61007813 55.29859375 13.77734375 55.01171875 C12.97683594 54.73328125 12.17632812 54.45484375 11.3515625 54.16796875 C9.00214953 53.37238768 9.00214953 53.37238768 6.08984375 53.51171875 C5.703125 54.24777344 5.31640625 54.98382813 4.91796875 55.7421875 C-0.25462022 65.4343901 -0.25462022 65.4343901 -3.91015625 69.51171875 C-9.16673383 68.92141066 -13.34522295 67.18612435 -18.08203125 64.984375 C-18.84565979 64.63539658 -19.60928833 64.28641815 -20.39605713 63.92686462 C-22.00113721 63.19142711 -23.60461043 62.4524736 -25.20654297 61.71020508 C-27.66232186 60.5732161 -30.12361587 59.44891008 -32.5859375 58.32617188 C-34.14747606 57.60881396 -35.70868584 56.89073983 -37.26953125 56.171875 C-38.00596863 55.83535416 -38.74240601 55.49883331 -39.50115967 55.15211487 C-44.67882794 52.74304706 -44.67882794 52.74304706 -46.91015625 50.51171875 C-46.7931571 46.29974932 -44.97408136 44.2923984 -42.23828125 41.25 C-40.22158687 38.61050294 -39.14318818 35.660157 -37.875 32.609375 C-36.61650514 29.87329509 -34.84397326 27.80812645 -32.91015625 25.51171875 C-32.22413254 24.33529529 -31.55836849 23.14689215 -30.91015625 21.94921875 C-28.91015625 18.51171875 -28.91015625 18.51171875 -24.91015625 14.51171875 C-24.91015625 21.44171875 -24.91015625 28.37171875 -24.91015625 35.51171875 C-21.99313261 34.05320693 -21.91743063 31.81753425 -20.87841797 28.89160156 C-19.07234748 24.45247522 -16.47863613 20.45855451 -13.97265625 16.38671875 C-13.1847168 15.08541016 -13.1847168 15.08541016 -12.38085938 13.7578125 C-3.47504043 -0.88830277 -3.47504043 -0.88830277 0 0 Z " fill="#8C9F0C" transform="translate(72.91015625,87.48828125)"></path><path d="M0 0 C0.66 0 1.32 0 2 0 C2.11594584 3.93725326 2.18716464 7.87406923 2.25 11.8125 C2.30027344 13.49182617 2.30027344 13.49182617 2.3515625 15.20507812 C2.36445313 16.27822266 2.37734375 17.35136719 2.390625 18.45703125 C2.41157227 19.44678955 2.43251953 20.43654785 2.45410156 21.45629883 C2 24 2 24 0.04199219 25.65893555 C-0.63186523 26.10148682 -1.30572266 26.54403809 -2 27 C-2.70381157 28.98723268 -3.3711811 30.98777953 -4 33 C-4.47824219 33.474375 -4.95648437 33.94875 -5.44921875 34.4375 C-7.21277077 36.21437861 -7.84487022 37.67740283 -8.75 40 C-11.16864065 45.69036773 -14.25923238 51.07066336 -18 56 C-18.66 56 -19.32 56 -20 56 C-20.33 56.99 -20.66 57.98 -21 59 C-22.22223915 34.34210857 -22.22223915 34.34210857 -15 24 C-14.20584064 22.68900676 -13.41400105 21.37660414 -12.625 20.0625 C-12.22925781 19.45148437 -11.83351563 18.84046875 -11.42578125 18.2109375 C-9.50555471 15.23327114 -7.66221989 12.2092084 -5.8125 9.1875 C-3.91461482 6.09209645 -2.0140985 3.02114776 0 0 Z " fill="#EDFB7B" transform="translate(22,19)"></path><path d="M0 0 C1.2065625 0.0309375 1.2065625 0.0309375 2.4375 0.0625 C1.4475 0.7225 0.4575 1.3825 -0.5625 2.0625 C-0.97247211 4.139017 -0.97247211 4.139017 -0.86328125 6.53515625 C-0.87166016 7.43556641 -0.88003906 8.33597656 -0.88867188 9.26367188 C-0.8796875 11.14397416 -0.85920128 13.02426324 -0.82617188 14.90429688 C-0.9269118 22.38556153 -3.15849658 26.18781095 -7.5625 32.0625 C-8.70233204 33.87426443 -9.82154129 35.69913524 -10.921875 37.53515625 C-11.48003906 38.45361328 -12.03820312 39.37207031 -12.61328125 40.31835938 C-13.76586301 42.22210648 -14.91416588 44.12844948 -16.05859375 46.03710938 C-16.61160156 46.94396484 -17.16460937 47.85082031 -17.734375 48.78515625 C-18.2303418 49.60765869 -18.72630859 50.43016113 -19.23730469 51.27758789 C-19.89327637 52.16111938 -19.89327637 52.16111938 -20.5625 53.0625 C-21.2225 53.0625 -21.8825 53.0625 -22.5625 53.0625 C-24.72873538 48.73002924 -24.83811892 43.82519501 -24.5625 39.0625 C-22.5966366 33.42250568 -19.58767741 28.44795346 -16.1875 23.5625 C-14.19917443 21.00049011 -14.19917443 21.00049011 -14.5625 17.0625 C-13.9025 17.0625 -13.2425 17.0625 -12.5625 17.0625 C-12.30597656 16.35609375 -12.04945312 15.6496875 -11.78515625 14.921875 C-10.4573784 11.81665651 -8.83423256 9.14617869 -7 6.3125 C-6.37996094 5.34828125 -5.75992188 4.3840625 -5.12109375 3.390625 C-2.89852363 0.0706957 -2.89852363 0.0706957 0 0 Z " fill="#CDE14A" transform="translate(94.5625,0.9375)"></path><path d="M0 0 C0.33 0 0.66 0 1 0 C2.32256427 14.71505349 1.41052174 24.14324356 -7.54931641 35.97900391 C-10.1781395 39.64130575 -12.33725372 43.58439887 -14.5625 47.5 C-16.00843238 50.02508769 -17.47954833 52.51813141 -19 55 C-19.33 55 -19.66 55 -20 55 C-21.19218046 41.02805261 -20.2813041 31.34218751 -12.19726562 19.72216797 C-10.43404137 17.18591513 -8.82275302 14.55745974 -7.1875 11.9375 C-6.35605469 10.65746094 -6.35605469 10.65746094 -5.5078125 9.3515625 C-3.54911371 6.29680428 -1.76194879 3.17150783 0 0 Z " fill="#CDE149" transform="translate(69,66)"></path><path d="M0 0 C3.3 0.33 6.6 0.66 10 1 C9.26220782 9.48461002 6.3924726 16.42792402 1 23 C-0.11084395 25.27439217 -1.10427079 27.57480448 -2.0703125 29.9140625 C-3 32 -3 32 -5 35 C-5.66 35 -6.32 35 -7 35 C-7.28875 35.78375 -7.5775 36.5675 -7.875 37.375 C-9 40 -9 40 -11 42 C-12.00581791 18.41124886 -12.00581791 18.41124886 -6 10 C-4.88776352 8.12977567 -3.78358025 6.25473858 -2.6875 4.375 C-1.79539868 2.91438071 -0.90096577 1.45516808 0 0 Z " fill="#DAEE56" transform="translate(36,95)"></path><path d="M0 0 C0.33 0 0.66 0 1 0 C1.11622939 3.74973906 1.1872595 7.49901464 1.25 11.25 C1.30027344 12.84521484 1.30027344 12.84521484 1.3515625 14.47265625 C1.36445312 15.49746094 1.37734375 16.52226562 1.390625 17.578125 C1.41157227 18.52075195 1.43251953 19.46337891 1.45410156 20.43457031 C0.87271731 23.71907875 -0.49259159 24.89169466 -3 27 C-3.226875 26.21625 -3.45375 25.4325 -3.6875 24.625 C-4.78125 21.78125 -4.78125 21.78125 -7.625 20.6875 C-8.40875 20.460625 -9.1925 20.23375 -10 20 C-9.60178879 12.43398692 -4.63766338 5.75070259 0 0 Z " fill="#DDF159" transform="translate(69,15)"></path><path d="M0 0 C0.66 0 1.32 0 2 0 C4.05720451 14.53376888 -0.66216477 23.49594097 -8.46240234 35.5625 C-10.80917546 39.28275767 -12.91335731 43.12939761 -15 47 C-15.66 47 -16.32 47 -17 47 C-16.58267919 40.7811017 -14.46068221 36.73521847 -11.1875 31.5 C-9.87370995 29.34314643 -8.56088307 27.18571181 -7.2487793 25.02783203 C-6.45334684 23.7361679 -5.64129599 22.45448783 -4.80786133 21.18701172 C-2.03078736 16.7857759 -1.46054188 13.28094136 -1.3125 8.125 C-1.07092199 1.07092199 -1.07092199 1.07092199 0 0 Z " fill="#3B4300" transform="translate(67,45)"></path><path d="M0 0 C6.75 0 6.75 0 10 3 C9.31753247 6.86108345 7.53092043 9.82768052 5.5625 13.1875 C4.94503906 14.25355469 4.32757813 15.31960937 3.69140625 16.41796875 C2 19 2 19 0 20 C0 13.4 0 6.8 0 0 Z " fill="#9AAD16" transform="translate(71,16)"></path><path d="M0 0 C0.99 0.33 1.98 0.66 3 1 C2.13375 2.16789062 2.13375 2.16789062 1.25 3.359375 C-5.42276969 13.12915434 -5.93477465 21.4153251 -5.12695312 33.0456543 C-5.0198665 34.69417048 -5 36.34800933 -5 38 C-5.66 38 -6.32 38 -7 38 C-7.33 31.73 -7.66 25.46 -8 19 C-9.32 19.99 -10.64 20.98 -12 22 C-11.855625 21.484375 -11.71125 20.96875 -11.5625 20.4375 C-10.91562464 17.85291112 -10.91562464 17.85291112 -10.625 14.5625 C-10.00059604 11.00339743 -9.04499155 8.9341183 -7 6 C-6.67 6.99 -6.34 7.98 -6 9 C-5.34 9 -4.68 9 -4 9 C-3.71125 8.071875 -3.4225 7.14375 -3.125 6.1875 C-2 3 -2 3 0 0 Z " fill="#9DAF21" transform="translate(55,85)"></path><path d="M0 0 C0.33 0 0.66 0 1 0 C1.99030801 23.22500826 1.99030801 23.22500826 -4 32 C-4.96026929 33.86344148 -5.89806207 35.73864518 -6.8125 37.625 C-7.54166667 39.08333333 -8.27083333 40.54166667 -9 42 C-6.69 42.99 -4.38 43.98 -2 45 C-3.625 45.6875 -3.625 45.6875 -6 46 C-9.25 44.5625 -9.25 44.5625 -12 43 C-12.33 43.99 -12.66 44.98 -13 46 C-13.33 45.34 -13.66 44.68 -14 44 C-12.8253808 41.32744469 -11.59442214 38.77275011 -10.25 36.1875 C-9.8890625 35.47529297 -9.528125 34.76308594 -9.15625 34.02929688 C-5.07124094 26.02948747 -5.07124094 26.02948747 -3 23 C-2.34 23 -1.68 23 -1 23 C-0.67 15.41 -0.34 7.82 0 0 Z " fill="#C4D749" transform="translate(135,21)"></path><path d="M0 0 C0.33 0 0.66 0 1 0 C2.02593507 14.52487308 1.6533933 24.05893756 -7 36 C-8.18443975 37.94763524 -9.3531257 39.90501018 -10.5 41.875 C-11.33176394 43.25094992 -12.16442311 44.62636224 -13 46 C-14.41757652 41.74727045 -12.93095533 39.45044369 -11.24609375 35.43359375 C-9.65733081 32.3307746 -7.5809294 30.31621869 -5 28 C-1.51872879 23.52407987 -1.4987706 19.44590647 -1.375 14 C-1.06043046 4.31125828 -1.06043046 4.31125828 0 0 Z " fill="#E5F56D" transform="translate(159,81)"></path><path d="M0 0 C0.66 0 1.32 0 2 0 C2.11594584 3.93725326 2.18716464 7.87406923 2.25 11.8125 C2.30027344 13.49182617 2.30027344 13.49182617 2.3515625 15.20507812 C2.36445313 16.27822266 2.37734375 17.35136719 2.390625 18.45703125 C2.41157227 19.44678955 2.43251953 20.43654785 2.45410156 21.45629883 C2 24 2 24 0.05371094 25.6472168 C-0.62401367 26.09363525 -1.30173828 26.54005371 -2 27 C-3.28008262 30.08777172 -3.28008262 30.08777172 -4 33 C-4.66 33 -5.32 33 -6 33 C-6 31.68 -6 30.36 -6 29 C-5.34 29 -4.68 29 -4 29 C-4 27.68 -4 26.36 -4 25 C-3.34 25 -2.68 25 -2 25 C-1.34 16.75 -0.68 8.5 0 0 Z " fill="#D1E54F" transform="translate(22,19)"></path><path d="M0 0 C1.32 0.33 2.64 0.66 4 1 C3.01 1 2.02 1 1 1 C1.03552979 1.60996826 1.07105957 2.21993652 1.10766602 2.84838867 C1.26584611 5.62776346 1.41426189 8.40757796 1.5625 11.1875 C1.61857422 12.14720703 1.67464844 13.10691406 1.73242188 14.09570312 C1.78076172 15.02705078 1.82910156 15.95839844 1.87890625 16.91796875 C1.9260376 17.77156982 1.97316895 18.6251709 2.02172852 19.50463867 C1.99889546 22.12684794 1.53853443 24.43985781 1 27 C1.08197771 29.10762055 1.22990919 31.21352626 1.4375 33.3125 C1.59025391 34.91544922 1.59025391 34.91544922 1.74609375 36.55078125 C1.82988281 37.35902344 1.91367188 38.16726562 2 39 C3.485 38.505 3.485 38.505 5 38 C3.375 43.75 3.375 43.75 0 46 C0 40.06 0 34.12 0 28 C-1.32 28.33 -2.64 28.66 -4 29 C-2.125 24.125 -2.125 24.125 -1 23 C-0.84259395 21.29436222 -0.74906608 19.58272756 -0.68359375 17.87109375 C-0.64169922 16.83662109 -0.59980469 15.80214844 -0.55664062 14.73632812 C-0.51732422 13.64771484 -0.47800781 12.55910156 -0.4375 11.4375 C-0.39431641 10.34501953 -0.35113281 9.25253906 -0.30664062 8.12695312 C-0.20017932 5.41810436 -0.09816484 2.70916008 0 0 Z " fill="#ADC12A" transform="translate(70,15)"></path><path d="M0 0 C0.99 0 1.98 0 3 0 C1.88460561 3.24361817 0.41454425 6.05856967 -1.3828125 8.9609375 C-2.04990234 10.03988281 -2.04990234 10.03988281 -2.73046875 11.140625 C-3.65885477 12.62812305 -4.596365 14.10996582 -5.54296875 15.5859375 C-8.46304064 20.35340181 -9.57607167 23.40176506 -9 29 C-9.66 29 -10.32 29 -11 29 C-11.33 28.34 -11.66 27.68 -12 27 C-12.680625 27.99 -12.680625 27.99 -13.375 29 C-13.91125 29.66 -14.4475 30.32 -15 31 C-15.66 31 -16.32 31 -17 31 C-17 30.34 -17 29.68 -17 29 C-16.34 29 -15.68 29 -15 29 C-14.83371094 28.14921875 -14.83371094 28.14921875 -14.6640625 27.28125 C-13.91009202 24.69113966 -12.80164483 22.78873501 -11.375 20.5 C-8.94482975 16.53994048 -6.54227003 12.56803665 -4.1875 8.5625 C-3.60355469 7.57378906 -3.01960938 6.58507812 -2.41796875 5.56640625 C-0.89965154 3.00228585 -0.89965154 3.00228585 0 0 Z " fill="#75840D" transform="translate(60,65)"></path><path d="M0 0 C1 2 1 2 0.47875977 3.81689453 C0.19830811 4.53989746 -0.08214355 5.26290039 -0.37109375 6.0078125 C-2.11463701 10.95792908 -2.67217891 15.66524066 -3.0625 20.875 C-3.19143638 22.53968358 -3.32784144 24.20381001 -3.47265625 25.8671875 C-3.52687744 26.59019043 -3.58109863 27.31319336 -3.63696289 28.05810547 C-4 30 -4 30 -6 33 C-6.14693721 29.35460079 -6.23461003 25.7099762 -6.3125 22.0625 C-6.35439453 21.04091797 -6.39628906 20.01933594 -6.43945312 18.96679688 C-6.55523539 11.71882727 -5.24901033 6.91170476 -1 1 C-0.67 0.67 -0.34 0.34 0 0 Z " fill="#F6FCA8" transform="translate(7,45)"></path><path d="M0 0 C2.475 0.99 2.475 0.99 5 2 C4.67 2.66 4.34 3.32 4 4 C3.01 4.33 2.02 4.66 1 5 C-0.17292694 6.57049506 -0.17292694 6.57049506 -1.12109375 8.52734375 C-1.49943359 9.23697266 -1.87777344 9.94660156 -2.26757812 10.67773438 C-3.04510587 12.1795701 -3.82115758 13.68217096 -4.59570312 15.18554688 C-4.97533203 15.89646484 -5.35496094 16.60738281 -5.74609375 17.33984375 C-6.08310303 17.99331787 -6.4201123 18.64679199 -6.76733398 19.32006836 C-8.25807936 21.35172194 -9.69782748 22.04496875 -12 23 C-10.46688715 17.48431813 -7.81247556 12.97965148 -4.875 8.125 C-4.40707031 7.34125 -3.93914062 6.5575 -3.45703125 5.75 C-2.30981892 3.83017528 -1.1573993 1.91369439 0 0 Z " fill="#8A9C14" transform="translate(68,62)"></path><path d="M0 0 C1.77503906 0.71349609 1.77503906 0.71349609 3.5859375 1.44140625 C4.77445313 1.91449219 5.96296875 2.38757813 7.1875 2.875 C8.10273437 3.24753906 9.01796875 3.62007813 9.9609375 4.00390625 C9.9609375 4.66390625 9.9609375 5.32390625 9.9609375 6.00390625 C10.65960938 6.101875 11.35828125 6.19984375 12.078125 6.30078125 C12.98820312 6.4503125 13.89828125 6.59984375 14.8359375 6.75390625 C16.19332031 6.96273437 16.19332031 6.96273437 17.578125 7.17578125 C19.9609375 8.00390625 19.9609375 8.00390625 21.28125 10.08203125 C21.50554687 10.71625 21.72984375 11.35046875 21.9609375 12.00390625 C16.33099653 11.03685001 11.43086571 8.81710404 6.2109375 6.56640625 C4.75494141 5.95442383 4.75494141 5.95442383 3.26953125 5.33007812 C2.34785156 4.93498047 1.42617187 4.53988281 0.4765625 4.1328125 C-0.36616211 3.7726001 -1.20888672 3.4123877 -2.07714844 3.04125977 C-4.0390625 2.00390625 -4.0390625 2.00390625 -5.0390625 0.00390625 C-3.0390625 -0.99609375 -3.0390625 -0.99609375 0 0 Z " fill="#8B9F0A" transform="translate(85.0390625,67.99609375)"></path><path d="M0 0 C1.32218819 2.64437637 0.75233284 3.59524016 -0.125 6.375 C-1.61842421 10.66433255 -3.37057666 12.25580187 -7 15 C-8.5497815 17.57463701 -9.80336235 20.24572787 -11 23 C-12 20 -12 20 -11.22729492 18.03881836 C-10.61011597 16.95032593 -10.61011597 16.95032593 -9.98046875 15.83984375 C-9.53509766 15.04642578 -9.08972656 14.25300781 -8.63085938 13.43554688 C-7.91639648 12.19901367 -7.91639648 12.19901367 -7.1875 10.9375 C-6.72279297 10.10927734 -6.25808594 9.28105469 -5.77929688 8.42773438 C-2.30944549 2.30944549 -2.30944549 2.30944549 0 0 Z " fill="#F3FB9B" transform="translate(21,21)"></path><path d="M0 0 C0.33 0 0.66 0 1 0 C1.24915939 1.76813112 1.47366632 3.53974982 1.6875 5.3125 C1.81511719 6.29863281 1.94273438 7.28476563 2.07421875 8.30078125 C2 11 2 11 0.64453125 12.66796875 C0.10183594 13.10753906 -0.44085938 13.54710938 -1 14 C-1.66 14.99 -2.32 15.98 -3 17 C-4.76034894 6.24656407 -4.76034894 6.24656407 -2.125 2.3125 C-1.42375 1.549375 -0.7225 0.78625 0 0 Z " fill="#9AAE18" transform="translate(116,76)"></path><path d="M0 0 C0.66 0 1.32 0 2 0 C2.05380578 2.79192205 2.09357669 5.5828141 2.125 8.375 C2.14175781 9.1690625 2.15851563 9.963125 2.17578125 10.78125 C2.19335473 12.85492015 2.10335168 14.92883241 2 17 C1.34 17.66 0.68 18.32 0 19 C-1.18403115 15.26936216 -1.13306789 11.70525834 -1.125 7.8125 C-1.12757812 6.56082031 -1.13015625 5.30914062 -1.1328125 4.01953125 C-1 1 -1 1 0 0 Z " fill="#485200" transform="translate(67,45)"></path><path d="M0 0 C0.33 0 0.66 0 1 0 C2.06137367 24.89166179 2.06137367 24.89166179 -4 32 C-4.99 32.495 -4.99 32.495 -6 33 C-5.01 29.7 -4.02 26.4 -3 23 C-2.34 23 -1.68 23 -1 23 C-0.67 15.41 -0.34 7.82 0 0 Z " fill="#D5E566" transform="translate(135,21)"></path><path d="M0 0 C0.33 0.66 0.66 1.32 1 2 C-1.24728858 8.60141019 -5.17929515 14.21137046 -9 20 C-10 17 -10 17 -9.109375 15.203125 C-8.66078125 14.55859375 -8.2121875 13.9140625 -7.75 13.25 C-5.98371372 10.5981242 -4.50585724 8.08056871 -3.3125 5.125 C-2 2 -2 2 0 0 Z " fill="#B8CB36" transform="translate(121,63)"></path><path d="M0 0 C1 3 1 3 0.14453125 5.05078125 C-0.29503906 5.79714844 -0.73460937 6.54351562 -1.1875 7.3125 C-1.64898437 8.10140625 -2.11046875 8.8903125 -2.5859375 9.703125 C-4.32192317 12.52290283 -6.11517594 15.27747635 -8 18 C-9 15 -9 15 -8.28735352 13.2824707 C-7.90506592 12.66976318 -7.52277832 12.05705566 -7.12890625 11.42578125 C-6.71962891 10.75869141 -6.31035156 10.09160156 -5.88867188 9.40429688 C-5.45103516 8.71400391 -5.01339844 8.02371094 -4.5625 7.3125 C-4.12873047 6.61060547 -3.69496094 5.90871094 -3.24804688 5.18554688 C-2.17449413 3.45134628 -1.08841346 1.72491256 0 0 Z " fill="#E7F872" transform="translate(36,95)"></path><path d="M0 0 C1 2 1 2 0.07421875 4.78515625 C-0.38339844 5.86667969 -0.84101563 6.94820313 -1.3125 8.0625 C-1.76238281 9.14660156 -2.21226562 10.23070313 -2.67578125 11.34765625 C-4 14 -4 14 -6 15 C-4.99667352 9.05925113 -3.69087294 4.79813482 0 0 Z " fill="#CBDC4F" transform="translate(151,112)"></path><path d="M0 0 C0.33 0 0.66 0 1 0 C1.61046468 8.13952903 1.2922002 13.5737569 -4 20 C-5 17 -5 17 -4.2578125 15.01953125 C-3.88398438 14.29121094 -3.51015625 13.56289062 -3.125 12.8125 C-1.04907414 8.44589733 -0.34943474 4.80472774 0 0 Z " fill="#C4D843" transform="translate(157,92)"></path><path d="M0 0 C0.66 0.33 1.32 0.66 2 1 C-1.85421412 10.59453303 -1.85421412 10.59453303 -6 14 C-5.67 11.69 -5.34 9.38 -5 7 C-4.34 7 -3.68 7 -3 7 C-2.690625 6.030625 -2.38125 5.06125 -2.0625 4.0625 C-1 1 -1 1 0 0 Z " fill="#D5E654" transform="translate(13,54)"></path><path d="M0 0 C2 2 2 2 2.16699219 4.12304688 C2.12735352 4.97962891 2.08771484 5.83621094 2.046875 6.71875 C2.00433594 7.65074219 1.96179688 8.58273438 1.91796875 9.54296875 C1.83482422 11.00669922 1.83482422 11.00669922 1.75 12.5 C1.71003906 13.47582031 1.67007813 14.45164062 1.62890625 15.45703125 C1.25599034 22.74400966 1.25599034 22.74400966 -1 25 C-1.5625 23.0625 -1.5625 23.0625 -2 21 C-1.67 20.67 -1.34 20.34 -1 20 C-0.84344973 18.51361008 -0.74933057 17.02050873 -0.68359375 15.52734375 C-0.64169922 14.62822266 -0.59980469 13.72910156 -0.55664062 12.80273438 C-0.51732422 11.85720703 -0.47800781 10.91167969 -0.4375 9.9375 C-0.37272461 8.5134082 -0.37272461 8.5134082 -0.30664062 7.06054688 C-0.20020724 4.70718647 -0.09818992 2.35371646 0 0 Z " fill="#B2C631" transform="translate(134,19)"></path><path d="M0 0 C0.33 0 0.66 0 1 0 C1.4390692 8.63502756 1.4390692 8.63502756 -2 13 C-2.99 13.495 -2.99 13.495 -4 14 C-3.855625 13.484375 -3.71125 12.96875 -3.5625 12.4375 C-2.91630644 9.83092704 -2.91630644 9.83092704 -2.5625 6.4375 C-2 3 -2 3 0 0 Z " fill="#BACE37" transform="translate(47,93)"></path><path d="M0 0 C0.33 0 0.66 0 1 0 C1 5.61 1 11.22 1 17 C0.67 17 0.34 17 0 17 C-0.33 13.37 -0.66 9.74 -1 6 C-1.99 6.66 -2.98 7.32 -4 8 C-2.87548273 5.0280615 -1.77706209 2.66559313 0 0 Z " fill="#D6E958" transform="translate(91,2)"></path><path d="M0 0 C-1.19899698 3.0831351 -2.47700477 6.06279492 -4 9 C-4.66 9 -5.32 9 -6 9 C-5.6875 5.625 -5.6875 5.625 -5 2 C-2 0 -2 0 0 0 Z " fill="#4B5600" transform="translate(56,83)"></path><path d="M0 0 C0.33 0 0.66 0 1 0 C1.36923077 6.52307692 1.36923077 6.52307692 -0.5 8.9375 C-0.995 9.288125 -1.49 9.63875 -2 10 C-3.34920635 4.6031746 -3.34920635 4.6031746 -1.625 1.625 C-1.08875 1.08875 -0.5525 0.5525 0 0 Z " fill="#7B8D06" transform="translate(115,78)"></path><path d="M0 0 C1.4589426 0.47730838 2.91713496 0.95691042 4.375 1.4375 C5.18710938 1.70433594 5.99921875 1.97117188 6.8359375 2.24609375 C9 3 9 3 11 4 C11 4.66 11 5.32 11 6 C9.3501725 5.57781184 7.70516335 5.13675575 6.0625 4.6875 C5.14597656 4.44386719 4.22945312 4.20023438 3.28515625 3.94921875 C2.53105469 3.63597656 1.77695313 3.32273438 1 3 C0.67 2.01 0.34 1.02 0 0 Z " fill="#92A618" transform="translate(125,133)"></path><path d="M0 0 C0.99 0.33 1.98 0.66 3 1 C2.40361667 2.27450447 1.79752584 3.54446877 1.1875 4.8125 C0.85105469 5.52019531 0.51460938 6.22789062 0.16796875 6.95703125 C-1.00645471 9.01129035 -2.25628016 10.41616278 -4 12 C-3.67 10.02 -3.34 8.04 -3 6 C-2.01 5.67 -1.02 5.34 0 5 C0 3.35 0 1.7 0 0 Z " fill="#B4C639" transform="translate(77,138)"></path><path d="M0 0 C7.50769231 0.61538462 7.50769231 0.61538462 10 2.5625 C10.33 3.036875 10.66 3.51125 11 4 C10.01 4.495 10.01 4.495 9 5 C6.8359375 4.22265625 6.8359375 4.22265625 4.375 3.0625 C3.55773437 2.68222656 2.74046875 2.30195313 1.8984375 1.91015625 C1.27195312 1.60980469 0.64546875 1.30945313 0 1 C0 0.67 0 0.34 0 0 Z " fill="#7B8C0F" transform="translate(80,139)"></path><path d="M0 0 C0.66 0 1.32 0 2 0 C2 5.61 2 11.22 2 17 C1.67 17 1.34 17 1 17 C0.93941406 16.09636719 0.87882812 15.19273438 0.81640625 14.26171875 C0.73261719 13.08222656 0.64882812 11.90273438 0.5625 10.6875 C0.48128906 9.51574219 0.40007812 8.34398437 0.31640625 7.13671875 C0.1132629 3.97409042 0.1132629 3.97409042 -1 1 C-0.67 0.67 -0.34 0.34 0 0 Z " fill="#697802" transform="translate(67,45)"></path><path d="M0 0 C0.103125 0.639375 0.20625 1.27875 0.3125 1.9375 C0.539375 2.618125 0.76625 3.29875 1 4 C1.99 4.33 2.98 4.66 4 5 C3.01 6.98 2.02 8.96 1 11 C0.34 10.67 -0.32 10.34 -1 10 C-1.02689216 8.52093108 -1.04634621 7.04172517 -1.0625 5.5625 C-1.07410156 4.73878906 -1.08570313 3.91507812 -1.09765625 3.06640625 C-1 1 -1 1 0 0 Z " fill="#9CAF1B" transform="translate(48,91)"></path><path d="M0 0 C2.375 0.25 2.375 0.25 5 1 C6.3125 3.0625 6.3125 3.0625 7 5 C3.62537285 4.45276317 1.91765 3.9451 -1 2 C-0.67 1.34 -0.34 0.68 0 0 Z " fill="#94A812" transform="translate(100,75)"></path><path d="M0 0 C0.75 1.6875 0.75 1.6875 1 4 C-0.8125 6.75 -0.8125 6.75 -3 9 C-3.66 9 -4.32 9 -5 9 C-5 8.34 -5 7.68 -5 7 C-4.34 7 -3.68 7 -3 7 C-2.87625 6.401875 -2.7525 5.80375 -2.625 5.1875 C-2 3 -2 3 0 0 Z " fill="#798A05" transform="translate(48,87)"></path><path d="M0 0 C1 2 1 2 0.25 5.0625 C-0.1625 6.031875 -0.575 7.00125 -1 8 C-1.99 8.33 -2.98 8.66 -4 9 C-2.94124926 5.59687262 -1.99097846 2.98646769 0 0 Z " fill="#829213" transform="translate(60,76)"></path><path d="M0 0 C0.6875 1.6875 0.6875 1.6875 1 4 C-0.3125 6.75 -0.3125 6.75 -2 9 C-2.66 9 -3.32 9 -4 9 C-2.94124926 5.59687262 -1.99097846 2.98646769 0 0 Z " fill="#AABD27" transform="translate(16,52)"></path></svg>