<svg xmlns="http://www.w3.org/2000/svg" width="160" height="160"><path d="M0 0 C0.99 0.99 0.99 0.99 2 2 C4.36630983 2.33845752 6.74432773 2.59715092 9.125 2.8125 C16.22263772 3.61228136 21.55452093 5.07077172 26.36328125 10.5546875 C28.26492142 13.18169556 29 14.72231014 29 18 C29.56847656 18.14695312 30.13695313 18.29390625 30.72265625 18.4453125 C38.06781195 20.57896374 43.05101862 23.55679956 46.875 30.3125 C47.79842141 33.33927019 48.1700622 35.53556269 48.375 38.625 C48.75218741 43.26126187 50.449887 44.957046 54 48 C57.58485708 52.48107136 58.04385811 57.4037057 58 63 C57.3747292 65.34476551 56.7136591 67.68060793 56 70 C56.2963043 72.72599952 56.84908331 75.31413753 57.4375 77.98828125 C58.99038073 87.09527969 55.20911084 94.5604655 50.20703125 101.98046875 C48.8702272 104.21712795 48.05424085 106.41987064 47.1875 108.875 C42.10094841 121.92050879 30.43904518 130.35352955 18.3125 136.5625 C14.13401321 138.37580559 10.94812307 139.12800369 6.4375 139.375 C2.33691069 139.67600595 -1.23151643 140.24821791 -5.125 141.5625 C-11.4191954 143.6167149 -17.19438878 144.07123338 -23.4375 141.6875 C-26 140 -26 140 -27.33984375 138.39453125 C-29.66786739 136.43899139 -31.13602411 136.79562558 -34.125 137 C-39.56973957 137.13701994 -44.1381313 136.56739012 -49 134 C-52.1728006 130.74787939 -53.97104126 128.44793709 -54.0625 123.875 C-54.041875 122.92625 -54.02125 121.9775 -54 121 C-55.175625 121.0825 -56.35125 121.165 -57.5625 121.25 C-63.13501818 121.25988035 -66.62041046 118.98299128 -70.875 115.4375 C-73.432568 112.16949645 -73.10501878 108.76674673 -73.0625 104.8125 C-73.05347656 103.72582031 -73.04445313 102.63914062 -73.03515625 101.51953125 C-73.02355469 100.68808594 -73.01195312 99.85664062 -73 99 C-73.9075 98.5875 -74.815 98.175 -75.75 97.75 C-79.98608341 95.46903201 -82.46334132 93.60997605 -84 89 C-84.52311146 83.99020179 -84.12908509 79.93205368 -82.25 75.25 C-81.36857154 73.06557332 -81.36857154 73.06557332 -81 71 C-82.7110076 68.360962 -82.7110076 68.360962 -85 66 C-86.51187086 59.85172517 -85.99076926 55.5835274 -83 50 C-82.16431601 48.90234611 -81.30968538 47.81888001 -80.4375 46.75 C-78.00131448 43.60025718 -77.54564125 40.99172016 -77.0625 37.0625 C-75.64960628 26.74837587 -68.64389596 21.40596941 -61 15 C-60.11828125 14.22011719 -59.2365625 13.44023437 -58.328125 12.63671875 C-57.41546875 11.84910156 -56.5028125 11.06148437 -55.5625 10.25 C-54.73878906 9.53328125 -53.91507813 8.8165625 -53.06640625 8.078125 C-39.37016746 -1.20391199 -15.37067124 -7.2661355 0 0 Z M26 36 C25.67 37.32 25.34 38.64 25 40 C26.65 39.67 28.3 39.34 30 39 C30 38.34 30 37.68 30 37 C28.68 36.67 27.36 36.34 26 36 Z M-3.328125 40.609375 C-10.41494936 43.37588932 -15.76718506 46.92499908 -21.57299805 51.69702148 C-29.93502039 58.50937835 -39.03470696 63.80864433 -48.9375 68.0625 C-54.87488572 70.66468757 -58.85183842 74.06230918 -63 79 C-60.11412266 80.22094811 -59.07317821 80.02923178 -56.10546875 78.84375 C-52.91299969 76.94834698 -50.17894869 74.85745313 -47.3125 72.5 C-37.32013391 64.55629036 -26.01031528 58.5454445 -14.67944336 52.74072266 C-8.47053168 49.55259617 -3.58685698 46.3699789 1 41 C-0.99821549 39.72625847 -0.99821549 39.72625847 -3.328125 40.609375 Z M15 60 C5.73808079 61.90949009 -0.25496884 66.15899034 -7.51196289 71.93945312 C-19.91298877 81.78001007 -33.96829577 88.77830103 -48 96 C-48 96.66 -48 97.32 -48 98 C-48.66 98 -49.32 98 -50 98 C-50.66 99.32 -51.32 100.64 -52 102 C-43.6443264 101.41363694 -38.74985426 98.4835497 -32.375 93.25 C-23.53718318 86.06261885 -13.78844863 80.68980699 -3.55615234 75.7890625 C2.92372761 72.66322226 8.66412918 68.82769264 14 64 C14 63.34 14 62.68 14 62 C14.66 62 15.32 62 16 62 C15.505 61.01 15.505 61.01 15 60 Z M5 94 C7.8129477 95.26406352 7.8129477 95.26406352 9.90234375 94.3984375 C14.30432242 92.18477452 17.19647164 90.20529254 20 86 C14.22887508 86 9.52756678 90.71529469 5 94 Z M-25.625 112.5 C-26.23601562 112.83386719 -26.84703125 113.16773437 -27.4765625 113.51171875 C-28.98641801 114.33742098 -30.49347848 115.16823037 -32 116 C-27.84189922 117.38603359 -25.93714913 115.9831696 -22.09765625 114.19140625 C-19.69216516 112.82515898 -18.30924732 111.44392832 -17 109 C-20.25914119 109 -22.83330149 110.95502155 -25.625 112.5 Z " fill="#9FB322" transform="translate(92,14)"></path><path d="M0 0 C0.99 0.99 0.99 0.99 2 2 C3.31747324 2.69748583 4.64914193 3.36959957 6 4 C5.34 4.33 4.68 4.66 4 5 C4.05220703 6.39412109 4.05220703 6.39412109 4.10546875 7.81640625 C4.37434095 20.09490334 4.37434095 20.09490334 1 26 C0.34 26 -0.32 26 -1 26 C-1.29390625 27.02673828 -1.29390625 27.02673828 -1.59375 28.07421875 C-3.52451515 32.09128291 -6.33074669 34.72918089 -9.5 37.8125 C-10.09425781 38.40998047 -10.68851562 39.00746094 -11.30078125 39.62304688 C-15.73275893 44 -15.73275893 44 -18 44 C-18.33 44.99 -18.66 45.98 -19 47 C-20.5625 48.6875 -20.5625 48.6875 -22 50 C-20.35 49.34 -18.7 48.68 -17 48 C-26.22150493 58.17545371 -39.06732381 65.38551353 -51.70703125 70.5 C-54.85910254 71.93581895 -56.61528163 73.17571278 -58.9375 75.6875 C-59.81728516 76.62142578 -59.81728516 76.62142578 -60.71484375 77.57421875 C-61.13894531 78.04472656 -61.56304687 78.51523438 -62 79 C-56.14669309 78.6235239 -53.17581159 76.18188007 -48.8125 72.625 C-40.0624871 65.78119575 -30.74615178 60.29567326 -21 55 C-20.35353516 54.64583008 -19.70707031 54.29166016 -19.04101562 53.92675781 C-12.01365974 50.10919421 -12.01365974 50.10919421 -9 49 C-7.515 49.495 -7.515 49.495 -6 50 C-6.49628906 50.4846875 -6.99257812 50.969375 -7.50390625 51.46875 C-11.66275062 55.57235356 -15.61223546 59.7544468 -19.359375 64.23828125 C-21.09592909 66.10300957 -22.94908949 67.49572496 -25 69 C-26.2065625 70.2684375 -26.2065625 70.2684375 -27.4375 71.5625 C-30 74 -30 74 -32.41015625 74.90625 C-35.36604143 76.15458763 -36.83435262 77.59283742 -39 79.9375 C-41.83874265 82.90430623 -44.44937008 84.92879921 -48 87 C-50.27537692 89.57183314 -50.27537692 89.57183314 -52 92 C-51.01 91.67 -50.02 91.34 -49 91 C-48.67 91.66 -48.34 92.32 -48 93 C-48.33 93.66 -48.66 94.32 -49 95 C-48.01 95.495 -48.01 95.495 -47 96 C-47.33 96.66 -47.66 97.32 -48 98 C-48.66 98 -49.32 98 -50 98 C-50.37125 98.928125 -50.37125 98.928125 -50.75 99.875 C-52.20628639 102.35068687 -53.37812506 102.95125002 -56 104 C-56 104.66 -56 105.32 -56 106 C-57.32 106 -58.64 106 -60 106 C-60 105.34 -60 104.68 -60 104 C-62.64 103.34 -65.28 102.68 -68 102 C-70.02350324 105.03525486 -70.32124018 106.19426202 -70.625 109.6875 C-70.69976562 110.49574219 -70.77453125 111.30398437 -70.8515625 112.13671875 C-70.90054688 112.75160156 -70.94953125 113.36648437 -71 114 C-73.35119399 110.47320901 -73.21443452 108.97120515 -73.125 104.8125 C-73.10695313 103.72582031 -73.08890625 102.63914062 -73.0703125 101.51953125 C-73.04710937 100.68808594 -73.02390625 99.85664062 -73 99 C-73.9075 98.5875 -74.815 98.175 -75.75 97.75 C-79.98608341 95.46903201 -82.46334132 93.60997605 -84 89 C-84.52311146 83.99020179 -84.12908509 79.93205368 -82.25 75.25 C-81.36857154 73.06557332 -81.36857154 73.06557332 -81 71 C-82.7110076 68.360962 -82.7110076 68.360962 -85 66 C-86.51187086 59.85172517 -85.99076926 55.5835274 -83 50 C-82.16431601 48.90234611 -81.30968538 47.81888001 -80.4375 46.75 C-78.00131448 43.60025718 -77.54564125 40.99172016 -77.0625 37.0625 C-75.64960628 26.74837587 -68.64389596 21.40596941 -61 15 C-60.11828125 14.22011719 -59.2365625 13.44023437 -58.328125 12.63671875 C-57.41546875 11.84910156 -56.5028125 11.06148437 -55.5625 10.25 C-54.73878906 9.53328125 -53.91507813 8.8165625 -53.06640625 8.078125 C-39.37016746 -1.20391199 -15.37067124 -7.2661355 0 0 Z " fill="#B8CD38" transform="translate(92,14)"></path><path d="M0 0 C0.99 0.33 1.98 0.66 3 1 C5.7209317 8.21046901 5.35119401 15.87418016 3.39453125 23.296875 C3.26433594 23.85890625 3.13414062 24.4209375 3 25 C3.33 25.33 3.66 25.66 4 26 C5.06582045 39.58921077 1.30051415 49.19482613 -5 61 C-5.38671875 61.7528125 -5.7734375 62.505625 -6.171875 63.28125 C-8.61814784 67.87271595 -8.61814784 67.87271595 -12 69 C-15.02686776 71.63880779 -16.91937254 73.84162463 -18.75 77.4375 C-22.11008157 83.65636066 -29.27060991 87.25037876 -35.77734375 89.48828125 C-39.47184838 90.3388614 -43.20807797 90.46062144 -46.984375 90.68359375 C-49.91233955 90.99080247 -52.3443075 91.62248603 -55.125 92.5625 C-61.4191954 94.6167149 -67.19438878 95.07123338 -73.4375 92.6875 C-76 91 -76 91 -77.33984375 89.39453125 C-79.66786739 87.43899139 -81.13602411 87.79562558 -84.125 88 C-90.94565973 88.17164574 -96.46381186 87.29464641 -101.625 82.625 C-103 80 -103 80 -102.8125 77.375 C-102.4103125 76.199375 -102.4103125 76.199375 -102 75 C-101.67 74.01 -101.34 73.02 -101 72 C-96.60883113 69.91997264 -91.79521158 68.80038717 -86.9375 68.9375 C-64.61828689 69.29177322 -44.23602929 51.15355489 -28.1796875 37.75 C-26 36 -26 36 -24 35 C-23.67 34.01 -23.34 33.02 -23 32 C-21.33333333 30.33333333 -19.66666667 28.66666667 -18 27 C-16.39797208 24.88752201 -14.85317554 22.74556191 -13.33203125 20.57421875 C-12.89246094 20.05472656 -12.45289063 19.53523438 -12 19 C-11.34 19 -10.68 19 -10 19 C-9.731875 18.2575 -9.46375 17.515 -9.1875 16.75 C-8 14 -8 14 -6.375 12 C-4.74882834 10.06877237 -4.74882834 10.06877237 -5.125 7.5625 C-5 5 -5 5 -2.5 2.1875 C-1.2625 1.1046875 -1.2625 1.1046875 0 0 Z " fill="#95AA19" transform="translate(142,63)"></path><path d="M0 0 C0.21755666 5.4389165 0.10428384 9.87080814 -2 15 C-2.99 15 -3.98 15 -5 15 C-5.24105469 15.70898438 -5.48210937 16.41796875 -5.73046875 17.1484375 C-7.19456393 20.43702052 -9.03222392 22.84267995 -11.3125 25.625 C-12.07175781 26.56601562 -12.83101563 27.50703125 -13.61328125 28.4765625 C-17.39706414 32.47709236 -22.07489183 34.79554369 -27.125 36.875 C-29.14887743 37.85651743 -29.14887743 37.85651743 -29.9375 39.9375 C-31.3937211 42.76428213 -33.24355036 43.44537791 -36 45 C-37.34578125 45.77730469 -37.34578125 45.77730469 -38.71875 46.5703125 C-39.6365625 47.08335938 -40.554375 47.59640625 -41.5 48.125 C-42.4178125 48.64320312 -43.335625 49.16140625 -44.28125 49.6953125 C-47 51 -47 51 -49.60546875 51.51953125 C-52.26828314 52.05383169 -53.67117589 52.92501686 -55.8125 54.5625 C-56.41707031 55.01753906 -57.02164063 55.47257812 -57.64453125 55.94140625 C-58.09183594 56.29074219 -58.53914063 56.64007813 -59 57 C-59 56.01 -59 55.02 -59 54 C-56.5 51.8125 -56.5 51.8125 -54 50 C-57.96 50 -61.92 50 -66 50 C-66.66 52.31 -67.32 54.62 -68 57 C-68.33 57 -68.66 57 -69 57 C-69 54.36 -69 51.72 -69 49 C-70.32 48.34 -71.64 47.68 -73 47 C-76.9190012 50.00456759 -77.81395773 52.88489083 -78.6953125 57.5390625 C-79.17226467 61.39136852 -79.12311552 65.12186109 -79 69 C-79.66 69 -80.32 69 -81 69 C-83.15126967 65.07709649 -83.32204244 61.83778973 -82.75 57.51171875 C-81.83635255 54.45195152 -80.37857103 52.30945255 -78.5625 49.6875 C-75.7633101 45.64170731 -74.5159971 42.69895427 -73.9375 37.8125 C-72.67759189 27.64136683 -65.50165399 22.28676349 -58 16 C-57.11828125 15.22011719 -56.2365625 14.44023437 -55.328125 13.63671875 C-54.41546875 12.84910156 -53.5028125 12.06148437 -52.5625 11.25 C-51.73878906 10.53328125 -50.91507813 9.8165625 -50.06640625 9.078125 C-43.01287311 4.29789617 -34.78000874 2.17181229 -26.5625 0.25 C-25.64597656 0.034646 -24.72945312 -0.18070801 -23.78515625 -0.40258789 C-15.40454791 -2.28271904 -8.05690593 -3.53198869 0 0 Z " fill="#BED33B" transform="translate(89,13)"></path><path d="M0 0 C5.73104986 1.57357999 10.25390897 3.36729631 14.02294922 8.19384766 C15.87308148 11.61395721 15.63956963 15.07489974 15.5 18.875 C15.50386719 20.02162109 15.50386719 20.02162109 15.5078125 21.19140625 C15.36294686 29.72399224 12.57621488 35.95523776 7.25 42.5 C6.58738159 43.3362793 6.58738159 43.3362793 5.91137695 44.18945312 C-9.64764998 63.68836798 -28.61825672 77.26511934 -50.6875 88.5625 C-51.35918213 88.90966064 -52.03086426 89.25682129 -52.72290039 89.61450195 C-56.14812961 91.31815915 -58.09286147 92 -62 92 C-62.33 91.01 -62.66 90.02 -63 89 C-63.99 89 -64.98 89 -66 89 C-62.36191359 84.40723843 -58.93594314 81.22347307 -54 78 C-52.17970276 76.17573697 -50.42950968 74.31090753 -48.7109375 72.390625 C-47 71 -47 71 -43 71 C-42.79375 70.4225 -42.5875 69.845 -42.375 69.25 C-41 67 -41 67 -38.3984375 65.359375 C-34.04831178 62.55343277 -30.73937119 58.78415108 -27.25 55 C-26.24259766 53.93265625 -26.24259766 53.93265625 -25.21484375 52.84375 C-22.25315017 49.66245188 -19.88431828 46.93111195 -18 43 C-16.6949419 41.31110128 -15.36639342 39.6396721 -14 38 C-15.96080624 38.78552177 -17.91857816 39.57862123 -19.875 40.375 C-20.96554688 40.81585938 -22.05609375 41.25671875 -23.1796875 41.7109375 C-26.06329362 42.83051338 -26.06329362 42.83051338 -28 45 C-29.52056618 45.59834554 -31.06612088 46.13506656 -32.625 46.625 C-33.44226563 46.88539062 -34.25953125 47.14578125 -35.1015625 47.4140625 C-35.72804688 47.60742188 -36.35453125 47.80078125 -37 48 C-33.29269795 43.45855499 -29.4806843 39.56543573 -25.02734375 35.76171875 C-22.9993454 33.99943116 -21.04854597 32.1880573 -19.125 30.3125 C-18.57070312 29.77238281 -18.01640625 29.23226562 -17.4453125 28.67578125 C-15.90380763 27.02750989 -15.90380763 27.02750989 -14.9296875 24.85546875 C-14 23 -14 23 -12 22 C-9.53135358 16.29392455 -9.95914276 11.13982096 -10.22265625 5.046875 C-10.14917969 4.04140625 -10.07570312 3.0359375 -10 2 C-6.17279985 -0.55146677 -4.5688164 -0.43512537 0 0 Z " fill="#95A918" transform="translate(105,17)"></path><path d="M0 0 C0.66 0 1.32 0 2 0 C2.58316844 13.78005415 -0.5611123 22.93555779 -7 35 C-7.38671875 35.7528125 -7.7734375 36.505625 -8.171875 37.28125 C-10.61814784 41.87271595 -10.61814784 41.87271595 -14 43 C-17.02686776 45.63880779 -18.91937254 47.84162463 -20.75 51.4375 C-24.11008157 57.65636066 -31.27060991 61.25037876 -37.77734375 63.48828125 C-41.47184838 64.3388614 -45.20807797 64.46062144 -48.984375 64.68359375 C-51.91233955 64.99080247 -54.3443075 65.62248603 -57.125 66.5625 C-63.04070174 68.52165809 -69.04210573 68.98596476 -75 67 C-75.33 64.36 -75.66 61.72 -76 59 C-74.68 58.34 -73.36 57.68 -72 57 C-72 56.01 -72 55.02 -72 54 C-66.74285714 50 -66.74285714 50 -64 50 C-64 49.34 -64 48.68 -64 48 C-60.92884715 45.04696841 -58.1666604 44.47348414 -54 44 C-54.66 45.32 -55.32 46.64 -56 48 C-55.30132812 47.566875 -54.60265625 47.13375 -53.8828125 46.6875 C-52.97273438 46.130625 -52.06265625 45.57375 -51.125 45 C-50.22007813 44.443125 -49.31515625 43.88625 -48.3828125 43.3125 C-46 42 -46 42 -44 42 C-44 41.34 -44 40.68 -44 40 C-43.401875 39.731875 -42.80375 39.46375 -42.1875 39.1875 C-40.00687862 38.13847056 -40.00687862 38.13847056 -38.62109375 36.6171875 C-36.2267586 34.22862183 -33.481785 32.37425184 -30.7421875 30.40234375 C-28.87638366 29.09971059 -28.87638366 29.09971059 -28 27 C-27.01 26.67 -26.02 26.34 -25 26 C-24.34 25.01 -23.68 24.02 -23 23 C-22.34 23 -21.68 23 -21 23 C-21 22.34 -21 21.68 -21 21 C-20.34 21 -19.68 21 -19 21 C-19 20.34 -19 19.68 -19 19 C-17.25 17.2734375 -17.25 17.2734375 -15 15.375 C-14.2575 14.74335937 -13.515 14.11171875 -12.75 13.4609375 C-12.1725 12.97882813 -11.595 12.49671875 -11 12 C-11 16.17377856 -13.24450838 18.13219214 -16 21 C-20.52631579 25 -20.52631579 25 -23 25 C-23.2371875 25.58265625 -23.474375 26.1653125 -23.71875 26.765625 C-25.2726806 29.47552837 -27.01929431 30.86530802 -29.5 32.75 C-30.2940625 33.36359375 -31.088125 33.9771875 -31.90625 34.609375 C-34 36 -34 36 -36 36 C-35.67 36.66 -35.34 37.32 -35 38 C-30.83167429 35.3566715 -27.16746614 32.49472144 -23.515625 29.171875 C-22 28 -22 28 -20 28 C-19.505 26.515 -19.505 26.515 -19 25 C-17.328125 23.7109375 -17.328125 23.7109375 -15.25 22.375 C-10.5885855 19.05499974 -8.36860512 15.12438608 -6 10 C-6.66 10 -7.32 10 -8 10 C-7.34 8.68 -6.68 7.36 -6 6 C-5.01 6 -4.02 6 -3 6 C-1.25 4.75 -1.25 4.75 0 3 C0 2.01 0 1.02 0 0 Z " fill="#8BA00F" transform="translate(144,89)"></path><path d="M0 0 C-0.49628906 0.4846875 -0.99257812 0.969375 -1.50390625 1.46875 C-5.66275062 5.57235356 -9.61223546 9.7544468 -13.359375 14.23828125 C-15.09592909 16.10300957 -16.94908949 17.49572496 -19 19 C-19.804375 19.845625 -20.60875 20.69125 -21.4375 21.5625 C-24 24 -24 24 -26.41015625 24.90625 C-29.36604143 26.15458763 -30.83435262 27.59283742 -33 29.9375 C-35.83874265 32.90430623 -38.44937008 34.92879921 -42 37 C-44.27537692 39.57183314 -44.27537692 39.57183314 -46 42 C-45.01 41.67 -44.02 41.34 -43 41 C-42.67 41.66 -42.34 42.32 -42 43 C-42.495 43.99 -42.495 43.99 -43 45 C-42.01 45.495 -42.01 45.495 -41 46 C-41.495 46.99 -41.495 46.99 -42 48 C-42.66 48 -43.32 48 -44 48 C-44.2475 48.61875 -44.495 49.2375 -44.75 49.875 C-46.20628639 52.35068687 -47.37812506 52.95125002 -50 54 C-50 54.66 -50 55.32 -50 56 C-51.32 56 -52.64 56 -54 56 C-54 55.34 -54 54.68 -54 54 C-56.64 53.34 -59.28 52.68 -62 52 C-64.02350324 55.03525486 -64.32124018 56.19426202 -64.625 59.6875 C-64.69976562 60.49574219 -64.77453125 61.30398437 -64.8515625 62.13671875 C-64.90054688 62.75160156 -64.94953125 63.36648437 -65 64 C-67.35119399 60.47320901 -67.21443452 58.97120515 -67.125 54.8125 C-67.10695313 53.72582031 -67.08890625 52.63914063 -67.0703125 51.51953125 C-67.04710937 50.68808594 -67.02390625 49.85664062 -67 49 C-68.36125 48.38125 -68.36125 48.38125 -69.75 47.75 C-73.98608341 45.46903201 -76.46334132 43.60997605 -78 39 C-78.84519089 32.09991699 -77.21394258 27.0691862 -74 21 C-73.01 21.33 -72.02 21.66 -71 22 C-71 23.32 -71 24.64 -71 26 C-70.62875 25.505 -70.2575 25.01 -69.875 24.5 C-67.25305607 22.40244486 -65.26157528 22.78256165 -62 23 C-62.99 23.33 -63.98 23.66 -65 24 C-65 25.98 -65 27.96 -65 30 C-54.19566568 30.58932733 -48.09404451 27.33714082 -39.86132812 20.54492188 C-32.19899165 14.34207806 -23.64127078 9.68982186 -15 5 C-14.02595215 4.46656982 -14.02595215 4.46656982 -13.03222656 3.92236328 C-3.60211118 -1.20070373 -3.60211118 -1.20070373 0 0 Z " fill="#CDE14B" transform="translate(86,64)"></path><path d="M0 0 C2.60290947 2.60290947 2.40661676 4.19523291 2.8125 7.8125 C3.6182361 13.17128454 4.68588296 15.52766189 9 19 C12.58485708 23.48107136 13.04385811 28.4037057 13 34 C12.3747292 36.34476551 11.7136591 38.68060793 11 41 C11.2963043 43.72599952 11.84908331 46.31413753 12.4375 48.98828125 C13.99038073 58.09527969 10.20911084 65.5604655 5.20703125 72.98046875 C3.8702272 75.21712795 3.05424085 77.41987064 2.1875 79.875 C-0.82713398 87.81598708 -6.30796014 93.90241138 -13 99 C-13.99 98.505 -13.99 98.505 -15 98 C-12.3483509 93.11538324 -9.42038781 88.80679594 -4 87 C-2.9655567 85.27933501 -2.9655567 85.27933501 -2.1875 83.125 C-0.64968528 79.39030711 1.11629219 75.9417421 3.125 72.4375 C7.88246584 63.77339974 8.43177154 55.80941763 9 46 C8.34 45.67 7.68 45.34 7 45 C7.15597656 44.40574219 7.31195313 43.81148437 7.47265625 43.19921875 C9.24407231 35.65603647 9.4747323 28.42419689 7 21 C3.83884224 22.36983503 3.0072908 22.9890638 1 26 C0.896875 26.9075 0.79375 27.815 0.6875 28.75 C-0.69524378 35.28660697 -5.40542252 39.40542252 -10 44 C-11.59938025 46.11403231 -13.14701256 48.25470659 -14.66796875 50.42578125 C-15.10753906 50.94527344 -15.54710937 51.46476562 -16 52 C-16.66 52 -17.32 52 -18 52 C-18.09925781 52.60714844 -18.19851562 53.21429688 -18.30078125 53.83984375 C-19.14958297 56.46211945 -19.93324816 57.02922423 -22.1875 58.5625 C-25.47602985 60.88141004 -28.6334922 63.30330639 -31.7565918 65.84130859 C-37.41249922 70.41133882 -43.20496107 74.58630449 -49.375 78.4375 C-50.01630859 78.83807617 -50.65761719 79.23865234 -51.31835938 79.65136719 C-54.58706967 81.65003679 -57.90773541 83.54587653 -61.2890625 85.34765625 C-61.9279541 85.68933838 -62.5668457 86.03102051 -63.22509766 86.38305664 C-65 87 -65 87 -68 86 C-58.16650161 75.14924315 -44.73692343 68.59288841 -31.6875 62.4375 C-29.29026381 61.15525739 -27.75264416 60.04475152 -26 58 C-27.32 57.67 -28.64 57.34 -30 57 C-28.94085598 55.91338539 -27.87749011 54.83088548 -26.8125 53.75 C-26.22082031 53.14671875 -25.62914062 52.5434375 -25.01953125 51.921875 C-23 50 -23 50 -20.515625 48.08984375 C-17.04414129 45.20592483 -14.63573003 41.75683883 -11.96484375 38.14453125 C-9.91691531 35.9093171 -8.95716202 35.33589145 -6 35 C-5.896875 34.13375 -5.79375 33.2675 -5.6875 32.375 C-4.95944066 28.80089052 -3.65144431 26.23683085 -2 23 C-0.1652795 17.67339211 0.25696844 13.11025003 0.125 7.5625 C0.11597656 6.83095703 0.10695313 6.09941406 0.09765625 5.34570312 C0.07436153 3.56365702 0.0385019 1.78178241 0 0 Z " fill="#ACC02E" transform="translate(137,43)"></path><path d="M0 0 C-0.99 0.33 -1.98 0.66 -3 1 C-2.34 1.66 -1.68 2.32 -1 3 C-1.556875 3.495 -2.11375 3.99 -2.6875 4.5 C-5.24354868 7.26329587 -6.98734162 10.13714397 -8.8515625 13.390625 C-9.42003906 14.18726563 -9.42003906 14.18726563 -10 15 C-10.66 15 -11.32 15 -12 15 C-12.495 12.525 -12.495 12.525 -13 10 C-14.32 10.33 -15.64 10.66 -17 11 C-16.01 11.33 -15.02 11.66 -14 12 C-14.33 13.65 -14.66 15.3 -15 17 C-14.01 16.67 -13.02 16.34 -12 16 C-13.56775485 19.84812555 -15.87055159 22.29729456 -19 25 C-22 26.1875 -22 26.1875 -25 27 C-26.67163195 27.65411685 -28.34015202 28.31653318 -30 29 C-34.875 24.375 -34.875 24.375 -36 21 C-45.60766082 29.01712732 -45.60766082 29.01712732 -49.875 40.5 C-50.7343672 44.64678774 -52.35285918 46.69107398 -55 50 C-57.09874884 55.92313562 -57.19740795 61.78164962 -57 68 C-57.66 68 -58.32 68 -59 68 C-61.15126967 64.07709649 -61.32204244 60.83778973 -60.75 56.51171875 C-59.83635255 53.45195152 -58.37857103 51.30945255 -56.5625 48.6875 C-53.7633101 44.64170731 -52.5159971 41.69895427 -51.9375 36.8125 C-50.67759189 26.64136683 -43.50165399 21.28676349 -36 15 C-35.11828125 14.22011719 -34.2365625 13.44023437 -33.328125 12.63671875 C-27.52904386 7.63214449 -22.32991273 4.23035571 -15 2 C-14.03320312 1.69191406 -13.06640625 1.38382813 -12.0703125 1.06640625 C-3.96001937 -1.35377406 -3.96001937 -1.35377406 0 0 Z " fill="#C8DD46" transform="translate(67,14)"></path><path d="M0 0 C0.21755666 5.4389165 0.10428384 9.87080814 -2 15 C-2.99 15 -3.98 15 -5 15 C-5.24105469 15.70898438 -5.48210937 16.41796875 -5.73046875 17.1484375 C-7.19456393 20.43702052 -9.03222392 22.84267995 -11.3125 25.625 C-12.07175781 26.56601562 -12.83101562 27.50703125 -13.61328125 28.4765625 C-17.39706414 32.47709236 -22.07489183 34.79554369 -27.125 36.875 C-29.14887743 37.85651743 -29.14887743 37.85651743 -29.9375 39.9375 C-31.3937211 42.76428213 -33.24355036 43.44537791 -36 45 C-36.8971875 45.51820312 -37.794375 46.03640625 -38.71875 46.5703125 C-39.6365625 47.08335938 -40.554375 47.59640625 -41.5 48.125 C-42.87671875 48.90230469 -42.87671875 48.90230469 -44.28125 49.6953125 C-47 51 -47 51 -49.60546875 51.51953125 C-52.26828314 52.05383169 -53.67117589 52.92501686 -55.8125 54.5625 C-56.71935547 55.24505859 -56.71935547 55.24505859 -57.64453125 55.94140625 C-58.09183594 56.29074219 -58.53914063 56.64007813 -59 57 C-59 54 -59 54 -57.77734375 52.67578125 C-52.6244443 48.8576031 -47.19349849 45.90752144 -41.51171875 42.97314453 C-37.23421289 40.73883487 -33.4231314 38.28208802 -29.65234375 35.25390625 C-27.2813388 33.45463299 -24.70518701 32.21733415 -22 31 C-22.33 30.34 -22.66 29.68 -23 29 C-21.16316881 25.58874208 -19.20910155 22.32759243 -17.125 19.0625 C-15.77996823 15.40102463 -16.01276004 13.43149353 -17.1171875 9.76171875 C-18.4372308 7.12747306 -20.40318096 6.23007218 -23 5 C-23 4.34 -23 3.68 -23 3 C-23.99 2.67 -24.98 2.34 -26 2 C-24.68 1.67 -23.36 1.34 -22 1 C-22 0.34 -22 -0.32 -22 -1 C-14.63223034 -2.59303128 -6.94852748 -3.17898274 0 0 Z " fill="#BED23B" transform="translate(89,13)"></path><path d="M0 0 C0.99 0.33 1.98 0.66 3 1 C4.61903882 5.85711647 2.89586672 9.42761557 1 14 C0.690625 15.010625 0.38125 16.02125 0.0625 17.0625 C-0.97741663 19.93756363 -2.10084256 21.64504478 -4 24 C-4.45503906 24.77730469 -4.91007812 25.55460937 -5.37890625 26.35546875 C-10.59256188 34.86063709 -18.27909403 40.88284304 -26 47 C-28.35301857 48.97848966 -30.67675155 50.98651801 -33 53 C-33.69238281 51.21850586 -33.69238281 51.21850586 -34 49 C-32.78417969 47.24829102 -32.78417969 47.24829102 -30.921875 45.50390625 C-30.25542969 44.86259766 -29.58898438 44.22128906 -28.90234375 43.56054688 C-28.19207031 42.90119141 -27.48179688 42.24183594 -26.75 41.5625 C-20.66193956 35.86310494 -20.66193956 35.86310494 -16 29 C-14.68753067 27.31685419 -13.35197122 25.6515839 -12 24 C-3.29412089 13.21973938 -3.29412089 13.21973938 0 0 Z " fill="#9BB01A" transform="translate(89,17)"></path><path d="M0 0 C0.66 0 1.32 0 2 0 C4.49151132 3.73726697 4.5545813 7.66783595 4 12 C3.18884568 14.48972801 2.17663958 16.64672083 1 19 C0.34 19 -0.32 19 -1 19 C-1.309375 19.99 -1.309375 19.99 -1.625 21 C-4.62642918 27.54857275 -7.29223515 31.67569971 -14.27832031 34.38867188 C-22.31964286 37.22678571 -22.31964286 37.22678571 -26 36 C-25.319375 35.505 -24.63875 35.01 -23.9375 34.5 C-19.19828348 30.46662424 -15.33710652 25.90415169 -11.76171875 20.8125 C-11.3759668 20.26529297 -10.99021484 19.71808594 -10.59277344 19.15429688 C-9.4811235 17.56246679 -8.39430118 15.95338598 -7.30859375 14.34375 C-5 12 -5 12 -1.72265625 11.65625 C-0.82417969 11.7696875 0.07429688 11.883125 1 12 C1 11.34 1 10.68 1 10 C-0.32 9.67 -1.64 9.34 -3 9 C-2.01 6.03 -1.02 3.06 0 0 Z " fill="#B3C732" transform="translate(121,41)"></path><path d="M0 0 C0.495 0.99 0.495 0.99 1 2 C0.0115948 4.30229731 -1.02725143 6.47380759 -2.1875 8.6875 C-2.67524902 9.63435669 -2.67524902 9.63435669 -3.17285156 10.6003418 C-4.10696211 12.40453488 -5.05318038 14.20244393 -6 16 C-6.62068359 17.21042969 -6.62068359 17.21042969 -7.25390625 18.4453125 C-9.61529898 22.87176633 -9.61529898 22.87176633 -13 24 C-16.02686776 26.63880779 -17.91937254 28.84162463 -19.75 32.4375 C-22.93069205 38.38344677 -29.74068984 41.9949852 -36 44 C-36.99 43.67 -37.98 43.34 -39 43 C-37.02 42.505 -37.02 42.505 -35 42 C-35 41.34 -35 40.68 -35 40 C-35.66 39.67 -36.32 39.34 -37 39 C-37 38.01 -37 37.02 -37 36 C-34.98046875 34.4921875 -34.98046875 34.4921875 -32.1875 32.875 C-23.71941006 27.70673349 -16.09559864 21.86528857 -10 14 C-9.34 13.67 -8.68 13.34 -8 13 C-7.06606559 11.344389 -6.19897217 9.65049478 -5.375 7.9375 C-4.70597656 6.55884766 -4.70597656 6.55884766 -4.0234375 5.15234375 C-3.68570313 4.44207031 -3.34796875 3.73179688 -3 3 C-2.34 3 -1.68 3 -1 3 C-0.67 2.01 -0.34 1.02 0 0 Z " fill="#92A814" transform="translate(143,108)"></path><path d="M0 0 C-0.49371094 0.51949219 -0.98742187 1.03898437 -1.49609375 1.57421875 C-2.45708984 2.62029297 -2.45708984 2.62029297 -3.4375 3.6875 C-4.39462891 4.71423828 -4.39462891 4.71423828 -5.37109375 5.76171875 C-7.16577553 7.88144078 -7.16577553 7.88144078 -7.42578125 10.45703125 C-8.23296842 14.0317173 -10.11360999 15.50400946 -12.75 18 C-13.61109375 18.825 -14.4721875 19.65 -15.359375 20.5 C-16.66648437 21.7375 -16.66648437 21.7375 -18 23 C-20.33974774 25.31863724 -22.66164602 27.64944087 -24.94921875 30.01953125 C-25.52285156 30.61121094 -26.09648438 31.20289063 -26.6875 31.8125 C-27.26886719 32.41707031 -27.85023437 33.02164063 -28.44921875 33.64453125 C-30 35 -30 35 -32 35 C-32.33 35.99 -32.66 36.98 -33 38 C-36.58869306 41.41780292 -39.40399036 43.20387525 -44.0546875 44.9765625 C-48.25094994 47.18423471 -51.59259534 50.74712616 -55 54 C-55.66 53.34 -56.32 52.68 -57 52 C-53.20774771 48.01103145 -49.7282986 44.83697916 -45 42 C-43.19411669 40.18592674 -41.45472013 38.33170859 -39.74609375 36.42578125 C-38 35 -38 35 -34 35 C-33.79375 34.4225 -33.5875 33.845 -33.375 33.25 C-32 31 -32 31 -29.3984375 29.359375 C-25.04831178 26.55343277 -21.73937119 22.78415108 -18.25 19 C-17.24259766 17.93265625 -17.24259766 17.93265625 -16.21484375 16.84375 C-13.25315017 13.66245188 -10.88431828 10.93111195 -9 7 C-7.6949419 5.31110128 -6.36639342 3.6396721 -5 2 C-6.91740583 2.78987473 -8.83389641 3.58197148 -10.75 4.375 C-12.35101563 5.03628906 -12.35101563 5.03628906 -13.984375 5.7109375 C-16.37555926 6.73307585 -18.69383183 7.80213595 -21 9 C-18.0096424 4.64639114 -15.43102186 2.94585899 -10.5 1.125 C-8.81390625 0.47917969 -8.81390625 0.47917969 -7.09375 -0.1796875 C-4.11137337 -0.97046918 -2.8123646 -1.11667418 0 0 Z " fill="#AFC430" transform="translate(96,53)"></path><path d="M0 0 C0 3 0 3 -2.25 5.375 C-3.1575 6.24125 -4.065 7.1075 -5 8 C-6.80535997 10.14386497 -8.52789772 12.28842555 -10.078125 14.625 C-14.23962774 20.83951076 -19.58246327 25.16291953 -25.48828125 29.67578125 C-26.10711182 30.15176758 -26.72594238 30.62775391 -27.36352539 31.11816406 C-28.59402987 32.06027154 -29.83125655 32.99368215 -31.07592773 33.91699219 C-34.98114227 36.89664313 -37.53029484 39.73914729 -40 44 C-40 44.33 -40 44.66 -40 45 C-39.01 45.33 -38.02 45.66 -37 46 C-38.91149668 47.0098473 -40.82941569 48.00754495 -42.75 49 C-43.81734375 49.556875 -44.8846875 50.11375 -45.984375 50.6875 C-49 52 -49 52 -53 52 C-53.29296875 49.76171875 -53.29296875 49.76171875 -53 47 C-50.98828125 44.83203125 -50.98828125 44.83203125 -48.3125 42.8125 C-47.44238281 42.13832031 -46.57226562 41.46414062 -45.67578125 40.76953125 C-43.15270279 39.10098447 -40.81702153 38.06052575 -38 37 C-33.61519212 33.82101429 -29.9418944 30.0219291 -26.19921875 26.125 C-25.57660156 25.485625 -24.95398438 24.84625 -24.3125 24.1875 C-23.73113281 23.58292969 -23.14976563 22.97835937 -22.55078125 22.35546875 C-21 21 -21 21 -19 21 C-18.76023438 20.43152344 -18.52046875 19.86304687 -18.2734375 19.27734375 C-16.74154841 16.53779977 -14.88906571 14.73254305 -12.625 12.5625 C-9.49592642 9.5135307 -6.71734774 6.4218453 -4 3 C-1.75 1.1875 -1.75 1.1875 0 0 Z " fill="#98AD17" transform="translate(96,57)"></path><path d="M0 0 C0 3.5258849 -0.1292949 5.8945831 -2.34765625 8.7109375 C-7.45372229 13.66579885 -12.75209747 18.13418365 -18.9375 21.6875 C-21.3158016 22.89641708 -21.3158016 22.89641708 -22 26 C-20.68 25.67 -19.36 25.34 -18 25 C-20.34461362 27.61278838 -22.75113955 29.10657974 -25.875 30.6875 C-26.71804687 31.12449219 -27.56109375 31.56148437 -28.4296875 32.01171875 C-31.1512191 33.05814351 -33.11197924 33.19149958 -36 33 C-34.3337643 27.33479861 -30.5730161 23.51741975 -25.5625 20.5625 C-22.42593518 18.64996048 -20.16911508 16.27293782 -17.6484375 13.62109375 C-15.08791334 11.10304274 -13.6482059 10 -10 10 C-10 9.34 -10 8.68 -10 8 C-8.3203125 6.5625 -8.3203125 6.5625 -6.125 5 C-3.90197743 3.40643543 -1.93765275 1.93765275 0 0 Z " fill="#91A610" transform="translate(98,94)"></path><path d="M0 0 C0.66 0.33 1.32 0.66 2 1 C1.51273438 1.37769531 1.02546875 1.75539063 0.5234375 2.14453125 C-0.54003906 2.97017578 -0.54003906 2.97017578 -1.625 3.8125 C-2.45128906 4.451875 -3.27757812 5.09125 -4.12890625 5.75 C-6.15399071 7.33700497 -8.15875638 8.93715488 -10.15234375 10.5625 C-16.33811433 15.57200145 -22.61955162 20.21822136 -29.375 24.4375 C-30.01638916 24.83815674 -30.65777832 25.23881348 -31.31860352 25.65161133 C-34.58728994 27.65010249 -37.90783459 29.54592937 -41.2890625 31.34765625 C-42.2473999 31.86017944 -42.2473999 31.86017944 -43.22509766 32.38305664 C-45 33 -45 33 -48 32 C-38.30597065 21.30314003 -24.94923847 14.46700503 -11.9375 8.625 C-8.7251505 6.84795559 -6.22625295 4.75890469 -3.515625 2.3046875 C-2 1 -2 1 0 0 Z " fill="#ACC02B" transform="translate(117,97)"></path><path d="M0 0 C0 3.69609599 -0.90032865 4.48889187 -3.1875 7.3125 C-4.14849609 8.50552734 -4.14849609 8.50552734 -5.12890625 9.72265625 C-6.05509766 10.84994141 -6.05509766 10.84994141 -7 12 C-7.46277344 12.57621094 -7.92554688 13.15242188 -8.40234375 13.74609375 C-13.26496893 19.72727808 -18.95945947 24.91502233 -24.5625 30.1875 C-25.22185547 30.81591797 -25.88121094 31.44433594 -26.56054688 32.09179688 C-27.52250977 32.99575195 -27.52250977 32.99575195 -28.50390625 33.91796875 C-29.07955322 34.46219482 -29.6552002 35.0064209 -30.24829102 35.56713867 C-32.08229148 37.06731271 -33.8540394 38.01036451 -36 39 C-39.34339968 40.83090935 -40.8473514 41.77102711 -43 45 C-42.34 45 -41.68 45 -41 45 C-41 45.66 -41 46.32 -41 47 C-44.465 47.495 -44.465 47.495 -48 48 C-43.63986218 39.59116277 -37.07712348 34.8385306 -29.69042969 29.29150391 C-27.32444242 27.48386777 -25.05797428 25.57966696 -22.8125 23.625 C-22.13832031 23.03976563 -21.46414062 22.45453125 -20.76953125 21.8515625 C-18.75631391 19.74501721 -17.45869113 17.51442891 -16 15 C-13.22383985 12.01028907 -10.42108786 9.24140239 -7 7 C-6.34 7 -5.68 7 -5 7 C-4.731875 6.401875 -4.46375 5.80375 -4.1875 5.1875 C-3.01506533 3.02775192 -1.80630718 1.64209744 0 0 Z " fill="#8BA00C" transform="translate(102,55)"></path><path d="M0 0 C0.33 0 0.66 0 1 0 C1.08143099 5.67690324 0.7190339 9.80544048 -3.1875 14.125 C-3.81398437 14.75664063 -4.44046875 15.38828125 -5.0859375 16.0390625 C-7.63356368 18.64907952 -9.64711028 21.55204753 -11.73828125 24.53125 C-12.15464844 25.0159375 -12.57101563 25.500625 -13 26 C-13.66 26 -14.32 26 -15 26 C-15 26.66 -15 27.32 -15 28 C-19.0271824 30.20536179 -22.43545749 31.45660208 -27 32 C-23.79617131 28.05770015 -20.65938273 24.66832018 -16.640625 21.52734375 C-13.65591156 18.74871766 -11.3420505 15.38398823 -8.9296875 12.109375 C-6.90268644 9.89362485 -5.93033514 9.3386165 -3 9 C-2.87625 8.071875 -2.7525 7.14375 -2.625 6.1875 C-2 3 -2 3 0 0 Z " fill="#BACE36" transform="translate(134,69)"></path><path d="M0 0 C0.66 0.33 1.32 0.66 2 1 C-1.55016167 4.74739287 -4.41892794 6.93720562 -9.125 8.875 C-11.14887743 9.85651743 -11.14887743 9.85651743 -11.9375 11.9375 C-13.3937211 14.76428213 -15.24355036 15.44537791 -18 17 C-18.8971875 17.51820312 -19.794375 18.03640625 -20.71875 18.5703125 C-21.6365625 19.08335938 -22.554375 19.59640625 -23.5 20.125 C-24.87671875 20.90230469 -24.87671875 20.90230469 -26.28125 21.6953125 C-29 23 -29 23 -31.60546875 23.51953125 C-34.26828314 24.05383169 -35.67117589 24.92501686 -37.8125 26.5625 C-38.71935547 27.24505859 -38.71935547 27.24505859 -39.64453125 27.94140625 C-40.09183594 28.29074219 -40.53914063 28.64007813 -41 29 C-41 26 -41 26 -39.77734375 24.67578125 C-34.62214056 20.85589608 -29.18816324 17.90659668 -23.50512695 14.96875 C-19.29607848 12.76860149 -15.55585193 10.3656688 -11.84765625 7.3828125 C-9.00597605 5.25605819 -5.9158518 3.63979109 -2.78515625 1.98046875 C-1.03343325 1.12655825 -1.03343325 1.12655825 0 0 Z " fill="#CFE44C" transform="translate(71,41)"></path><path d="M0 0 C-1.15642132 3.46926395 -2.01694644 3.97198451 -4.9375 6 C-7.7269604 7.94401596 -9.06784883 9.10177325 -11 12 C-11.66 12 -12.32 12 -13 12 C-13.144375 13.299375 -13.28875 14.59875 -13.4375 15.9375 C-13.875 19.875 -13.875 19.875 -15 21 C-15.29463383 22.41190865 -15.56090654 23.8297902 -15.8125 25.25 C-16.70380263 29.51216897 -18.2800853 31.60010663 -21 35 C-23.09874884 40.92313562 -23.19740795 46.78164962 -23 53 C-23.66 53 -24.32 53 -25 53 C-27.15126967 49.07709649 -27.32204244 45.83778973 -26.75 41.51171875 C-25.83635255 38.45195152 -24.37857103 36.30945255 -22.5625 33.6875 C-19.7633101 29.64170731 -18.5159971 26.69895427 -17.9375 21.8125 C-16.77109926 12.39624404 -10.80545598 7.52863454 -3.953125 1.46875 C-2 0 -2 0 0 0 Z " fill="#EAFB77" transform="translate(33,29)"></path><path d="M0 0 C4.875 1.75 4.875 1.75 6 4 C5.34 4 4.68 4 4 4 C3.7525 5.03125 3.505 6.0625 3.25 7.125 C0.7429168 15.57793592 -5.19564529 19.88374856 -12 25 C-12.66 24.34 -13.32 23.68 -14 23 C-13.2575 22.154375 -12.515 21.30875 -11.75 20.4375 C-9.01237074 17.16626504 -7.06931584 13.72476852 -5 10 C-4.46375 9.319375 -3.9275 8.63875 -3.375 7.9375 C-1.60994546 5.45037769 -0.85924313 2.90820753 0 0 Z " fill="#B2C62F" transform="translate(64,17)"></path><path d="M0 0 C0.66 0.66 1.32 1.32 2 2 C1.3503125 2.8353125 1.3503125 2.8353125 0.6875 3.6875 C-1.03024187 5.95851553 -1.03024187 5.95851553 -2.38671875 8.37890625 C-7.59895992 16.8472206 -15.25774631 22.94738613 -23 29 C-24.66778822 30.33193018 -26.33479793 31.66483798 -28 33 C-26.73882275 29.11137013 -25.54735833 27.10624401 -22 25 C-21.34 25 -20.68 25 -20 25 C-20 24.34 -20 23.68 -20 23 C-19.34 23 -18.68 23 -18 23 C-18 21.68 -18 20.36 -18 19 C-16.42578125 17.25390625 -16.42578125 17.25390625 -14.3125 15.5625 C-13.5803125 14.95535156 -12.848125 14.34820312 -12.09375 13.72265625 C-11.4028125 13.15417969 -10.711875 12.58570313 -10 12 C-6.03484158 8.31148054 -3.05096687 4.44569459 0 0 Z " fill="#8DA20E" transform="translate(86,35)"></path><path d="M0 0 C0.66 0 1.32 0 2 0 C0.60838098 4.16741523 -1.33207679 6.79416663 -4.3125 10 C-5.116875 10.86882812 -5.92125 11.73765625 -6.75 12.6328125 C-9.12842642 15.1351153 -11.52386751 17.59461415 -14 20 C-14.639375 20.721875 -15.27875 21.44375 -15.9375 22.1875 C-18.45295571 24.39805198 -20.79648191 25.12631325 -24 26 C-21.24979004 21.18713256 -18.30192755 18.48905325 -13.70703125 15.39453125 C-11.70801275 14.01508056 -11.70801275 14.01508056 -11 11 C-10.0925 10.4225 -9.185 9.845 -8.25 9.25 C-5.34257643 7.2371683 -4.1554786 6.06284936 -2.25 3.25 C-1.5075 2.1775 -0.765 1.105 0 0 Z " fill="#8EA30F" transform="translate(130,84)"></path><path d="M0 0 C0.66 0.33 1.32 0.66 2 1 C-2.72846982 6.4399294 -7.46161863 11.65080936 -12.984375 16.29296875 C-14.37658969 17.47203429 -15.7399586 18.68571351 -17.078125 19.92578125 C-32.27281553 34 -32.27281553 34 -38 34 C-38 33.34 -38 32.68 -38 32 C-35.953125 30.30859375 -35.953125 30.30859375 -33.25 28.4375 C-32.36828125 27.81746094 -31.4865625 27.19742188 -30.578125 26.55859375 C-28 25 -28 25 -25.734375 24.47265625 C-25.16203125 24.31667969 -24.5896875 24.16070312 -24 24 C-23.67 23.01 -23.34 22.02 -23 21 C-21.109375 19.3515625 -21.109375 19.3515625 -18.75 17.625 C-15.20965102 14.95853463 -12.05500168 12.224724 -9 9 C-6 6 -3 3 0 0 Z " fill="#84980B" transform="translate(123,82)"></path><path d="M0 0 C0.66 0.33 1.32 0.66 2 1 C3.07622545 5.66364362 3.30736105 8.74959807 1 13 C0.34 13.66 -0.32 14.32 -1 15 C-3.28529928 18.24570741 -3.28529928 18.24570741 -4 22 C-5.75 23.2890625 -5.75 23.2890625 -8 24.625 C-8.7425 25.07101563 -9.485 25.51703125 -10.25 25.9765625 C-10.8275 26.31429687 -11.405 26.65203125 -12 27 C-12 22.89419134 -10.29237289 21.69084016 -7.6875 18.5625 C-3.08427207 12.80377338 -1.13136199 7.33434667 0 0 Z " fill="#9EB21C" transform="translate(71,22)"></path><path d="M0 0 C2.125 0.375 2.125 0.375 4 1 C2.35 2.65 0.7 4.3 -1 6 C-0.01 6.66 0.98 7.32 2 8 C1.34 8 0.68 8 0 8 C0.33 10.31 0.66 12.62 1 15 C-1.46800047 13.84826645 -3.04783565 12.95216435 -5 11 C-8.58343976 10.83322718 -8.58343976 10.83322718 -12 11 C-10.60285043 7.57989428 -9.19037182 6.19304276 -6 4.375 C-3.6423238 3.01413543 -1.93908889 1.93908889 0 0 Z " fill="#A1B61F" transform="translate(68,140)"></path><path d="M0 0 C1.27225439 3.81676318 0.87700768 6.08719651 0 10 C-1.6875 12.4375 -1.6875 12.4375 -4 15 C-4.92341993 16.26593474 -5.83947041 17.53726237 -6.75 18.8125 C-10.0850947 23.30205055 -13.96138185 27.14588724 -18 31 C-18.33 29.68 -18.66 28.36 -19 27 C-18.071875 26.87625 -18.071875 26.87625 -17.125 26.75 C-14.8659002 26.22011887 -14.8659002 26.22011887 -14.0546875 24.25 C-13.70664063 23.5075 -13.35859375 22.765 -13 22 C-12.02563191 20.40076541 -11.02454893 18.81755987 -10 17.25 C-9.484375 16.45078125 -8.96875 15.6515625 -8.4375 14.828125 C-7.963125 14.22484375 -7.48875 13.6215625 -7 13 C-6.34 13 -5.68 13 -5 13 C-4.80664062 12.31292969 -4.61328125 11.62585937 -4.4140625 10.91796875 C-4.15367188 10.01691406 -3.89328125 9.11585937 -3.625 8.1875 C-3.24214844 6.84751953 -3.24214844 6.84751953 -2.8515625 5.48046875 C-2 3 -2 3 0 0 Z " fill="#8EA310" transform="translate(127,47)"></path><path d="M0 0 C-0.33470456 3.01234107 -1.26108885 4.34555877 -3.125 6.8125 C-6 9 -6 9 -9.8125 8.8125 C-10.864375 8.544375 -11.91625 8.27625 -13 8 C-13 6.02 -13 4.04 -13 2 C-11.58461283 1.66127487 -10.16762037 1.32925376 -8.75 1 C-7.56664062 0.7215625 -7.56664062 0.7215625 -6.359375 0.4375 C-4 0 -4 0 0 0 Z " fill="#B0C42E" transform="translate(34,86)"></path><path d="M0 0 C0.33 0.66 0.66 1.32 1 2 C0.0116242 4.30222883 -1.02784447 6.47358612 -2.1875 8.6875 C-2.51049072 9.3180127 -2.83348145 9.94852539 -3.16625977 10.59814453 C-5.33275207 14.80084646 -7.58190596 18.93760201 -10 23 C-10.33 22.01 -10.66 21.02 -11 20 C-14.3 22.64 -17.6 25.28 -21 28 C-21.66 27.67 -22.32 27.34 -23 27 C-22.16855469 26.24074219 -21.33710937 25.48148438 -20.48046875 24.69921875 C-19.38277925 23.69534886 -18.28512484 22.6914406 -17.1875 21.6875 C-16.64029297 21.18798828 -16.09308594 20.68847656 -15.52929688 20.17382812 C-14.01473517 18.78777469 -12.50712253 17.39413878 -11 16 C-10.4328125 15.4946875 -9.865625 14.989375 -9.28125 14.46875 C-7.51048462 12.43884822 -6.47663716 10.23516381 -5.3125 7.8125 C-4.87550781 6.91144531 -4.43851563 6.01039062 -3.98828125 5.08203125 C-3.66214844 4.39496094 -3.33601563 3.70789063 -3 3 C-2.34 3 -1.68 3 -1 3 C-0.67 2.01 -0.34 1.02 0 0 Z " fill="#A2B720" transform="translate(143,108)"></path><path d="M0 0 C0.33 0 0.66 0 1 0 C1.57028728 15.03868673 1.57028728 15.03868673 -2 22 C-2.53947266 23.11761719 -2.53947266 23.11761719 -3.08984375 24.2578125 C-4.03334276 26.18510229 -5.01322561 28.09450463 -6 30 C-7.32 30 -8.64 30 -10 30 C-9.71125 29.42378906 -9.4225 28.84757812 -9.125 28.25390625 C-8.41244341 26.82631892 -7.70363441 25.39684971 -7 23.96484375 C-6.67 23.29582031 -6.34 22.62679687 -6 21.9375 C-5.67 21.26589844 -5.34 20.59429687 -5 19.90234375 C-4 18 -4 18 -2 15 C-1.5437208 12.42286746 -1.17054724 9.90701715 -0.875 7.3125 C-0.74544922 6.2596582 -0.74544922 6.2596582 -0.61328125 5.18554688 C-0.40173125 3.45788855 -0.199914 1.7290434 0 0 Z " fill="#93A912" transform="translate(136,48)"></path><path d="M0 0 C0 6.95174952 -7.42273078 12.61939193 -12.0625 17.3125 C-12.82191895 18.08581665 -12.82191895 18.08581665 -13.59667969 18.87475586 C-16.50118894 21.7551711 -19.29658187 24.22210256 -23 26 C-23.66 25.67 -24.32 25.34 -25 25 C-24.278125 24.443125 -23.55625 23.88625 -22.8125 23.3125 C-20.01678081 21.01379755 -17.5474442 18.56972505 -15 16 C-14.06800781 15.09121094 -13.13601562 14.18242188 -12.17578125 13.24609375 C-11.22132923 12.30992125 -10.26690229 11.3737232 -9.3125 10.4375 C-8.82716797 9.96892578 -8.34183594 9.50035156 -7.84179688 9.01757812 C-5.28471304 6.49576441 -3.49682838 4.25173062 -2 1 C-1.34 0.67 -0.68 0.34 0 0 Z " fill="#859909" transform="translate(93,39)"></path><path d="M0 0 C0.99 0.33 1.98 0.66 3 1 C2.67 1.99 2.34 2.98 2 4 C3.32 3.67 4.64 3.34 6 3 C3.65538638 5.61278838 1.24886045 7.10657974 -1.875 8.6875 C-2.71804687 9.12449219 -3.56109375 9.56148437 -4.4296875 10.01171875 C-7.1512191 11.05814351 -9.11197924 11.19149958 -12 11 C-10.78821999 7.36465996 -9.73911373 6.92478955 -6.5625 4.9375 C-4.10191119 3.38531476 -2.06116538 2.06116538 0 0 Z " fill="#7F9206" transform="translate(74,116)"></path><path d="M0 0 C-4.93069452 4.18788859 -8.44672101 6.72694671 -15 7 C-14.125 2.25 -14.125 2.25 -13 0 C-10.8203125 -0.44921875 -10.8203125 -0.44921875 -8.125 -0.6875 C-7.24070312 -0.77386719 -6.35640625 -0.86023437 -5.4453125 -0.94921875 C-3 -1 -3 -1 0 0 Z " fill="#AFC32C" transform="translate(36,63)"></path><path d="M0 0 C-3.93944614 5.80549957 -9.1415716 9.46474511 -16 11 C-16.99 10.67 -17.98 10.34 -19 10 C-13.85714286 5.57142857 -13.85714286 5.57142857 -10 5 C-10 4.34 -10 3.68 -10 3 C-6.96842923 0.29324039 -3.92805824 -1.96402912 0 0 Z " fill="#879C09" transform="translate(90,134)"></path><path d="M0 0 C0.66 0.33 1.32 0.66 2 1 C-0.69990463 3.75838307 -3.41136814 6.50512567 -6.125 9.25 C-6.88554688 10.02730469 -7.64609375 10.80460937 -8.4296875 11.60546875 C-12.39316443 15.60311358 -16.15301913 19.11968549 -21 22 C-19.54682061 18.6092481 -17.58699688 16.58699688 -15 14 C-14.67 13.01 -14.34 12.02 -14 11 C-11.59915795 8.86591818 -9.20969491 7.12274824 -6.4375 5.5 C-3.8908009 3.93280055 -2.03107002 2.18151965 0 0 Z " fill="#ABBF28" transform="translate(69,50)"></path><path d="M0 0 C0.33 0.66 0.66 1.32 1 2 C-3.99049219 4.81870392 -8.99918949 7.55948227 -14.14453125 10.0859375 C-15.8997223 10.95060004 -17.63800738 11.84933716 -19.375 12.75 C-22 14 -22 14 -24 14 C-24.33 14.99 -24.66 15.98 -25 17 C-26.32 16.67 -27.64 16.34 -29 16 C-20.37414145 10.1519603 -11.36268058 5.53211221 -2 1 C-1.34 0.67 -0.68 0.34 0 0 Z " fill="#C3D64A" transform="translate(96,85)"></path><path d="M0 0 C0.66 0.33 1.32 0.66 2 1 C-2.37234669 7.21333477 -8.27324033 12.16549413 -13.8125 17.3125 C-14.85180664 18.28026367 -14.85180664 18.28026367 -15.91210938 19.26757812 C-17.60731349 20.84587161 -19.30329254 22.42332302 -21 24 C-21.66 23.34 -22.32 22.68 -23 22 C-22.19175781 21.26394531 -21.38351563 20.52789062 -20.55078125 19.76953125 C-19.47129779 18.78391591 -18.39187388 17.79823535 -17.3125 16.8125 C-16.51682617 16.08836914 -16.51682617 16.08836914 -15.70507812 15.34960938 C-12.38360904 12.31341984 -9.16124052 9.20461947 -6 6 C-4 4 -2 2 0 0 Z " fill="#7D9106" transform="translate(91,68)"></path><path d="M0 0 C-1.485 1.98 -1.485 1.98 -3 4 C-2.01 4.66 -1.02 5.32 0 6 C-0.99 6 -1.98 6 -3 6 C-3.33 6.66 -3.66 7.32 -4 8 C-4.99 7.67 -5.98 7.34 -7 7 C-7.12375 7.804375 -7.2475 8.60875 -7.375 9.4375 C-7.58125 10.283125 -7.7875 11.12875 -8 12 C-8.99 12.495 -8.99 12.495 -10 13 C-10.29915966 4.02521008 -10.29915966 4.02521008 -8 1 C-5.07175348 0.02391783 -3.04386724 -0.08226668 0 0 Z " fill="#C2D542" transform="translate(48,128)"></path><path d="M0 0 C0.66 0.33 1.32 0.66 2 1 C-0.97 4.96 -0.97 4.96 -4 9 C-3.34 9.66 -2.68 10.32 -2 11 C-5.08809695 12.76462683 -6.23312136 13 -10 13 C-10.3125 10.76953125 -10.3125 10.76953125 -10 8 C-7.8125 5.76171875 -7.8125 5.76171875 -5 3.6875 C-4.071875 2.99011719 -3.14375 2.29273437 -2.1875 1.57421875 C-1.1046875 0.79498047 -1.1046875 0.79498047 0 0 Z " fill="#A5B923" transform="translate(53,96)"></path><path d="M0 0 C0.99 0.33 1.98 0.66 3 1 C-0.52327211 4.75946912 -4.00115077 7.48597756 -8.4375 10.1875 C-9.52933594 10.86167969 -10.62117188 11.53585938 -11.74609375 12.23046875 C-14.79720665 13.88971742 -17.67603163 15.02236224 -21 16 C-20.67 15.01 -20.34 14.02 -20 13 C-17.68020619 11.96898053 -15.34570085 10.97063483 -13 10 C-11.99867286 9.0013289 -10.99872205 8.00127632 -10 7 C-7.98411848 5.91421827 -5.92963466 4.99648476 -3.83984375 4.0625 C-1.67603552 2.99411024 -1.67603552 2.99411024 0 0 Z " fill="#B3C830" transform="translate(72,70)"></path><path d="M0 0 C0.99 0.33 1.98 0.66 3 1 C2.01 1.495 2.01 1.495 1 2 C0.71125 3.051875 0.4225 4.10375 0.125 5.1875 C-1.52970893 10.79512472 -4.04455648 14.81435774 -9 18 C-8.45207105 13.3817417 -6.41035512 10.01850353 -3.9375 6.1875 C-3.56044922 5.59001953 -3.18339844 4.99253906 -2.79492188 4.37695312 C-1.87010434 2.91363423 -0.93597935 1.45620477 0 0 Z " fill="#9CB019" transform="translate(67,19)"></path><path d="M0 0 C0.66 0 1.32 0 2 0 C2.19532961 1.7699868 2.38098882 3.54104279 2.5625 5.3125 C2.66691406 6.29863281 2.77132812 7.28476562 2.87890625 8.30078125 C3 11 3 11 2 14 C-0.31 14 -2.62 14 -5 14 C-4.67 13.34 -4.34 12.68 -4 12 C-2.35 12 -0.7 12 1 12 C1 11.34 1 10.68 1 10 C-0.32 9.67 -1.64 9.34 -3 9 C-2.01 6.03 -1.02 3.06 0 0 Z " fill="#BFD33C" transform="translate(121,41)"></path><path d="M0 0 C0.66 0.33 1.32 0.66 2 1 C-3.68888905 7.89512914 -9.95032938 13.51836274 -17 19 C-17.66 18.34 -18.32 17.68 -19 17 C-15.20774771 13.01103145 -11.7282986 9.83697916 -7 7 C-4.57781335 4.75046398 -2.27726766 2.39539682 0 0 Z " fill="#B4C831" transform="translate(58,88)"></path><path d="M0 0 C0.99 0.33 1.98 0.66 3 1 C2.71125 1.845625 2.4225 2.69125 2.125 3.5625 C0.45838991 8.65491971 -1.0407733 13.72425313 -2 19 C-2.66 18.67 -3.32 18.34 -4 18 C-4.45164525 10.88658735 -3.32797915 6.28453206 0 0 Z " fill="#EBFB7A" transform="translate(12,85)"></path><path d="M0 0 C0.66 0.33 1.32 0.66 2 1 C1.36191406 1.40992187 0.72382812 1.81984375 0.06640625 2.2421875 C-1.17302734 3.05042969 -1.17302734 3.05042969 -2.4375 3.875 C-3.67306641 4.67550781 -3.67306641 4.67550781 -4.93359375 5.4921875 C-7.11038871 6.83834306 -7.11038871 6.83834306 -8 9 C-7.01 8.67 -6.02 8.34 -5 8 C-6.24976756 11.65316671 -6.67098753 12.78065836 -10 15 C-10.12375 14.360625 -10.2475 13.72125 -10.375 13.0625 C-10.58125 12.381875 -10.7875 11.70125 -11 11 C-11.66 10.67 -12.32 10.34 -13 10 C-11.58829091 8.70291686 -10.17041804 7.41254022 -8.75 6.125 C-7.96109375 5.40570312 -7.1721875 4.68640625 -6.359375 3.9453125 C-4.26285918 2.21672826 -2.53958562 0.94420491 0 0 Z " fill="#DAED5F" transform="translate(46,18)"></path><path d="M0 0 C0.66 0.33 1.32 0.66 2 1 C-8.65968348 12.16998748 -8.65968348 12.16998748 -14 15 C-14.99 14.67 -15.98 14.34 -17 14 C-15.10907094 12.2236727 -13.21261247 10.4539586 -11.3125 8.6875 C-10.51682617 7.93823242 -10.51682617 7.93823242 -9.70507812 7.17382812 C-6.6709837 4.36310261 -3.75711799 1.82262992 0 0 Z " fill="#7B8F06" transform="translate(96,99)"></path><path d="M0 0 C0 3 0 3 -1.5 4.75 C-6.03579648 8.83221684 -10.60593862 12.86503288 -15.3125 16.75 C-17.32366047 18.43376225 -19.19975916 20.09974578 -21 22 C-21 19 -21 19 -18.953125 16.87890625 C-18.06109375 16.11449219 -17.1690625 15.35007812 -16.25 14.5625 C-13.05030624 11.79785232 -9.98021097 8.99853193 -7 6 C-5.76203124 4.90293826 -4.51273209 3.81846562 -3.25 2.75 C-2.63640625 2.22921875 -2.0228125 1.7084375 -1.390625 1.171875 C-0.93171875 0.78515625 -0.4728125 0.3984375 0 0 Z " fill="#889E0A" transform="translate(98,94)"></path><path d="M0 0 C-1.15642132 3.46926395 -2.01694644 3.97198451 -4.9375 6 C-7.7269604 7.94401596 -9.06784883 9.10177325 -11 12 C-11.66 12 -12.32 12 -13 12 C-13.12375 13.299375 -13.2475 14.59875 -13.375 15.9375 C-13.5859375 18.15234375 -13.5859375 18.15234375 -14 20 C-14.66 20.33 -15.32 20.66 -16 21 C-16.55684459 18.15390541 -16.72427996 16.76498767 -16 14 C-5.96630934 0 -5.96630934 0 0 0 Z " fill="#E5F76A" transform="translate(33,29)"></path><path d="M0 0 C0.66 0.33 1.32 0.66 2 1 C0.44066679 2.27471705 -1.12261706 3.54460214 -2.6875 4.8125 C-3.55761719 5.52019531 -4.42773438 6.22789063 -5.32421875 6.95703125 C-7.81431916 8.858232 -10.22881145 10.53950874 -13 12 C-15.3125 11.6875 -15.3125 11.6875 -17 11 C-16.34 11 -15.68 11 -15 11 C-15 10.34 -15 9.68 -15 9 C-10.50035851 5.41028601 -5.31144118 2.20230488 0 0 Z " fill="#A0B423" transform="translate(73,62)"></path><path d="M0 0 C0.33 0 0.66 0 1 0 C1.05425226 2.39614126 1.09379027 4.79103853 1.125 7.1875 C1.14175781 7.86103516 1.15851563 8.53457031 1.17578125 9.22851562 C1.23777819 15.58320236 -0.27192546 19.37051309 -4.125 24.3125 C-4.66382812 25.00988281 -5.20265625 25.70726563 -5.7578125 26.42578125 C-6.37269531 27.20501953 -6.37269531 27.20501953 -7 28 C-7 24.35167014 -5.86745089 23.08847648 -4 20 C-2.31359144 15.57317753 -1.49432785 11.31419659 -0.875 6.625 C-0.70742187 5.37976562 -0.53984375 4.13453125 -0.3671875 2.8515625 C-0.24601562 1.91054688 -0.12484375 0.96953125 0 0 Z " fill="#8DA30D" transform="translate(118,33)"></path><path d="M0 0 C0.99 0.33 1.98 0.66 3 1 C4 4 4 4 3.22265625 6.04296875 C2.83980469 6.75066406 2.45695312 7.45835938 2.0625 8.1875 C1.68222656 8.90292969 1.30195312 9.61835938 0.91015625 10.35546875 C0.60980469 10.89816406 0.30945313 11.44085938 0 12 C-0.66 12 -1.32 12 -2 12 C-2.268125 12.969375 -2.53625 13.93875 -2.8125 14.9375 C-3.4003125 16.4534375 -3.4003125 16.4534375 -4 18 C-4.99 18.33 -5.98 18.66 -7 19 C-6.0671435 16.41670509 -5.24273288 14.29835917 -3.5 12.15625 C-1.76090357 9.65629888 -1.32330105 7.73622155 -0.8125 4.75 C-0.65394531 3.85796875 -0.49539062 2.9659375 -0.33203125 2.046875 C-0.22246094 1.37140625 -0.11289063 0.6959375 0 0 Z " fill="#A3B821" transform="translate(89,17)"></path><path d="M0 0 C0 3 0 3 -2.1875 5.3125 C-3.115625 6.199375 -4.04375 7.08625 -5 8 C-6.1446875 9.423125 -6.1446875 9.423125 -7.3125 10.875 C-10.43782939 14.72155925 -14.21413997 17.82476255 -18 21 C-18 18 -18 18 -15.953125 15.6953125 C-14.61507812 14.42300781 -14.61507812 14.42300781 -13.25 13.125 C-9.88125508 9.90400705 -6.88854514 6.65425862 -4 3 C-1.75 1.1875 -1.75 1.1875 0 0 Z " fill="#A2B720" transform="translate(96,57)"></path><path d="M0 0 C-0.125 1.75 -0.125 1.75 -1 4 C-4.0625 6.25 -4.0625 6.25 -7 8 C-6.34 8.66 -5.68 9.32 -5 10 C-7.31 10 -9.62 10 -12 10 C-11.2628641 8.70094902 -10.50969444 7.41098878 -9.75 6.125 C-9.33234375 5.40570313 -8.9146875 4.68640625 -8.484375 3.9453125 C-6.04826787 0.75273 -3.96693449 0 0 0 Z " fill="#A8BC26" transform="translate(56,123)"></path><path d="M0 0 C0.66 0 1.32 0 2 0 C0.4493407 4.56642429 -3.1602808 6.65813464 -6.9375 9.3125 C-7.57107422 9.77978516 -8.20464844 10.24707031 -8.85742188 10.72851562 C-10.51252965 11.90675744 -12.25275552 12.96328776 -14 14 C-14.99 13.67 -15.98 13.34 -17 13 C-15.35 12.34 -13.7 11.68 -12 11 C-12 10.34 -12 9.68 -12 9 C-10.23810568 7.58061562 -8.41435143 6.23733457 -6.5625 4.9375 C-3.13481849 2.64887381 -3.13481849 2.64887381 0 0 Z " fill="#859813" transform="translate(90,79)"></path><path d="M0 0 C3.73276668 1.19981786 5.37839614 3.4649413 7.17578125 6.875 C9.70306506 13.39084073 9.38339618 19.55081035 7 26 C5.94602334 22.58281006 5.9293754 19.49962841 6 15.9375 C6.06720386 12.53950501 6.07967343 10.23902028 5 7 C4.154375 6.154375 3.30875 5.30875 2.4375 4.4375 C1.633125 3.633125 0.82875 2.82875 0 2 C0 1.34 0 0.68 0 0 Z " fill="#B6CA3C" transform="translate(141,58)"></path><path d="M0 0 C2.3431213 0.25561323 4.67843403 0.59270772 7 1 C7.33 1.66 7.66 2.32 8 3 C7.71125 3.680625 7.4225 4.36125 7.125 5.0625 C5.62241434 8.98591812 5.34474051 12.83589751 5 17 C2.226286 12.839429 2.98046693 9.58816551 3.22265625 4.71484375 C3.14917969 3.81894531 3.07570313 2.92304687 3 2 C2.01 1.34 1.02 0.68 0 0 Z " fill="#E7F96D" transform="translate(16,111)"></path><path d="M0 0 C0 4.06772485 -1.54175504 5.09653495 -4.25 8.0625 C-5.03890625 8.94035156 -5.8278125 9.81820312 -6.640625 10.72265625 C-8.74033941 12.74936735 -10.32636212 13.91460114 -13 15 C-11.55922954 11.63820226 -9.75249979 9.40843732 -7 7 C-6.34 7 -5.68 7 -5 7 C-4.9175 6.401875 -4.835 5.80375 -4.75 5.1875 C-3.79544128 2.4033704 -2.42867729 1.56688858 0 0 Z " fill="#7D9106" transform="translate(83,42)"></path><path d="M0 0 C0.33 0.66 0.66 1.32 1 2 C-2.65119902 7.70985379 -6.48244546 12.94464135 -11 18 C-11.33 17.34 -11.66 16.68 -12 16 C-10.8966898 14.41606974 -9.79231456 12.83288132 -8.6875 11.25 C-7.76517578 9.92742188 -7.76517578 9.92742188 -6.82421875 8.578125 C-2.58031088 2.58031088 -2.58031088 2.58031088 0 0 Z " fill="#C5D941" transform="translate(84,26)"></path><path d="M0 0 C0.99 0.33 1.98 0.66 3 1 C2.67 1.66 2.34 2.32 2 3 C2.99 3.33 3.98 3.66 5 4 C3.5882217 4.53394179 2.17029756 5.05165104 0.75 5.5625 C-0.03890625 5.85253906 -0.8278125 6.14257812 -1.640625 6.44140625 C-4.19103452 7.04522837 -5.55322229 6.8473932 -8 6 C-7.34 5.34 -6.68 4.68 -6 4 C-5.01 4 -4.02 4 -3 4 C-3 3.34 -3 2.68 -3 2 C-2.01 1.34 -1.02 0.68 0 0 Z " fill="#91A512" transform="translate(60,124)"></path><path d="M0 0 C0.66 0 1.32 0 2 0 C0.48480199 4.34622588 -2.83274759 6.30781672 -6.5 8.75 C-7.39138672 9.36681641 -7.39138672 9.36681641 -8.30078125 9.99609375 C-12.72181271 13 -12.72181271 13 -15 13 C-15 12.34 -15 11.68 -15 11 C-12.953125 9.30859375 -12.953125 9.30859375 -10.25 7.4375 C-9.36828125 6.81746094 -8.4865625 6.19742188 -7.578125 5.55859375 C-5 4 -5 4 -2.734375 3.47265625 C-2.16203125 3.31667969 -1.5896875 3.16070312 -1 3 C-0.67 2.01 -0.34 1.02 0 0 Z " fill="#7D900A" transform="translate(100,103)"></path><path d="M0 0 C0.66 0.33 1.32 0.66 2 1 C1.33613281 1.38671875 0.67226562 1.7734375 -0.01171875 2.171875 C-5.65879336 5.49317215 -5.65879336 5.49317215 -10.875 9.4375 C-11.57625 9.953125 -12.2775 10.46875 -13 11 C-15.1328125 10.59765625 -15.1328125 10.59765625 -17 10 C-6.19565217 2.06521739 -6.19565217 2.06521739 0 0 Z " fill="#C4D941" transform="translate(69,72)"></path><path d="M0 0 C0.66 0.33 1.32 0.66 2 1 C-0.62352368 4.59519912 -2.90048741 7.15521934 -7 9 C-9.15625 8.5703125 -9.15625 8.5703125 -11 8 C-9.9275 7.236875 -8.855 6.47375 -7.75 5.6875 C-5.14079791 3.82454029 -2.55271678 1.94006475 0 0 Z " fill="#AABE27" transform="translate(68,114)"></path><path d="M0 0 C0.66 0.33 1.32 0.66 2 1 C1.175 1.78375 0.35 2.5675 -0.5 3.375 C-3.22988506 5.63721264 -3.22988506 5.63721264 -3 8 C-6.47307692 10.10865385 -6.47307692 10.10865385 -9.140625 9.55859375 C-10.06101563 9.28208984 -10.06101563 9.28208984 -11 9 C-9.73113036 7.87278564 -8.45982438 6.74831342 -7.1875 5.625 C-6.47980469 4.99851562 -5.77210937 4.37203125 -5.04296875 3.7265625 C-3 2 -3 2 0 0 Z " fill="#BFD344" transform="translate(65,102)"></path><path d="M0 0 C0.66 0.33 1.32 0.66 2 1 C1.01 1.33 0.02 1.66 -1 2 C-1 2.66 -1 3.32 -1 4 C-0.29875 3.525625 0.4025 3.05125 1.125 2.5625 C4.16081337 0.91260143 6.59168786 0.39631536 10 0 C7.23077149 3.07692057 4.97149976 4.77800007 1 6 C0.01 6 -0.98 6 -2 6 C-2 5.34 -2 4.68 -2 4 C-2.66 3.67 -3.32 3.34 -4 3 C-3.34 3 -2.68 3 -2 3 C-2 2.34 -2 1.68 -2 1 C-1.34 0.67 -0.68 0.34 0 0 Z " fill="#849909" transform="translate(102,128)"></path><path d="M0 0 C0.33 0.99 0.66 1.98 1 3 C0.45730469 3.47050781 -0.08539063 3.94101562 -0.64453125 4.42578125 C-1.35996094 5.04839844 -2.07539063 5.67101563 -2.8125 6.3125 C-3.52019531 6.92738281 -4.22789063 7.54226562 -4.95703125 8.17578125 C-6.70136739 9.73334335 -8.36778041 11.32658875 -10 13 C-10.33 12.01 -10.66 11.02 -11 10 C-10.34 10 -9.68 10 -9 10 C-8.74476562 9.40703125 -8.48953125 8.8140625 -8.2265625 8.203125 C-6.88183502 5.78775462 -5.50785633 4.48788294 -3.375 2.75 C-2.74335938 2.22921875 -2.11171875 1.7084375 -1.4609375 1.171875 C-0.73777344 0.59179688 -0.73777344 0.59179688 0 0 Z " fill="#D3E850" transform="translate(31,31)"></path><path d="M0 0 C0.66 0.33 1.32 0.66 2 1 C1.67 1.33 1.34 1.66 1 2 C1.99 2.66 2.98 3.32 4 4 C3 5 3 5 0.49609375 5.09765625 C-1.01791016 5.08025391 -1.01791016 5.08025391 -2.5625 5.0625 C-3.57441406 5.05347656 -4.58632812 5.04445312 -5.62890625 5.03515625 C-6.41136719 5.02355469 -7.19382812 5.01195312 -8 5 C-3.02083333 1.20833333 -3.02083333 1.20833333 0 0 Z " fill="#97AE17" transform="translate(101,147)"></path><path d="M0 0 C0.66 0.33 1.32 0.66 2 1 C0.40320196 2.3421492 -1.20270197 3.67347115 -2.8125 5 C-4.15248047 6.11375 -4.15248047 6.11375 -5.51953125 7.25 C-8 9 -8 9 -11 9 C-7.86394624 4.48408258 -4.8731652 2.3463388 0 0 Z " fill="#E2F65F" transform="translate(40,60)"></path><path d="M0 0 C0.66 0.33 1.32 0.66 2 1 C-0.50123051 5.16871752 -2.49415979 7.98422938 -7 10 C-7.66 9.67 -8.32 9.34 -9 9 C-6 6 -3 3 0 0 Z " fill="#C1D53C" transform="translate(70,44)"></path><path d="M0 0 C0.66 0.33 1.32 0.66 2 1 C-3.58924205 6.8997555 -3.58924205 6.8997555 -7 8 C-9.25 7.625 -9.25 7.625 -11 7 C-9.9275 6.401875 -8.855 5.80375 -7.75 5.1875 C-5.01041007 3.62598931 -2.46743122 1.97394497 0 0 Z " fill="#D6E952" transform="translate(71,41)"></path><path d="M0 0 C1.65 0 3.3 0 5 0 C5.33 2.31 5.66 4.62 6 7 C3.53199953 5.84826645 1.95216435 4.95216435 0 3 C0 2.01 0 1.02 0 0 Z " fill="#C6DC43" transform="translate(63,148)"></path><path d="M0 0 C0.66 0.33 1.32 0.66 2 1 C-3.96583144 9.6309795 -3.96583144 9.6309795 -9 12 C-7.55575365 8.76138697 -5.74227753 6.38030837 -3.375 3.75 C-2.74335938 3.04359375 -2.11171875 2.3371875 -1.4609375 1.609375 C-0.97882813 1.07828125 -0.49671875 0.5471875 0 0 Z " fill="#9FB51E" transform="translate(137,98)"></path><path d="M0 0 C0.99 0.33 1.98 0.66 3 1 C1.02 1.99 1.02 1.99 -1 3 C-0.67 2.01 -0.34 1.02 0 0 Z M-4 3 C-3.01 3.33 -2.02 3.66 -1 4 C-4.01887244 7.48331435 -6.56909529 8.79157144 -11 10 C-8.66666667 7.66666667 -6.33333333 5.33333333 -4 3 Z " fill="#809608" transform="translate(117,100)"></path><path d="M0 0 C0.66 0.33 1.32 0.66 2 1 C-1.15620815 4.42674028 -3.56324003 6.55805301 -8 8 C-8.928125 8.37125 -9.85625 8.7425 -10.8125 9.125 C-11.534375 9.41375 -12.25625 9.7025 -13 10 C-9.28249221 5.79759989 -4.68339021 3.00217321 0 0 Z " fill="#C6DB43" transform="translate(57,52)"></path><path d="M0 0 C0.66 0.99 1.32 1.98 2 3 C-0.64 6.3 -3.28 9.6 -6 13 C-6 9.32965255 -4.9247108 7.9000569 -3 4.8125 C-2.443125 3.91144531 -1.88625 3.01039062 -1.3125 2.08203125 C-0.6628125 1.05142578 -0.6628125 1.05142578 0 0 Z " fill="#899E0A" transform="translate(110,42)"></path><path d="M0 0 C0.680625 0.309375 1.36125 0.61875 2.0625 0.9375 C5.36965912 2.13370649 8.51545878 2.59005397 12 3 C11.01 3.495 11.01 3.495 10 4 C10 4.66 10 5.32 10 6 C8.68 6 7.36 6 6 6 C6 5.34 6 4.68 6 4 C4.02 3.34 2.04 2.68 0 2 C0 1.34 0 0.68 0 0 Z " fill="#C8DC43" transform="translate(26,114)"></path><path d="M0 0 C0 3.76339198 -1.06101287 4.72543245 -3.375 7.625 C-4.31472656 8.81996094 -4.31472656 8.81996094 -5.2734375 10.0390625 C-7 12 -7 12 -9 13 C-9 12.01 -9 11.02 -9 10 C-8.01 9.34 -7.02 8.68 -6 8 C-4.98133771 6.34467377 -3.98189187 4.67739862 -3 3 C-1.3125 1.1875 -1.3125 1.1875 0 0 Z " fill="#839808" transform="translate(102,55)"></path><path d="M0 0 C0.66 0.66 1.32 1.32 2 2 C0.88200014 3.33920838 -0.24461897 4.67122556 -1.375 6 C-2.00148438 6.7425 -2.62796875 7.485 -3.2734375 8.25 C-3.84320313 8.8275 -4.41296875 9.405 -5 10 C-5.66 10 -6.32 10 -7 10 C-7 8 -7 8 -4.625 5.5625 C-3.75875 4.716875 -2.8925 3.87125 -2 3 C-1.34 2.01 -0.68 1.02 0 0 Z M-8 10 C-7.67 10.66 -7.34 11.32 -7 12 C-7.66 12.66 -8.32 13.32 -9 14 C-8.67 12.68 -8.34 11.36 -8 10 Z " fill="#869A0A" transform="translate(86,35)"></path><path d="M0 0 C0.66 0 1.32 0 2 0 C2.5345256 1.24420647 3.05208611 2.49570936 3.5625 3.75 C3.85253906 4.44609375 4.14257812 5.1421875 4.44140625 5.859375 C5.07831803 8.30012784 4.80248831 9.6403655 4 12 C3.80664062 11.36191406 3.61328125 10.72382812 3.4140625 10.06640625 C3.15367187 9.24011719 2.89328125 8.41382812 2.625 7.5625 C2.36976563 6.73878906 2.11453125 5.91507812 1.8515625 5.06640625 C1.19117773 2.82201984 1.19117773 2.82201984 -1 2 C-0.67 1.34 -0.34 0.68 0 0 Z " fill="#B8CC3F" transform="translate(145,86)"></path><path d="M0 0 C0 3.97378549 -1.34753657 5.12649795 -4 8 C-6.25 9.3125 -6.25 9.3125 -8 10 C-8.66 9.34 -9.32 8.68 -10 8 C-9.36191406 7.50628906 -8.72382812 7.01257812 -8.06640625 6.50390625 C-7.24011719 5.86324219 -6.41382813 5.22257812 -5.5625 4.5625 C-4.73878906 3.92441406 -3.91507813 3.28632812 -3.06640625 2.62890625 C-1.12498733 1.16417803 -1.12498733 1.16417803 0 0 Z " fill="#CFE44B" transform="translate(54,30)"></path><path d="M0 0 C2.64 0 5.28 0 8 0 C9.125 4.75 9.125 4.75 8 7 C7.34 7 6.68 7 6 7 C5.67 5.35 5.34 3.7 5 2 C3.35 1.67 1.7 1.34 0 1 C0 0.67 0 0.34 0 0 Z " fill="#B2C72F" transform="translate(46,24)"></path><path d="M0 0 C0.99 0.33 1.98 0.66 3 1 C0.6875 3.5 0.6875 3.5 -2 6 C-2.99 6 -3.98 6 -5 6 C-3.86525052 2.59575156 -3.03188696 1.78346291 0 0 Z " fill="#CBDF49" transform="translate(43,21)"></path><path d="M0 0 C2.9502636 0.65561413 5.31635923 0.10006289 8.25 -0.5 C7.92 0.16 7.59 0.82 7.25 1.5 C4.74609375 2.1328125 4.74609375 2.1328125 1.6875 2.625 C0.16962891 2.87636719 0.16962891 2.87636719 -1.37890625 3.1328125 C-2.55259766 3.31457031 -2.55259766 3.31457031 -3.75 3.5 C-3.75 2.51 -3.75 1.52 -3.75 0.5 C-1.75 -0.5 -1.75 -0.5 0 0 Z " fill="#BED23F" transform="translate(60.75,129.5)"></path><path d="M0 0 C0.33 0.66 0.66 1.32 1 2 C0.109375 4.12890625 0.109375 4.12890625 -1.25 6.5625 C-1.68828125 7.36816406 -2.1265625 8.17382812 -2.578125 9.00390625 C-4 11 -4 11 -7 12 C-6.71125 11.443125 -6.4225 10.88625 -6.125 10.3125 C-4.9586747 7.91505355 -3.9660119 5.48403061 -3 3 C-2.34 3 -1.68 3 -1 3 C-0.67 2.01 -0.34 1.02 0 0 Z " fill="#9AAE18" transform="translate(143,108)"></path><path d="M0 0 C0.66 0.33 1.32 0.66 2 1 C-0.97 4.3 -3.94 7.6 -7 11 C-7.66 10.34 -8.32 9.68 -9 9 C-6 6 -3 3 0 0 Z " fill="#8DA00D" transform="translate(123,82)"></path><path d="M0 0 C0.66 0.66 1.32 1.32 2 2 C-0.64 3.65 -3.28 5.3 -6 7 C-6 4 -6 4 -4.6875 2.375 C-3 1 -3 1 0 0 Z " fill="#ADC12B" transform="translate(65,42)"></path><path d="M0 0 C0.66 0.33 1.32 0.66 2 1 C1.34 1.66 0.68 2.32 0 3 C0.33 3.66 0.66 4.32 1 5 C-0.8125 6.0625 -0.8125 6.0625 -3 7 C-3.99 6.67 -4.98 6.34 -6 6 C-4 4 -2 2 0 0 Z " fill="#ACC02A" transform="translate(67,102)"></path><path d="M0 0 C0.66 0.33 1.32 0.66 2 1 C2 1.99 2 2.98 2 4 C-0.64738916 5.4606285 -1.89448334 6 -5 6 C-3.63016497 2.83884224 -3.0109362 2.0072908 0 0 Z " fill="#C5DA42" transform="translate(50,83)"></path><path d="M0 0 C0.66 0.33 1.32 0.66 2 1 C-1.14285714 8.42857143 -1.14285714 8.42857143 -3 12 C-4.21386936 8.35839192 -3.6674695 7.66834531 -2.0625 4.3125 C-1.49208984 3.10013672 -1.49208984 3.10013672 -0.91015625 1.86328125 C-0.60980469 1.24839844 -0.30945313 0.63351563 0 0 Z " fill="#8DA30D" transform="translate(91,23)"></path><path d="M0 0 C0 3.29223784 -0.50518132 5.08510357 -2 8 C-4.078125 9.15234375 -4.078125 9.15234375 -6 10 C-5.18957164 8.51969728 -4.37659652 7.04078858 -3.5625 5.5625 C-2.88380859 4.32693359 -2.88380859 4.32693359 -2.19140625 3.06640625 C-1 1 -1 1 0 0 Z " fill="#A9BD27" transform="translate(59,30)"></path><path d="M0 0 C0.66 0.33 1.32 0.66 2 1 C2 1.66 2 2.32 2 3 C0.1875 4.0625 0.1875 4.0625 -2 5 C-2.99 4.67 -3.98 4.34 -5 4 C-3.35 2.68 -1.7 1.36 0 0 Z " fill="#7E9204" transform="translate(85,136)"></path><path d="M0 0 C0.99 0.33 1.98 0.66 3 1 C0.75 3.5625 0.75 3.5625 -2 6 C-4.3125 5.8125 -4.3125 5.8125 -6 5 C-5.38125 4.731875 -4.7625 4.46375 -4.125 4.1875 C-1.7004767 3.04443152 -1.7004767 3.04443152 0 0 Z " fill="#B9CE37" transform="translate(72,70)"></path><path d="M0 0 C0.99 0.33 1.98 0.66 3 1 C1.68 1.33 0.36 1.66 -1 2 C-1 2.66 -1 3.32 -1 4 C-0.01 4.33 0.98 4.66 2 5 C-0.31 5.33 -2.62 5.66 -5 6 C-3.63016497 2.83884224 -3.0109362 2.0072908 0 0 Z " fill="#ABC132" transform="translate(61,145)"></path><path d="M0 0 C-1.11666174 3.34998521 -1.74694925 3.79340222 -4.5625 5.6875 C-5.20316406 6.12449219 -5.84382813 6.56148437 -6.50390625 7.01171875 C-6.99761719 7.33785156 -7.49132812 7.66398437 -8 8 C-7.40137646 4.79837298 -7.08735442 4.08063485 -4.5625 1.75 C-2 0 -2 0 0 0 Z " fill="#E0F262" transform="translate(33,29)"></path><path d="M0 0 C0.66 0.33 1.32 0.66 2 1 C0.02 3.31 -1.96 5.62 -4 8 C-4.99 7.67 -5.98 7.34 -7 7 C-4.66666667 4.66666667 -2.33333333 2.33333333 0 0 Z " fill="#B2C632" transform="translate(76,122)"></path><path d="M0 0 C0 0.66 0 1.32 0 2 C-5.75 5 -5.75 5 -8 5 C-7 2 -7 2 -5.125 0.8125 C-3 0 -3 0 0 0 Z " fill="#B4C731" transform="translate(56,123)"></path><path d="M0 0 C0.33 0 0.66 0 1 0 C1.08096803 1.45742463 1.13917774 2.91612807 1.1875 4.375 C1.22230469 5.18710938 1.25710937 5.99921875 1.29296875 6.8359375 C1.19628906 7.55007812 1.09960938 8.26421875 1 9 C0.01 9.66 -0.98 10.32 -2 11 C-1.34 7.37 -0.68 3.74 0 0 Z " fill="#A3B620" transform="translate(146,97)"></path></svg>