<svg xmlns="http://www.w3.org/2000/svg" width="500" height="647"><path d="M0 0 C1.74289307 0.00132935 1.74289307 0.00132935 3.52099609 0.00268555 C11.87990872 0.11824385 18.65938542 1.02716723 26.375 4.375 C27.97736243 4.96327131 29.58132505 5.54721934 31.1875 6.125 C32.7653125 6.74375 32.7653125 6.74375 34.375 7.375 C34.375 8.035 34.375 8.695 34.375 9.375 C35.055625 9.4575 35.73625 9.54 36.4375 9.625 C40.2496907 10.59832528 43.01570329 12.33307455 46.375 14.375 C46.375 15.035 46.375 15.695 46.375 16.375 C47.08914063 16.61734375 47.80328125 16.8596875 48.5390625 17.109375 C51.77065032 18.55157122 54.04583541 20.34699315 56.75 22.625 C57.70261719 23.42550781 58.65523438 24.22601563 59.63671875 25.05078125 C60.99216797 26.20126953 60.99216797 26.20126953 62.375 27.375 C63.12394531 27.98730469 63.87289063 28.59960938 64.64453125 29.23046875 C66.26176839 30.56444236 67.82534023 31.96308777 69.375 33.375 C69.375 34.035 69.375 34.695 69.375 35.375 C70.24898438 35.74625 70.24898438 35.74625 71.140625 36.125 C73.70614236 37.56025446 75.21224798 39.15163013 77.125 41.375 C77.73859375 42.07625 78.3521875 42.7775 78.984375 43.5 C80.375 45.375 80.375 45.375 80.375 47.375 C81.035 47.375 81.695 47.375 82.375 47.375 C82.375 48.365 82.375 49.355 82.375 50.375 C82.973125 50.601875 83.57125 50.82875 84.1875 51.0625 C86.98682034 52.74209221 87.74098729 54.55732442 89.375 57.375 C90.6415185 59.2113168 91.91265531 61.04445377 93.1875 62.875 C97.35502134 69.09575072 100.38779973 75.53004395 103.375 82.375 C103.80554688 83.24382812 104.23609375 84.11265625 104.6796875 85.0078125 C108.82372479 93.42458388 111.10368431 102.31209272 113.375 111.375 C113.601875 112.26960938 113.82875 113.16421875 114.0625 114.0859375 C119.42310448 137.95737931 118.77023049 163.80739134 112.375 187.375 C112.0759375 188.52484375 111.776875 189.6746875 111.46875 190.859375 C109.358908 198.65217851 106.66802856 206.0061738 103.375 213.375 C102.715 213.375 102.055 213.375 101.375 213.375 C101.21064453 214.69564453 101.21064453 214.69564453 101.04296875 216.04296875 C99.47334665 223.87272107 94.22754334 230.85369347 89.7578125 237.359375 C88.49980413 239.19308212 87.31123408 241.05709932 86.125 242.9375 C85.5475 243.741875 84.97 244.54625 84.375 245.375 C83.715 245.375 83.055 245.375 82.375 245.375 C82.189375 246.035 82.00375 246.695 81.8125 247.375 C79.76691226 251.64405268 76.80315357 255.11663706 73.375 258.375 C72.715 258.375 72.055 258.375 71.375 258.375 C71.375 259.035 71.375 259.695 71.375 260.375 C69.87109375 261.890625 69.87109375 261.890625 67.8125 263.625 C67.08675781 264.23988281 66.36101562 264.85476563 65.61328125 265.48828125 C64.87464844 266.11089844 64.13601563 266.73351562 63.375 267.375 C62.70855469 267.96667969 62.04210937 268.55835938 61.35546875 269.16796875 C60.74316406 269.71066406 60.13085938 270.25335938 59.5 270.8125 C58.94570313 271.30621094 58.39140625 271.79992187 57.8203125 272.30859375 C56.375 273.375 56.375 273.375 54.375 273.375 C54.375 274.035 54.375 274.695 54.375 275.375 C49.99038462 278.375 49.99038462 278.375 47.375 278.375 C47.045 279.365 46.715 280.355 46.375 281.375 C42.92444348 283.72859891 39.09276035 285.4799217 35.375 287.375 C34.14405422 288.02644316 32.91360181 288.67881928 31.68359375 289.33203125 C22.77873827 293.99450559 13.76790528 297.67225889 4.2109375 300.77734375 C2.62483451 301.29367089 1.04601844 301.83228398 -0.53125 302.375 C-5.84168083 304.12273673 -10.8914663 304.83529675 -16.47265625 305.1640625 C-18.60470704 305.14311816 -18.60470704 305.14311816 -19.625 306.375 C-27.24154674 307.53248647 -34.94155897 307.49568232 -42.625 307.375 C-42.73972656 308.39335937 -42.85445312 309.41171875 -42.97265625 310.4609375 C-45.28531063 324.33686381 -53.52537611 337.8481463 -59.625 350.375 C-60.285 350.375 -60.945 350.375 -61.625 350.375 C-61.72039062 350.91125 -61.81578125 351.4475 -61.9140625 352 C-62.84177448 355.09916971 -64.35201328 357.59358781 -66 360.375 C-66.60585938 361.40625 -67.21171875 362.4375 -67.8359375 363.5 C-70.78004386 368.23114035 -70.78004386 368.23114035 -72.625 370.375 C-73.285 370.375 -73.945 370.375 -74.625 370.375 C-74.80724121 371.26360718 -74.80724121 371.26360718 -74.99316406 372.17016602 C-75.99912208 375.68052414 -78.24945725 378.3975577 -80.375 381.3125 C-81.02082031 382.22418945 -81.02082031 382.22418945 -81.6796875 383.15429688 C-84.38548124 386.90919328 -87.28833627 390.14863921 -90.625 393.375 C-91.6614496 394.56996542 -92.68476434 395.77660663 -93.6875 397 C-95.80416131 399.49755152 -97.79770196 401.65842619 -100.625 403.375 C-101.285 403.375 -101.945 403.375 -102.625 403.375 C-102.893125 404.014375 -103.16125 404.65375 -103.4375 405.3125 C-104.625 407.375 -104.625 407.375 -107.625 408.375 C-107.955 409.365 -108.285 410.355 -108.625 411.375 C-110.18359375 412.76171875 -110.18359375 412.76171875 -112.0625 414.0625 C-112.67996094 414.49949219 -113.29742187 414.93648437 -113.93359375 415.38671875 C-115.625 416.375 -115.625 416.375 -117.625 416.375 C-117.625 417.035 -117.625 417.695 -117.625 418.375 C-122.51668954 422.38695882 -127.87884306 425.74134474 -133.625 428.375 C-135.27226186 429.20550598 -136.91795543 430.03912622 -138.5625 430.875 C-160.23729449 441.8709933 -181.13686999 443.15224678 -204.625 438.375 C-204.625 437.715 -204.625 437.055 -204.625 436.375 C-205.32625 436.43558594 -206.0275 436.49617188 -206.75 436.55859375 C-219.4244107 435.74922241 -236.86792295 420.61811768 -245.625 412.375 C-245.625 411.715 -245.625 411.055 -245.625 410.375 C-246.2128125 410.11332031 -246.800625 409.85164063 -247.40625 409.58203125 C-252.72293359 406.6896805 -257.14922185 401.24108941 -260.625 396.375 C-260.625 395.715 -260.625 395.055 -260.625 394.375 C-261.285 394.375 -261.945 394.375 -262.625 394.375 C-263.89013672 392.92553711 -263.89013672 392.92553711 -265.3046875 390.90234375 C-265.82160156 390.16693359 -266.33851563 389.43152344 -266.87109375 388.67382812 C-267.40863281 387.89458984 -267.94617188 387.11535156 -268.5 386.3125 C-269.02980469 385.56033203 -269.55960938 384.80816406 -270.10546875 384.03320312 C-278.625 371.8246937 -278.625 371.8246937 -278.625 367.375 C-279.285 367.375 -279.945 367.375 -280.625 367.375 C-283.625 360.875 -283.625 360.875 -283.625 356.375 C-284.285 356.375 -284.945 356.375 -285.625 356.375 C-287.81579549 350.7662624 -289.77676325 345.10551761 -291.625 339.375 C-291.88071777 338.60365723 -292.13643555 337.83231445 -292.39990234 337.03759766 C-300.82592805 310.38589407 -300.3393368 274.8683923 -291.625 248.375 C-291.37911133 247.58867187 -291.13322266 246.80234375 -290.87988281 245.9921875 C-288.0998199 237.18320384 -284.67891215 228.6801386 -280.625 220.375 C-279.965 220.375 -279.305 220.375 -278.625 220.375 C-278.56183594 219.72144531 -278.49867188 219.06789063 -278.43359375 218.39453125 C-277.28823106 214.11740391 -275.05268365 210.77447827 -272.6875 207.0625 C-272.00397461 205.95165039 -272.00397461 205.95165039 -271.30664062 204.81835938 C-268.75660599 200.76742588 -268.75660599 200.76742588 -267.625 199.375 C-266.965 199.375 -266.305 199.375 -265.625 199.375 C-265.38394531 198.653125 -265.14289063 197.93125 -264.89453125 197.1875 C-263.44953626 193.98628033 -261.69988504 191.94294357 -259.3125 189.375 C-258.55324219 188.55 -257.79398438 187.725 -257.01171875 186.875 C-252.4979953 182.14704091 -247.82656249 177.59850402 -243.0625 173.125 C-242.21655273 172.31289063 -242.21655273 172.31289063 -241.35351562 171.484375 C-237.06607636 167.47273593 -237.06607636 167.47273593 -234.49633789 166.90332031 C-233.87879639 166.72897461 -233.26125488 166.55462891 -232.625 166.375 C-232.295 165.385 -231.965 164.395 -231.625 163.375 C-229.00095428 161.55423358 -226.38972742 159.96609669 -223.625 158.375 C-222.46088399 157.68238159 -221.29682591 156.98966582 -220.1328125 156.296875 C-194.81381536 141.42581595 -168.75388869 135.75484278 -139.625 133.375 C-139.31796143 132.60945801 -139.01092285 131.84391602 -138.69458008 131.05517578 C-137.53304878 128.16498052 -136.36771895 125.27635237 -135.19995117 122.38867188 C-134.4553113 120.54412046 -133.71490772 118.69786065 -132.97460938 116.8515625 C-130.14404262 109.86063253 -127.13678751 103.0515414 -123.625 96.375 C-122.965 96.375 -122.305 96.375 -121.625 96.375 C-121.5425 95.715 -121.46 95.055 -121.375 94.375 C-120.37740209 90.38460837 -118.55333317 86.98950357 -116.625 83.375 C-115.965 83.375 -115.305 83.375 -114.625 83.375 C-114.191875 81.9828125 -114.191875 81.9828125 -113.75 80.5625 C-112.625 77.375 -112.625 77.375 -110.625 74.375 C-109.965 74.375 -109.305 74.375 -108.625 74.375 C-108.50125 73.776875 -108.3775 73.17875 -108.25 72.5625 C-107.625 70.375 -107.625 70.375 -105.625 67.375 C-104.965 67.375 -104.305 67.375 -103.625 67.375 C-103.625 66.385 -103.625 65.395 -103.625 64.375 C-102.965 64.375 -102.305 64.375 -101.625 64.375 C-101.5425 63.818125 -101.46 63.26125 -101.375 62.6875 C-99.71686286 57.5749105 -95.33457541 54.08457541 -91.625 50.375 C-90.55549426 49.1519242 -89.49363661 47.92213857 -88.4375 46.6875 C-85.52871701 43.34495112 -82.52512079 40.11593317 -79.4375 36.9375 C-78.61894531 36.09316406 -77.80039062 35.24882812 -76.95703125 34.37890625 C-74.625 32.375 -74.625 32.375 -72.44921875 31.83984375 C-71.84722656 31.68644531 -71.24523437 31.53304687 -70.625 31.375 C-69.93184919 30.05524086 -69.26800219 28.71990535 -68.625 27.375 C-66.6640625 25.734375 -66.6640625 25.734375 -64.25 24.125 C-62.90615234 23.22394531 -62.90615234 23.22394531 -61.53515625 22.3046875 C-60.57480469 21.66789062 -59.61445313 21.03109375 -58.625 20.375 C-57.65433594 19.69695312 -56.68367187 19.01890625 -55.68359375 18.3203125 C-44.34186574 10.48313409 -32.72660896 6.21652115 -19.625 2.375 C-18.04332031 1.82005859 -18.04332031 1.82005859 -16.4296875 1.25390625 C-10.94855867 -0.01226827 -5.60887812 -0.00760011 0 0 Z " fill="#99AC1D" transform="translate(353.625,146.625)"></path><path d="M0 0 C1.74289307 0.00132935 1.74289307 0.00132935 3.52099609 0.00268555 C11.87990872 0.11824385 18.65938542 1.02716723 26.375 4.375 C27.97736243 4.96327131 29.58132505 5.54721934 31.1875 6.125 C32.7653125 6.74375 32.7653125 6.74375 34.375 7.375 C34.375 8.035 34.375 8.695 34.375 9.375 C35.055625 9.4575 35.73625 9.54 36.4375 9.625 C40.2496907 10.59832528 43.01570329 12.33307455 46.375 14.375 C46.375 15.035 46.375 15.695 46.375 16.375 C47.08914063 16.61734375 47.80328125 16.8596875 48.5390625 17.109375 C51.77065032 18.55157122 54.04583541 20.34699315 56.75 22.625 C57.70261719 23.42550781 58.65523438 24.22601563 59.63671875 25.05078125 C60.99216797 26.20126953 60.99216797 26.20126953 62.375 27.375 C63.12394531 27.98730469 63.87289063 28.59960938 64.64453125 29.23046875 C66.26176839 30.56444236 67.82534023 31.96308777 69.375 33.375 C69.375 34.035 69.375 34.695 69.375 35.375 C70.24898438 35.74625 70.24898438 35.74625 71.140625 36.125 C73.70614236 37.56025446 75.21224798 39.15163013 77.125 41.375 C77.73859375 42.07625 78.3521875 42.7775 78.984375 43.5 C80.375 45.375 80.375 45.375 80.375 47.375 C81.035 47.375 81.695 47.375 82.375 47.375 C82.375 48.365 82.375 49.355 82.375 50.375 C82.973125 50.601875 83.57125 50.82875 84.1875 51.0625 C86.98682034 52.74209221 87.74098729 54.55732442 89.375 57.375 C90.6415185 59.2113168 91.91265531 61.04445377 93.1875 62.875 C97.35502134 69.09575072 100.38779973 75.53004395 103.375 82.375 C103.80554688 83.24382812 104.23609375 84.11265625 104.6796875 85.0078125 C108.82372479 93.42458388 111.10368431 102.31209272 113.375 111.375 C113.601875 112.26960938 113.82875 113.16421875 114.0625 114.0859375 C119.42310448 137.95737931 118.77023049 163.80739134 112.375 187.375 C112.0759375 188.52484375 111.776875 189.6746875 111.46875 190.859375 C109.358908 198.65217851 106.66802856 206.0061738 103.375 213.375 C102.715 213.375 102.055 213.375 101.375 213.375 C101.21064453 214.69564453 101.21064453 214.69564453 101.04296875 216.04296875 C99.47334665 223.87272107 94.22754334 230.85369347 89.7578125 237.359375 C88.49980413 239.19308212 87.31123408 241.05709932 86.125 242.9375 C85.5475 243.741875 84.97 244.54625 84.375 245.375 C83.715 245.375 83.055 245.375 82.375 245.375 C82.189375 246.035 82.00375 246.695 81.8125 247.375 C79.76691226 251.64405268 76.80315357 255.11663706 73.375 258.375 C72.715 258.375 72.055 258.375 71.375 258.375 C71.375 259.035 71.375 259.695 71.375 260.375 C69.87109375 261.890625 69.87109375 261.890625 67.8125 263.625 C67.08675781 264.23988281 66.36101562 264.85476563 65.61328125 265.48828125 C64.87464844 266.11089844 64.13601563 266.73351562 63.375 267.375 C62.70855469 267.96667969 62.04210937 268.55835938 61.35546875 269.16796875 C60.74316406 269.71066406 60.13085938 270.25335938 59.5 270.8125 C58.94570313 271.30621094 58.39140625 271.79992187 57.8203125 272.30859375 C56.375 273.375 56.375 273.375 54.375 273.375 C54.375 274.035 54.375 274.695 54.375 275.375 C49.99038462 278.375 49.99038462 278.375 47.375 278.375 C47.045 279.365 46.715 280.355 46.375 281.375 C42.92444348 283.72859891 39.09276035 285.4799217 35.375 287.375 C34.14405422 288.02644316 32.91360181 288.67881928 31.68359375 289.33203125 C22.77873827 293.99450559 13.76790528 297.67225889 4.2109375 300.77734375 C2.62483451 301.29367089 1.04601844 301.83228398 -0.53125 302.375 C-5.84168083 304.12273673 -10.8914663 304.83529675 -16.47265625 305.1640625 C-18.60470704 305.14311816 -18.60470704 305.14311816 -19.625 306.375 C-26.91583385 307.46458956 -34.2705037 307.50302798 -41.625 307.375 C-43.01601829 302.9669635 -41.73991596 299.68106451 -40.3125 295.4375 C-40.08626953 294.73431641 -39.86003906 294.03113281 -39.62695312 293.30664062 C-38.98130501 291.32131918 -38.30768442 289.34783783 -37.625 287.375 C-37.30144531 286.40433594 -36.97789062 285.43367188 -36.64453125 284.43359375 C-36.30808594 283.75425781 -35.97164063 283.07492187 -35.625 282.375 C-34.635 282.045 -33.645 281.715 -32.625 281.375 C-31.965 280.385 -31.305 279.395 -30.625 278.375 C-31.945 278.045 -33.265 277.715 -34.625 277.375 C-34.78999531 273.41511265 -34.66319038 270.52067476 -33.64746094 266.64624023 C-32.54648752 262.41711295 -32.24877355 258.3909459 -32.140625 254.03515625 C-32.1165155 253.26876328 -32.09240601 252.5023703 -32.06756592 251.7127533 C-32.0196122 250.10363152 -31.97615002 248.49437008 -31.93701172 246.88500977 C-31.875234 244.44673576 -31.79200825 242.00982841 -31.70703125 239.57226562 C-31.47766707 231.93516138 -31.31005339 224.74760169 -33.625 217.375 C-33.955 217.045 -34.285 216.715 -34.625 216.375 C-34.604375 215.364375 -34.58375 214.35375 -34.5625 213.3125 C-34.62085904 209.63588034 -35.15562419 206.88943355 -36.1328125 203.40234375 C-36.625 201.375 -36.625 201.375 -36.9375 197.5 C-37.39691488 192.95990001 -39.45898785 189.41158522 -41.6640625 185.4765625 C-41.98117187 184.78304687 -42.29828125 184.08953125 -42.625 183.375 C-42.295 182.715 -41.965 182.055 -41.625 181.375 C-42.285 181.375 -42.945 181.375 -43.625 181.375 C-43.625 180.715 -43.625 180.055 -43.625 179.375 C-44.285 179.375 -44.945 179.375 -45.625 179.375 C-47.92148649 176.8135343 -48.625 175.89532428 -48.625 172.375 C-49.285 172.375 -49.945 172.375 -50.625 172.375 C-51.8515625 170.87109375 -51.8515625 170.87109375 -53.25 168.8125 C-57.21217162 163.33165817 -62.01252028 159.11665315 -67.625 155.375 C-67.625 154.715 -67.625 154.055 -67.625 153.375 C-68.800625 153.00375 -68.800625 153.00375 -70 152.625 C-75.62634105 150.68488239 -81.13713181 148.46795529 -86.5859375 146.07421875 C-98.88267589 140.71612837 -111.24146727 139.08405364 -124.625 139.375 C-125.285 139.375 -125.945 139.375 -126.625 139.375 C-126.955 140.035 -127.285 140.695 -127.625 141.375 C-132.575 141.375 -137.525 141.375 -142.625 141.375 C-142.955 140.385 -143.285 139.395 -143.625 138.375 C-144.285 139.365 -144.945 140.355 -145.625 141.375 C-149.625 141.375 -149.625 141.375 -152.625 140.25 C-155.50252016 139.08282263 -155.50252016 139.08282263 -157.75 140.1875 C-158.678125 140.7753125 -158.678125 140.7753125 -159.625 141.375 C-162.6997749 142.39992497 -163.41215118 142.44594961 -166.625 141.375 C-167.32625 141.849375 -168.0275 142.32375 -168.75 142.8125 C-172.25694064 144.718446 -174.54001197 144.54885534 -178.44140625 144.28515625 C-181.00817425 144.39076567 -182.46336558 145.01049758 -184.625 146.375 C-185.89304566 148.4085948 -185.89304566 148.4085948 -186.625 150.375 C-188.11 149.385 -188.11 149.385 -189.625 148.375 C-193.70626087 149.70925836 -196.74200392 151.38655933 -200.125 154 C-202.75709976 155.99596035 -203.47965832 156.36403082 -206.9375 156.625 C-212.03116316 157.66099929 -214.3883743 160.49310932 -218.0703125 164.03515625 C-220.41136538 166.17933159 -222.68672909 167.83001352 -225.375 169.5 C-229.04312951 171.82723155 -231.54804582 174.32978679 -234.22265625 177.73046875 C-235.625 179.375 -235.625 179.375 -238.75 181.75 C-241.55922833 184.31494761 -242.23376308 185.4256344 -243.5625 188.8125 C-245.93901575 194.77359368 -250.1006463 197.63199387 -255.25 201.1875 C-258.70283821 204.36774572 -260.53740723 208.21446423 -262.625 212.375 C-263.00269531 213.0659375 -263.38039063 213.756875 -263.76953125 214.46875 C-264.82971582 216.48293613 -264.82971582 216.48293613 -264.625 219.375 C-266.29166667 221.04166667 -267.95833333 222.70833333 -269.625 224.375 C-271.34983265 227.426627 -272.68926837 230.52589095 -274.0625 233.75 C-275.19831582 236.38509271 -276.37870243 238.89261583 -277.6875 241.4375 C-280.72074245 247.48091842 -282.04392455 253.32725688 -283.0625 259.984375 C-283.625 262.375 -283.625 262.375 -285.625 264.375 C-285.97041851 266.70657492 -286.30294257 269.04008361 -286.625 271.375 C-286.955 271.94863281 -287.285 272.52226562 -287.625 273.11328125 C-289.07239745 276.3868872 -289.01138081 279.66451617 -289.125 283.1875 C-289.37250615 288.76709777 -289.80629169 294.21769899 -290.625 299.75 C-291.90298005 308.59095154 -292.26019327 317.45643551 -292.625 326.375 C-293.285 326.375 -293.945 326.375 -294.625 326.375 C-296.18106769 319.64587568 -296.95119553 313.26350282 -296.99609375 306.36328125 C-297.00720688 305.4402269 -297.01832001 304.51717255 -297.0297699 303.56614685 C-297.05664922 300.60642079 -297.06315947 297.64734257 -297.0625 294.6875 C-297.0635675 293.67844604 -297.06463501 292.66939209 -297.06573486 291.62976074 C-297.04274892 276.62322424 -296.34877673 262.73626156 -291.625 248.375 C-291.37911133 247.58867187 -291.13322266 246.80234375 -290.87988281 245.9921875 C-288.0998199 237.18320384 -284.67891215 228.6801386 -280.625 220.375 C-279.965 220.375 -279.305 220.375 -278.625 220.375 C-278.56183594 219.72144531 -278.49867188 219.06789063 -278.43359375 218.39453125 C-277.28823106 214.11740391 -275.05268365 210.77447827 -272.6875 207.0625 C-272.00397461 205.95165039 -272.00397461 205.95165039 -271.30664062 204.81835938 C-268.75660599 200.76742588 -268.75660599 200.76742588 -267.625 199.375 C-266.965 199.375 -266.305 199.375 -265.625 199.375 C-265.38394531 198.653125 -265.14289063 197.93125 -264.89453125 197.1875 C-263.44953626 193.98628033 -261.69988504 191.94294357 -259.3125 189.375 C-258.55324219 188.55 -257.79398438 187.725 -257.01171875 186.875 C-252.4979953 182.14704091 -247.82656249 177.59850402 -243.0625 173.125 C-242.21655273 172.31289063 -242.21655273 172.31289063 -241.35351562 171.484375 C-237.06607636 167.47273593 -237.06607636 167.47273593 -234.49633789 166.90332031 C-233.87879639 166.72897461 -233.26125488 166.55462891 -232.625 166.375 C-232.295 165.385 -231.965 164.395 -231.625 163.375 C-229.00095428 161.55423358 -226.38972742 159.96609669 -223.625 158.375 C-222.46088399 157.68238159 -221.29682591 156.98966582 -220.1328125 156.296875 C-194.81381536 141.42581595 -168.75388869 135.75484278 -139.625 133.375 C-139.31796143 132.60945801 -139.01092285 131.84391602 -138.69458008 131.05517578 C-137.53304878 128.16498052 -136.36771895 125.27635237 -135.19995117 122.38867188 C-134.4553113 120.54412046 -133.71490772 118.69786065 -132.97460938 116.8515625 C-130.14404262 109.86063253 -127.13678751 103.0515414 -123.625 96.375 C-122.965 96.375 -122.305 96.375 -121.625 96.375 C-121.5425 95.715 -121.46 95.055 -121.375 94.375 C-120.37740209 90.38460837 -118.55333317 86.98950357 -116.625 83.375 C-115.965 83.375 -115.305 83.375 -114.625 83.375 C-114.191875 81.9828125 -114.191875 81.9828125 -113.75 80.5625 C-112.625 77.375 -112.625 77.375 -110.625 74.375 C-109.965 74.375 -109.305 74.375 -108.625 74.375 C-108.50125 73.776875 -108.3775 73.17875 -108.25 72.5625 C-107.625 70.375 -107.625 70.375 -105.625 67.375 C-104.965 67.375 -104.305 67.375 -103.625 67.375 C-103.625 66.385 -103.625 65.395 -103.625 64.375 C-102.965 64.375 -102.305 64.375 -101.625 64.375 C-101.5425 63.818125 -101.46 63.26125 -101.375 62.6875 C-99.71686286 57.5749105 -95.33457541 54.08457541 -91.625 50.375 C-90.55549426 49.1519242 -89.49363661 47.92213857 -88.4375 46.6875 C-85.52871701 43.34495112 -82.52512079 40.11593317 -79.4375 36.9375 C-78.61894531 36.09316406 -77.80039062 35.24882812 -76.95703125 34.37890625 C-74.625 32.375 -74.625 32.375 -72.44921875 31.83984375 C-71.84722656 31.68644531 -71.24523437 31.53304687 -70.625 31.375 C-69.93184919 30.05524086 -69.26800219 28.71990535 -68.625 27.375 C-66.6640625 25.734375 -66.6640625 25.734375 -64.25 24.125 C-62.90615234 23.22394531 -62.90615234 23.22394531 -61.53515625 22.3046875 C-60.57480469 21.66789062 -59.61445313 21.03109375 -58.625 20.375 C-57.65433594 19.69695312 -56.68367187 19.01890625 -55.68359375 18.3203125 C-44.34186574 10.48313409 -32.72660896 6.21652115 -19.625 2.375 C-18.04332031 1.82005859 -18.04332031 1.82005859 -16.4296875 1.25390625 C-10.94855867 -0.01226827 -5.60887812 -0.00760011 0 0 Z " fill="#A4B629" transform="translate(353.625,146.625)"></path><path d="M0 0 C-2.777112 1.4579838 -5.51991211 2.58784797 -8.5 3.5625 C-9.62921875 3.93568359 -9.62921875 3.93568359 -10.78125 4.31640625 C-12.84184972 4.95127412 -14.90315904 5.4996175 -17 6 C-17 6.66 -17 7.32 -17 8 C-17.60328125 8.04898437 -18.2065625 8.09796875 -18.828125 8.1484375 C-19.62734375 8.22320312 -20.4265625 8.29796875 -21.25 8.375 C-22.03890625 8.44460938 -22.8278125 8.51421875 -23.640625 8.5859375 C-26.12420279 9.02179718 -27.85610211 9.68357147 -30 11 C-31.26804566 13.0335948 -31.26804566 13.0335948 -32 15 C-32.99 14.34 -33.98 13.68 -35 13 C-39.08126087 14.33425836 -42.11700392 16.01155933 -45.5 18.625 C-48.13209976 20.62096035 -48.85465832 20.98903082 -52.3125 21.25 C-57.40616316 22.28599929 -59.7633743 25.11810932 -63.4453125 28.66015625 C-65.78636538 30.80433159 -68.06172909 32.45501352 -70.75 34.125 C-74.41812951 36.45223155 -76.92304582 38.95478679 -79.59765625 42.35546875 C-81 44 -81 44 -84.125 46.375 C-86.93422833 48.93994761 -87.60876308 50.0506344 -88.9375 53.4375 C-91.31401575 59.39859368 -95.4756463 62.25699387 -100.625 65.8125 C-104.07783821 68.99274572 -105.91240723 72.83946423 -108 77 C-108.37769531 77.6909375 -108.75539062 78.381875 -109.14453125 79.09375 C-110.20471582 81.10793613 -110.20471582 81.10793613 -110 84 C-111.66666667 85.66666667 -113.33333333 87.33333333 -115 89 C-116.72483265 92.051627 -118.06426837 95.15089095 -119.4375 98.375 C-120.57331582 101.01009271 -121.75370243 103.51761583 -123.0625 106.0625 C-126.09574245 112.10591842 -127.41892455 117.95225688 -128.4375 124.609375 C-129 127 -129 127 -131 129 C-131.34541851 131.33157492 -131.67794257 133.66508361 -132 136 C-132.495 136.86044922 -132.495 136.86044922 -133 137.73828125 C-134.44739745 141.0118872 -134.38638081 144.28951617 -134.5 147.8125 C-134.74750615 153.39209777 -135.18129169 158.84269899 -136 164.375 C-137.27798005 173.21595154 -137.63519327 182.08143551 -138 191 C-138.66 191 -139.32 191 -140 191 C-141.55606769 184.27087568 -142.32619553 177.88850282 -142.37109375 170.98828125 C-142.38220688 170.0652269 -142.39332001 169.14217255 -142.4047699 168.19114685 C-142.43164922 165.23142079 -142.43815947 162.27234257 -142.4375 159.3125 C-142.4385675 158.30344604 -142.43963501 157.29439209 -142.44073486 156.25476074 C-142.41774892 141.24822424 -141.72377673 127.36126156 -137 113 C-136.63116699 111.82050781 -136.63116699 111.82050781 -136.25488281 110.6171875 C-133.4748199 101.80820384 -130.05391215 93.3051386 -126 85 C-125.34 85 -124.68 85 -124 85 C-123.93683594 84.34644531 -123.87367187 83.69289063 -123.80859375 83.01953125 C-122.66323106 78.74240391 -120.42768365 75.39947827 -118.0625 71.6875 C-117.37897461 70.57665039 -117.37897461 70.57665039 -116.68164062 69.44335938 C-114.13160599 65.39242588 -114.13160599 65.39242588 -113 64 C-112.34 64 -111.68 64 -111 64 C-110.75894531 63.278125 -110.51789063 62.55625 -110.26953125 61.8125 C-108.82453626 58.61128033 -107.07488504 56.56794357 -104.6875 54 C-103.92824219 53.175 -103.16898438 52.35 -102.38671875 51.5 C-97.8729953 46.77204091 -93.20156249 42.22350402 -88.4375 37.75 C-87.87353516 37.20859375 -87.30957031 36.6671875 -86.72851562 36.109375 C-82.44107636 32.09773593 -82.44107636 32.09773593 -79.87133789 31.52832031 C-79.25379639 31.35397461 -78.63625488 31.17962891 -78 31 C-77.505 29.515 -77.505 29.515 -77 28 C-74.37595428 26.17923358 -71.76472742 24.59109669 -69 23 C-67.83588399 22.30738159 -66.67182591 21.61466582 -65.5078125 20.921875 C-46.3423455 9.66507878 -22.65734178 -0.70804193 0 0 Z " fill="#F7FDB1" transform="translate(199,282)"></path><path d="M0 0 C-2.777112 1.4579838 -5.51991211 2.58784797 -8.5 3.5625 C-9.62921875 3.93568359 -9.62921875 3.93568359 -10.78125 4.31640625 C-12.84184972 4.95127412 -14.90315904 5.4996175 -17 6 C-17 6.66 -17 7.32 -17 8 C-17.60328125 8.04898437 -18.2065625 8.09796875 -18.828125 8.1484375 C-19.62734375 8.22320312 -20.4265625 8.29796875 -21.25 8.375 C-22.03890625 8.44460938 -22.8278125 8.51421875 -23.640625 8.5859375 C-26.12420279 9.02179718 -27.85610211 9.68357147 -30 11 C-31.26804566 13.0335948 -31.26804566 13.0335948 -32 15 C-32.99 14.34 -33.98 13.68 -35 13 C-39.08126087 14.33425836 -42.11700392 16.01155933 -45.5 18.625 C-48.13209976 20.62096035 -48.85465832 20.98903082 -52.3125 21.25 C-57.40616316 22.28599929 -59.7633743 25.11810932 -63.4453125 28.66015625 C-65.78636538 30.80433159 -68.06172909 32.45501352 -70.75 34.125 C-74.41812951 36.45223155 -76.92304582 38.95478679 -79.59765625 42.35546875 C-81 44 -81 44 -84.125 46.375 C-86.93422833 48.93994761 -87.60876308 50.0506344 -88.9375 53.4375 C-91.31401575 59.39859368 -95.4756463 62.25699387 -100.625 65.8125 C-104.07783821 68.99274572 -105.91240723 72.83946423 -108 77 C-108.37769531 77.6909375 -108.75539063 78.381875 -109.14453125 79.09375 C-110.20471582 81.10793613 -110.20471582 81.10793613 -110 84 C-111.66666667 85.66666667 -113.33333333 87.33333333 -115 89 C-116.72483265 92.051627 -118.06426837 95.15089095 -119.4375 98.375 C-120.57331582 101.01009271 -121.75370243 103.51761583 -123.0625 106.0625 C-126.09574245 112.10591842 -127.41892455 117.95225688 -128.4375 124.609375 C-129 127 -129 127 -131 129 C-131.34541851 131.33157492 -131.67794257 133.66508361 -132 136 C-132.495 136.86044922 -132.495 136.86044922 -133 137.73828125 C-134.44739745 141.0118872 -134.38638081 144.28951617 -134.5 147.8125 C-134.74750615 153.39209777 -135.18129169 158.84269899 -136 164.375 C-137.27798005 173.21595154 -137.63519327 182.08143551 -138 191 C-138.66 191 -139.32 191 -140 191 C-140.04971951 186.42848262 -140.08586976 181.85712532 -140.10986328 177.28540039 C-140.11987381 175.73263809 -140.13348634 174.17989442 -140.15087891 172.62719727 C-140.17534652 170.38553245 -140.18653268 168.14411851 -140.1953125 165.90234375 C-140.20563507 165.21663803 -140.21595764 164.53093231 -140.22659302 163.82444763 C-140.22764596 159.22299118 -139.3815661 155.37144262 -138 151 C-137.79788597 149.10933839 -137.64992116 147.21192332 -137.5625 145.3125 C-137.0041353 137.4855983 -135.28035265 130.04186546 -132.375 122.75 C-131.27150819 119.74047688 -130.80857976 117.88563566 -130.5625 114.8125 C-129.92791957 110.51145488 -128.74288988 109.24159713 -126 106 C-125.2833793 103.68152126 -124.61757973 101.34680297 -124 99 C-123.03613119 96.98233875 -122.03092863 94.9842344 -121 93 C-120.4328125 91.90300781 -119.865625 90.80601562 -119.28125 89.67578125 C-118.6934375 88.56589844 -118.105625 87.45601563 -117.5 86.3125 C-116.9121875 85.19488281 -116.324375 84.07726562 -115.71875 82.92578125 C-114.26684101 80.45423618 -113.02000398 78.9456129 -111 77 C-109.98034573 74.67518826 -108.97940398 72.34205301 -108 70 C-107.34 69.34 -106.68 68.68 -106 68 C-105.3574765 65.93125966 -105.3574765 65.93125966 -105 64 C-104.34 64 -103.68 64 -103 64 C-103 63.01 -103 62.02 -103 61 C-102.34 61 -101.68 61 -101 61 C-99.98250595 58.99202501 -98.9925683 56.98345042 -98.0703125 54.9296875 C-97.75835937 54.25164062 -97.44640625 53.57359375 -97.125 52.875 C-96.81820312 52.19179688 -96.51140625 51.50859375 -96.1953125 50.8046875 C-94.74979708 48.62224265 -93.3944139 47.97179142 -91 47 C-91 46.01 -91 45.02 -91 44 C-88 42 -88 42 -85.125 41.1875 C-81.45333486 39.79226725 -79.67222997 37.82068719 -77 35 C-76.34 35 -75.68 35 -75 35 C-74.67 34.01 -74.34 33.02 -74 32 C-72 31 -70 30 -68 29 C-66.95884159 27.69855198 -65.94622159 26.37202131 -65 25 C-64.34 25 -63.68 25 -63 25 C-62.505 23.515 -62.505 23.515 -62 22 C-61.01 22 -60.02 22 -59 22 C-58.7215625 21.1028125 -58.7215625 21.1028125 -58.4375 20.1875 C-56.3357073 16.9891198 -53.48225004 16.44093105 -50 15 C-49.401875 14.360625 -48.80375 13.72125 -48.1875 13.0625 C-42.15620694 7.37585225 -32.20217243 5.80027136 -24.375 3.8125 C-23.39015625 3.55275391 -22.4053125 3.29300781 -21.390625 3.02539062 C-14.28357415 1.19177151 -7.38514791 -0.23078587 0 0 Z " fill="#EDFB7A" transform="translate(199,282)"></path><path d="M0 0 C0.53625 0.226875 1.0725 0.45375 1.625 0.6875 C0.67625 1.30625 -0.2725 1.925 -1.25 2.5625 C-4.31945109 4.50720969 -4.31945109 4.50720969 -6.375 6.6875 C-7.07625 6.914375 -7.7775 7.14125 -8.5 7.375 C-12.80889122 9.34210251 -15.90633007 12.50681927 -19.375 15.6875 C-23.55847021 19.46188548 -27.5123733 22.81979707 -32.375 25.6875 C-36.79242363 29.06860861 -40.50512066 32.81308425 -44.03515625 37.1015625 C-45.375 38.6875 -45.375 38.6875 -47.5 40.6875 C-49.23503723 42.53820637 -50.15007495 44.03166693 -51.3125 46.25 C-53.12797968 49.61649972 -55.03226062 50.80185214 -58.375 52.6875 C-59.42392238 54.32381892 -60.42406703 55.99235863 -61.375 57.6875 C-62.3340625 58.615625 -62.3340625 58.615625 -63.3125 59.5625 C-65.45594921 61.77090222 -66.83747894 64.06256002 -68.30078125 66.7578125 C-69.45581739 68.83267741 -70.7152418 70.81566174 -72 72.8125 C-73.81865939 75.69343444 -75.21414042 78.47281194 -76.375 81.6875 C-77.48020692 84.21368724 -78.55229223 85.89249414 -80.375 88 C-82.70287421 91.12808097 -83.33913059 93.95837014 -84.375 97.6875 C-85.36701103 98.69542565 -86.36735702 99.69520184 -87.375 100.6875 C-89.47595025 105.56170459 -90.83071095 110.31293702 -91.90234375 115.5 C-92.57482148 118.61229363 -93.46624377 121.63667551 -94.375 124.6875 C-93.55515625 124.66429687 -92.7353125 124.64109375 -91.890625 124.6171875 C-90.81296875 124.59914063 -89.7353125 124.58109375 -88.625 124.5625 C-87.55765625 124.53929687 -86.4903125 124.51609375 -85.390625 124.4921875 C-82.45029894 124.68262313 -80.85138122 125.16079896 -78.375 126.6875 C-78.375 127.0175 -78.375 127.3475 -78.375 127.6875 C-85.635 127.3575 -92.895 127.0275 -100.375 126.6875 C-99.24931231 117.68199852 -99.24931231 117.68199852 -97.484375 113.4453125 C-97.10410156 112.52363281 -96.72382813 111.60195313 -96.33203125 110.65234375 C-95.93371094 109.71519531 -95.53539062 108.77804687 -95.125 107.8125 C-94.74214844 106.88308594 -94.35929688 105.95367187 -93.96484375 104.99609375 C-91.36188411 98.75421394 -88.47524746 92.69688377 -85.375 86.6875 C-84.715 86.6875 -84.055 86.6875 -83.375 86.6875 C-83.2925 86.0275 -83.21 85.3675 -83.125 84.6875 C-82.12740209 80.69710837 -80.30333317 77.30200357 -78.375 73.6875 C-77.715 73.6875 -77.055 73.6875 -76.375 73.6875 C-76.08625 72.759375 -75.7975 71.83125 -75.5 70.875 C-74.375 67.6875 -74.375 67.6875 -72.375 64.6875 C-71.715 64.6875 -71.055 64.6875 -70.375 64.6875 C-70.25125 64.089375 -70.1275 63.49125 -70 62.875 C-69.375 60.6875 -69.375 60.6875 -67.375 57.6875 C-66.715 57.6875 -66.055 57.6875 -65.375 57.6875 C-65.375 56.6975 -65.375 55.7075 -65.375 54.6875 C-64.715 54.6875 -64.055 54.6875 -63.375 54.6875 C-63.2925 54.130625 -63.21 53.57375 -63.125 53 C-61.46686286 47.8874105 -57.08457541 44.39707541 -53.375 40.6875 C-52.30549426 39.4644242 -51.24363661 38.23463857 -50.1875 37 C-47.27871701 33.65745112 -44.27512079 30.42843317 -41.1875 27.25 C-40.36894531 26.40566406 -39.55039062 25.56132812 -38.70703125 24.69140625 C-36.375 22.6875 -36.375 22.6875 -34.19921875 22.15234375 C-33.59722656 21.99894531 -32.99523437 21.84554687 -32.375 21.6875 C-31.68184919 20.36774086 -31.01800219 19.03240535 -30.375 17.6875 C-28.4140625 16.046875 -28.4140625 16.046875 -26 14.4375 C-24.66582031 13.5403125 -24.66582031 13.5403125 -23.3046875 12.625 C-21.85449219 11.6659375 -21.85449219 11.6659375 -20.375 10.6875 C-19.34632813 9.98625 -18.31765625 9.285 -17.2578125 8.5625 C-3.88148246 -0.51072138 -3.88148246 -0.51072138 0 0 Z " fill="#EBFB77" transform="translate(315.375,156.3125)"></path><path d="M0 0 C0.66 0 1.32 0 2 0 C2 0.66 2 1.32 2 2 C3.0209375 2.12375 3.0209375 2.12375 4.0625 2.25 C7.8746907 3.22332528 10.64070329 4.95807455 14 7 C14 7.66 14 8.32 14 9 C15.32 9.66 16.64 10.32 18 11 C17.9071875 12.3921875 17.9071875 12.3921875 17.8125 13.8125 C18.03054974 17.51934558 18.46813197 17.60486514 21 20 C22.02734375 21.69824219 22.02734375 21.69824219 22.9375 23.546875 C23.27523438 24.2275 23.61296875 24.908125 23.9609375 25.609375 C24.30382812 26.31578125 24.64671875 27.0221875 25 27.75 C25.34289062 28.4409375 25.68578125 29.131875 26.0390625 29.84375 C29.43880315 36.74704018 32.35453948 43.44529439 34 51 C34.24878906 52.04800781 34.49757813 53.09601563 34.75390625 54.17578125 C37.03586662 64.43909093 37.75656387 74.50384553 38 85 C38.02191406 85.86979492 38.04382813 86.73958984 38.06640625 87.63574219 C38.47239368 106.12846973 38.47239368 106.12846973 36 115 C35.67 115.33 35.34 115.66 35 116 C34.47946627 118.99827427 34.00383008 121.98990253 33.5625 125 C30.97704834 142.53729645 30.97704834 142.53729645 27 149 C26.42824781 150.97170424 25.98210594 152.95447944 25.53125 154.95703125 C24.70983819 158.11584284 23.3032039 161.01349106 22 164 C21.67 165.19625 21.34 166.3925 21 167.625 C20.02145997 170.9275726 18.78076734 173.07836281 17 176 C15.83416503 178.23970151 14.68968862 180.49060188 13.5625 182.75 C13.25393066 183.36472168 12.94536133 183.97944336 12.62744141 184.61279297 C10.90557453 188.07011326 9.33046333 191.54871867 7.875 195.125 C6.30204356 198.79751134 4.42142647 200.81408864 1 203 C2.31438929 198.57708005 4.07173771 194.97755847 6.5 191.0625 C9.40886244 186.22689074 9.40886244 186.22689074 11.25 180.9375 C12 178 12 178 13.421875 176.59375 C18.4618375 171.50388689 19.76011625 162.49807605 21.2890625 155.76171875 C21.98621769 153.05353897 22.90467293 150.56980582 24 148 C24.66 148 25.32 148 26 148 C25.95875 146.7625 25.9175 145.525 25.875 144.25 C25.79313729 141.7941188 25.81907679 140.34726619 26.96337891 138.15087891 C28.07563344 135.84306863 28.44797709 133.97787222 28.78125 131.4453125 C28.96107422 130.15173828 28.96107422 130.15173828 29.14453125 128.83203125 C29.26183594 127.93871094 29.37914062 127.04539062 29.5 126.125 C30.2420367 120.5230306 31.02772765 115.32831642 33 110 C34.25636692 106.15784817 34.16175826 102.29620857 34.16796875 98.296875 C34.17129715 97.54142395 34.17462555 96.7859729 34.17805481 96.00762939 C34.18311439 94.40385545 34.18546343 92.80007098 34.18530273 91.19628906 C34.18745514 88.79993998 34.20552451 86.40407806 34.22460938 84.0078125 C34.26045176 73.85378259 33.52266769 64.03839163 32 54 C31.34 54 30.68 54 30 54 C29.90203125 53.45472656 29.8040625 52.90945312 29.703125 52.34765625 C28.33966419 45.47158234 26.07250859 39.34789849 22.375 33.375 C21 31 21 31 20.125 27.625 C18.07844705 21.03055161 13.8811912 16.75916142 9 12 C8.13528504 10.96707301 7.28122555 9.92514158 6.4375 8.875 C4.19890795 6.00637673 4.19890795 6.00637673 1.6875 4.3125 C1.130625 3.879375 0.57375 3.44625 0 3 C0 2.01 0 1.02 0 0 Z " fill="#647203" transform="translate(386,154)"></path><path d="M0 0 C0.53625 0.226875 1.0725 0.45375 1.625 0.6875 C0.67625 1.30625 -0.2725 1.925 -1.25 2.5625 C-4.31945109 4.50720969 -4.31945109 4.50720969 -6.375 6.6875 C-7.07625 6.914375 -7.7775 7.14125 -8.5 7.375 C-12.80889122 9.34210251 -15.90633007 12.50681927 -19.375 15.6875 C-23.55847021 19.46188548 -27.5123733 22.81979707 -32.375 25.6875 C-36.79242363 29.06860861 -40.50512066 32.81308425 -44.03515625 37.1015625 C-45.375 38.6875 -45.375 38.6875 -47.5 40.6875 C-49.23503723 42.53820637 -50.15007495 44.03166693 -51.3125 46.25 C-53.12797968 49.61649972 -55.03226062 50.80185214 -58.375 52.6875 C-59.42392238 54.32381892 -60.42406703 55.99235863 -61.375 57.6875 C-62.70833333 59.02083333 -64.04166667 60.35416667 -65.375 61.6875 C-66.61012079 63.82059192 -66.61012079 63.82059192 -67.375 65.6875 C-68.35620464 62.63486336 -68.35620464 60.74013664 -67.375 57.6875 C-66.715 57.6875 -66.055 57.6875 -65.375 57.6875 C-65.375 56.6975 -65.375 55.7075 -65.375 54.6875 C-64.715 54.6875 -64.055 54.6875 -63.375 54.6875 C-63.2925 54.130625 -63.21 53.57375 -63.125 53 C-61.46686286 47.8874105 -57.08457541 44.39707541 -53.375 40.6875 C-52.30549426 39.4644242 -51.24363661 38.23463857 -50.1875 37 C-47.27871701 33.65745112 -44.27512079 30.42843317 -41.1875 27.25 C-40.36894531 26.40566406 -39.55039062 25.56132812 -38.70703125 24.69140625 C-36.375 22.6875 -36.375 22.6875 -34.19921875 22.15234375 C-33.59722656 21.99894531 -32.99523437 21.84554687 -32.375 21.6875 C-31.68184919 20.36774086 -31.01800219 19.03240535 -30.375 17.6875 C-28.4140625 16.046875 -28.4140625 16.046875 -26 14.4375 C-25.11054688 13.839375 -24.22109375 13.24125 -23.3046875 12.625 C-21.85449219 11.6659375 -21.85449219 11.6659375 -20.375 10.6875 C-19.34632813 9.98625 -18.31765625 9.285 -17.2578125 8.5625 C-3.88148246 -0.51072138 -3.88148246 -0.51072138 0 0 Z " fill="#E4F768" transform="translate(315.375,156.3125)"></path><path d="M0 0 C0.33 0 0.66 0 1 0 C1.22653475 8.62090559 0.88063901 16.5825192 -1 25 C-1.15597656 25.82628906 -1.31195313 26.65257812 -1.47265625 27.50390625 C-2.35267625 31.99274778 -3.58855462 35.08140126 -6 39 C-6.57175219 40.97170424 -7.01789406 42.95447944 -7.46875 44.95703125 C-8.29016181 48.11584284 -9.6967961 51.01349106 -11 54 C-11.33 55.19625 -11.66 56.3925 -12 57.625 C-12.97854003 60.9275726 -14.21923266 63.07836281 -16 66 C-17.16583497 68.23970151 -18.31031138 70.49060188 -19.4375 72.75 C-19.74606934 73.36472168 -20.05463867 73.97944336 -20.37255859 74.61279297 C-22.09442547 78.07011326 -23.66953667 81.54871867 -25.125 85.125 C-26.69795644 88.79751134 -28.57857353 90.81408864 -32 93 C-30.68561071 88.57708005 -28.92826229 84.97755847 -26.5 81.0625 C-23.59113756 76.22689074 -23.59113756 76.22689074 -21.75 70.9375 C-21 68 -21 68 -19.578125 66.59375 C-14.5381625 61.50388689 -13.23988375 52.49807605 -11.7109375 45.76171875 C-11.01378231 43.05353897 -10.09532707 40.56980582 -9 38 C-8.34 38 -7.68 38 -7 38 C-7.04125 36.7625 -7.0825 35.525 -7.125 34.25 C-7.20686271 31.7941188 -7.18092321 30.34726619 -6.03662109 28.15087891 C-4.92436656 25.84306863 -4.55202291 23.97787222 -4.21875 21.4453125 C-4.09886719 20.58292969 -3.97898437 19.72054688 -3.85546875 18.83203125 C-3.73816406 17.93871094 -3.62085938 17.04539062 -3.5 16.125 C-2.75999757 10.53838824 -2.02859831 5.29883869 0 0 Z " fill="#8A9C0F" transform="translate(419,264)"></path><path d="M0 0 C-2.777112 1.4579838 -5.51991211 2.58784797 -8.5 3.5625 C-9.2528125 3.81128906 -10.005625 4.06007813 -10.78125 4.31640625 C-12.84184972 4.95127412 -14.90315904 5.4996175 -17 6 C-17 6.66 -17 7.32 -17 8 C-17.60328125 8.04898437 -18.2065625 8.09796875 -18.828125 8.1484375 C-19.62734375 8.22320312 -20.4265625 8.29796875 -21.25 8.375 C-22.03890625 8.44460938 -22.8278125 8.51421875 -23.640625 8.5859375 C-26.12420279 9.02179718 -27.85610211 9.68357147 -30 11 C-31.26804566 13.0335948 -31.26804566 13.0335948 -32 15 C-32.99 14.34 -33.98 13.68 -35 13 C-39.84360687 14.58348686 -43.42009138 16.86680621 -47.32421875 20.109375 C-49 21 -49 21 -51.20703125 20.640625 C-51.79871094 20.42921875 -52.39039063 20.2178125 -53 20 C-53 18 -53 18 -51.75 16.625 C-51.1725 16.08875 -50.595 15.5525 -50 15 C-49.484375 14.360625 -48.96875 13.72125 -48.4375 13.0625 C-41.9489662 7.57220217 -32.44611311 5.862222 -24.375 3.8125 C-23.39015625 3.55275391 -22.4053125 3.29300781 -21.390625 3.02539062 C-14.28357415 1.19177151 -7.38514791 -0.23078587 0 0 Z " fill="#DBEF57" transform="translate(199,282)"></path><path d="M0 0 C-0.99 0.33 -1.98 0.66 -3 1 C-3.33 1.99 -3.66 2.98 -4 4 C-6.1171875 5.98046875 -6.1171875 5.98046875 -8.875 8.1875 C-9.865 8.9815625 -10.855 9.775625 -11.875 10.59375 C-14.82787329 12.86746243 -17.83157339 15.03725294 -20.875 17.1875 C-25.02068533 20.15122398 -27.88979608 23.00116639 -31 27 C-32.010625 27.763125 -33.02125 28.52625 -34.0625 29.3125 C-36.91082282 31.91841237 -37.59606979 33.00940056 -38.9375 36.4375 C-41.45704815 42.76272548 -45.95554389 46.15009197 -52 49 C-50.81591493 41.46016417 -43.23460038 35.10037986 -38 30 C-36.80342122 28.65384888 -35.61661295 27.29897576 -34.4375 25.9375 C-29.35771277 20.09574468 -29.35771277 20.09574468 -27 18 C-26.34 18 -25.68 18 -25 18 C-24.67 17.01 -24.34 16.02 -24 15 C-22 14 -20 13 -18 12 C-16.95884159 10.69855198 -15.94622159 9.37202131 -15 8 C-14.34 8 -13.68 8 -13 8 C-12.67 7.01 -12.34 6.02 -12 5 C-11.01 5 -10.02 5 -9 5 C-8.773125 4.38125 -8.54625 3.7625 -8.3125 3.125 C-6.35752088 -0.04020429 -3.50347766 -1.75173883 0 0 Z " fill="#E9F96C" transform="translate(149,299)"></path><path d="M0 0 C0.66 0 1.32 0 2 0 C2 0.66 2 1.32 2 2 C3.0209375 2.12375 3.0209375 2.12375 4.0625 2.25 C7.8746907 3.22332528 10.64070329 4.95807455 14 7 C14 7.66 14 8.32 14 9 C15.32 9.66 16.64 10.32 18 11 C17.9071875 12.3921875 17.9071875 12.3921875 17.8125 13.8125 C18.03054974 17.51934558 18.46813197 17.60486514 21 20 C22.02734375 21.69824219 22.02734375 21.69824219 22.9375 23.546875 C23.27523438 24.2275 23.61296875 24.908125 23.9609375 25.609375 C24.30382812 26.31578125 24.64671875 27.0221875 25 27.75 C25.34289062 28.4409375 25.68578125 29.131875 26.0390625 29.84375 C29.31215746 36.48988176 32.23686809 42.52130726 33 50 C31.22437385 47.33656078 30.02266436 44.91864361 28.75 42 C23.63937369 30.65470932 17.94922214 20.71975491 9 12 C8.13553741 10.96686178 7.28153289 9.92489457 6.4375 8.875 C4.19890795 6.00637673 4.19890795 6.00637673 1.6875 4.3125 C1.130625 3.879375 0.57375 3.44625 0 3 C0 2.01 0 1.02 0 0 Z " fill="#535F03" transform="translate(386,154)"></path><path d="M0 0 C0.53625 0.226875 1.0725 0.45375 1.625 0.6875 C0.67625 1.30625 -0.2725 1.925 -1.25 2.5625 C-4.31945109 4.50720969 -4.31945109 4.50720969 -6.375 6.6875 C-7.07625 6.914375 -7.7775 7.14125 -8.5 7.375 C-12.80889122 9.34210251 -15.90633007 12.50681927 -19.375 15.6875 C-24.75394267 20.5404575 -29.81510215 24.52903066 -36.375 27.6875 C-36.375 26.0375 -36.375 24.3875 -36.375 22.6875 C-35.446875 22.56375 -35.446875 22.56375 -34.5 22.4375 C-33.79875 22.19 -33.0975 21.9425 -32.375 21.6875 C-32.09140625 21.0790625 -31.8078125 20.470625 -31.515625 19.84375 C-30.08503552 17.13934796 -28.53797964 16.12948643 -26 14.4375 C-25.11054688 13.839375 -24.22109375 13.24125 -23.3046875 12.625 C-21.85449219 11.6659375 -21.85449219 11.6659375 -20.375 10.6875 C-19.34632813 9.98625 -18.31765625 9.285 -17.2578125 8.5625 C-3.88148246 -0.51072138 -3.88148246 -0.51072138 0 0 Z " fill="#DBEF5A" transform="translate(315.375,156.3125)"></path><path d="M0 0 C0.66 0 1.32 0 2 0 C2.25349828 4.56296897 2.25349828 4.56296897 1.0234375 6.68359375 C-0.43465275 9.98377513 -0.38548333 13.26168802 -0.5 16.8125 C-0.74750615 22.39209777 -1.18129169 27.84269899 -2 33.375 C-3.27798005 42.21595154 -3.63519327 51.08143551 -4 60 C-4.66 60 -5.32 60 -6 60 C-6.04971951 55.42848262 -6.08586976 50.85712532 -6.10986328 46.28540039 C-6.11987381 44.73263809 -6.13348634 43.17989442 -6.15087891 41.62719727 C-6.17534652 39.38553245 -6.18653268 37.14411851 -6.1953125 34.90234375 C-6.20563507 34.21663803 -6.21595764 33.53093231 -6.22659302 32.82444763 C-6.22764611 28.22231447 -5.37818775 24.37278093 -4 20 C-3.79874863 18.02569862 -3.65031934 16.04508816 -3.5625 14.0625 C-3.2059874 8.81384225 -2.12172961 4.7969539 0 0 Z " fill="#EBFB71" transform="translate(65,413)"></path><path d="M0 0 C0.33 0 0.66 0 1 0 C0.67264728 3.00073323 0.33745608 6.00039041 0 9 C-0.07508789 9.680625 -0.15017578 10.36125 -0.22753906 11.0625 C-0.48122301 13.3546091 -0.74028341 15.64606727 -1 17.9375 C-1.0829834 18.69538818 -1.1659668 19.45327637 -1.25146484 20.23413086 C-1.88632784 25.77265568 -1.88632784 25.77265568 -3 28 C-3.15411106 30.0307477 -3.24982453 32.06606421 -3.31640625 34.1015625 C-3.35830078 35.31328125 -3.40019531 36.525 -3.44335938 37.7734375 C-3.48267578 39.04445313 -3.52199219 40.31546875 -3.5625 41.625 C-3.60568359 42.90375 -3.64886719 44.1825 -3.69335938 45.5 C-3.79969886 48.66655348 -3.90172833 51.83318753 -4 55 C-6.61765469 51.09794246 -6.30592121 46.92048358 -6.30078125 42.40234375 C-6.30506638 41.57166885 -6.3093515 40.74099396 -6.31376648 39.88514709 C-6.31949949 38.13266917 -6.32001763 36.38016746 -6.31567383 34.62768555 C-6.312507 31.94343736 -6.33600863 29.26028441 -6.36132812 26.57617188 C-6.36360051 24.87239722 -6.3643049 23.16861961 -6.36328125 21.46484375 C-6.372491 20.66167221 -6.38170074 19.85850067 -6.39118958 19.0309906 C-6.3445221 13.42942198 -6.3445221 13.42942198 -4.54760742 11.18969727 C-4.03689697 10.79709717 -3.52618652 10.40449707 -3 10 C-2.25740651 7.68970915 -1.588562 5.354248 -1 3 C-0.67 2.01 -0.34 1.02 0 0 Z " fill="#F3FD9A" transform="translate(63,412)"></path><path d="M0 0 C-0.33 0.99 -0.66 1.98 -1 3 C-3.32671865 4.01529541 -5.6603447 5.01488198 -8 6 C-8.99 7.485 -8.99 7.485 -10 9 C-10.99 9.33 -11.98 9.66 -13 10 C-14.70960623 11.79967389 -14.70960623 11.79967389 -16.375 13.9375 C-19.11038387 17.17858509 -20.96090937 18.61820584 -25 20 C-26.70884005 21.62339805 -28.37446717 23.29319053 -30 25 C-31.64864545 26.35555293 -33.31003995 27.69631653 -35 29 C-34.690625 28.236875 -34.38125 27.47375 -34.0625 26.6875 C-33.32106407 24.81210323 -32.63771783 22.91315348 -32 21 C-31.01 21 -30.02 21 -29 21 C-29.10828125 19.84757812 -29.10828125 19.84757812 -29.21875 18.671875 C-29 16 -29 16 -27.59375 14.515625 C-26.9028125 14.09796875 -26.211875 13.6803125 -25.5 13.25 C-24.69433594 12.75628906 -23.88867188 12.26257813 -23.05859375 11.75390625 C-22.04925781 11.17511719 -21.03992188 10.59632813 -20 10 C-19.3517627 9.6272998 -18.70352539 9.25459961 -18.03564453 8.87060547 C-2.55919339 0 -2.55919339 0 0 0 Z " fill="#F6FE9B" transform="translate(150,295)"></path><path d="M0 0 C0.495 0.99 0.495 0.99 1 2 C1.99 2.33 2.98 2.66 4 3 C-13.34558944 9.43818275 -29.84294279 10.37805716 -48 7 C-44.03852651 4.81435945 -41.78018682 4.88297198 -37.25 5.5625 C-33.33135745 6.08834725 -29.90938074 5.60144319 -26 5 C-25.34 5.185625 -24.68 5.37125 -24 5.5625 C-20.77801823 6.26730851 -18.08437133 4.97100579 -15 4 C-14.34 4 -13.68 4 -13 4 C-13 4.66 -13 5.32 -13 6 C-12.34 6 -11.68 6 -11 6 C-10.67 5.01 -10.34 4.02 -10 3 C-9.278125 3.061875 -8.55625 3.12375 -7.8125 3.1875 C-4.47141026 2.96476068 -2.72967245 1.8717754 0 0 Z " fill="#D0E45D" transform="translate(201,579)"></path><path d="M0 0 C0.66 0.33 1.32 0.66 2 1 C2.5022291 2.90847056 2.99512729 4.82020925 3.42578125 6.74609375 C3.99369573 8.97525468 4.75249749 10.99904317 5.625 13.125 C6.68042988 15.7921701 6.99775289 17.11010834 6.9375 20.0625 C7.01071865 23.50377646 8.23432045 25.32433944 10.04296875 28.1875 C11.56538225 31.07076474 11.73663621 33.77379353 12 37 C11.01 37.495 11.01 37.495 10 38 C8.23537317 34.91190305 8 33.76687864 8 30 C7.34 30 6.68 30 6 30 C5.01658385 27.27229834 4.03814947 24.54297895 3.0625 21.8125 C2.78470703 21.04357422 2.50691406 20.27464844 2.22070312 19.48242188 C-0.02999227 13.16420468 -1.26089645 7.78330775 -1 1 C-0.67 0.67 -0.34 0.34 0 0 Z " fill="#DDF35F" transform="translate(62,473)"></path><path d="M0 0 C0 3 0 3 -1.55712891 4.92944336 C-2.27304199 5.64237549 -2.98895508 6.35530762 -3.7265625 7.08984375 C-4.51160156 7.87423828 -5.29664063 8.65863281 -6.10546875 9.46679688 C-6.93691406 10.28212891 -7.76835937 11.09746094 -8.625 11.9375 C-9.43324219 12.74896484 -10.24148438 13.56042969 -11.07421875 14.39648438 C-15.15590394 18.44166669 -19.05643018 22.05812103 -24 25 C-24.70125 25.433125 -25.4025 25.86625 -26.125 26.3125 C-28.45529298 27.16694076 -29.69843442 26.82198771 -32 26 C-31.154375 25.46375 -30.30875 24.9275 -29.4375 24.375 C-24.66560021 21.18995525 -20.19732095 17.79598142 -17 13 C-16.2575 12.5875 -15.515 12.175 -14.75 11.75 C-12.16693079 10.10622869 -10.93676086 8.84159624 -9.0625 6.5 C-6.42863769 3.26411202 -3.91480428 1.58456364 0 0 Z " fill="#8C9F0D" transform="translate(360,395)"></path><path d="M0 0 C0.66 0 1.32 0 2 0 C2.268125 0.639375 2.53625 1.27875 2.8125 1.9375 C3.88667752 4.33131686 3.88667752 4.33131686 7 5 C7.99 6.485 7.99 6.485 9 8 C10.32 8 11.64 8 13 8 C13.556875 8.9075 14.11375 9.815 14.6875 10.75 C17.75076077 15.05512325 21.14603543 16.23680774 26 18 C26 18.99 26 19.98 26 21 C28.97 21.33 31.94 21.66 35 22 C35.495 23.98 35.495 23.98 36 26 C22.73799833 26 7.67080116 11.01170209 -2 3 C-1.34 2.67 -0.68 2.34 0 2 C0 1.34 0 0.68 0 0 Z " fill="#D1E753" transform="translate(110,556)"></path><path d="M0 0 C-0.33 1.98 -0.66 3.96 -1 6 C-1.5775 5.835 -2.155 5.67 -2.75 5.5 C-5.26664369 4.85537969 -5.26664369 4.85537969 -9 5 C-9.99 4.67 -10.98 4.34 -12 4 C-13.98330173 4.86649466 -13.98330173 4.86649466 -16 6 C-19.0747749 7.02492497 -19.78715118 7.07094961 -23 6 C-25.16715557 6.87483915 -25.16715557 6.87483915 -27 8 C-27.33 7.34 -27.66 6.68 -28 6 C-25.33849222 4.98378794 -22.67374441 3.98319054 -20 3 C-19.25621094 2.72542969 -18.51242188 2.45085937 -17.74609375 2.16796875 C-5.96927787 -1.98975929 -5.96927787 -1.98975929 0 0 Z " fill="#C5D84B" transform="translate(210,282)"></path><path d="M0 0 C0.33 0.99 0.66 1.98 1 3 C6.61 3 12.22 3 18 3 C16.02 3.99 16.02 3.99 14 5 C13.01 6.485 13.01 6.485 12 8 C9.37302936 8.22137393 6.99106036 8.28162025 4.375 8.1875 C3.66859375 8.17396484 2.9621875 8.16042969 2.234375 8.14648438 C0.48925872 8.1111104 -1.25546608 8.05730221 -3 8 C-3.66 6.02 -4.32 4.04 -5 2 C-3.35 1.34 -1.7 0.68 0 0 Z " fill="#AABE23" transform="translate(214,280)"></path><path d="M0 0 C1 3 1 3 0.109375 5.05078125 C-0.33921875 5.79714844 -0.7878125 6.54351562 -1.25 7.3125 C-1.94996094 8.51326172 -1.94996094 8.51326172 -2.6640625 9.73828125 C-3.10492188 10.48464844 -3.54578125 11.23101562 -4 12 C-6.28792822 16.22386749 -7.8228251 20.35366507 -9.15625 24.94921875 C-10 27 -10 27 -11.5625 28.5390625 C-13.66437091 30.67520305 -13.43143428 32.93047849 -13.69140625 35.80078125 C-14.3231483 40.30294298 -15.75285544 44.75285544 -19 48 C-19.32271125 42.62147913 -18.49733817 39.70652194 -16 35 C-15.61246625 33.57113406 -15.25893488 32.13267123 -14.9375 30.6875 C-14.628125 29.470625 -14.31875 28.25375 -14 27 C-13.34 26.67 -12.68 26.34 -12 26 C-11.5321297 23.94807767 -11.5321297 23.94807767 -11.25 21.5 C-10.34687892 16.47549303 -8.50401317 13.21202305 -5.53125 9.1171875 C-3.42658568 6.20716694 -1.73703337 3.14002186 0 0 Z " fill="#F5FE9C" transform="translate(83,363)"></path><path d="M0 0 C0.99 0.33 1.98 0.66 3 1 C3.05447047 2.41623216 3.09300508 3.83308191 3.125 5.25 C3.14820312 6.03890625 3.17140625 6.8278125 3.1953125 7.640625 C2.97990477 10.24275041 2.23781906 11.72683042 1 14 C0.5359375 15.794375 0.5359375 15.794375 0.0625 17.625 C-1 21 -1 21 -4 23 C-4.15340179 17.86437488 -3.62626414 13.13211305 -2.5625 8.125 C-2.42779297 7.44953125 -2.29308594 6.7740625 -2.15429688 6.078125 C-1.13737555 1.13737555 -1.13737555 1.13737555 0 0 Z " fill="#EDF4AA" transform="translate(61,402)"></path><path d="M0 0 C-2.777112 1.4579838 -5.51991211 2.58784797 -8.5 3.5625 C-9.2528125 3.81128906 -10.005625 4.06007813 -10.78125 4.31640625 C-12.84184972 4.95127412 -14.90315904 5.4996175 -17 6 C-17 6.66 -17 7.32 -17 8 C-17.60328125 8.06058594 -18.2065625 8.12117188 -18.828125 8.18359375 C-19.62734375 8.26738281 -20.4265625 8.35117187 -21.25 8.4375 C-22.03890625 8.51871094 -22.8278125 8.59992188 -23.640625 8.68359375 C-25.82364639 8.97634993 -27.8773182 9.42064419 -30 10 C-29.67 9.01 -29.34 8.02 -29 7 C-27.02 6.67 -25.04 6.34 -23 6 C-22.67 5.01 -22.34 4.02 -22 3 C-19.27172635 2.49465273 -16.54255306 1.99556155 -13.8125 1.5 C-12.65911133 1.28537109 -12.65911133 1.28537109 -11.48242188 1.06640625 C-7.60578227 0.36761285 -3.958529 -0.19039017 0 0 Z " fill="#D7ED53" transform="translate(199,282)"></path><path d="M0 0 C6.73359498 -0.37255546 11.88238137 0.13810974 18 3 C19.11375 3.474375 20.2275 3.94875 21.375 4.4375 C24.29525265 6.17574563 24.67436866 6.99523564 26 10 C27.62746694 11.70496537 29.28891311 13.37897032 31 15 C28.39406936 13.74915329 25.8805129 12.37594686 23.375 10.9375 C21.60426608 9.92096756 19.82621725 8.91310863 18 8 C18 7.34 18 6.68 18 6 C17.45472656 5.89042969 16.90945313 5.78085938 16.34765625 5.66796875 C10.74464935 4.48990063 5.3945613 2.912965 0 1 C0 0.67 0 0.34 0 0 Z " fill="#879C14" transform="translate(362,148)"></path><path d="M0 0 C0.8971875 0.309375 0.8971875 0.309375 1.8125 0.625 C-1.94848237 5.59990175 -5.7113859 10.26667838 -10.1875 14.625 C-12.77022286 17.47766847 -14.95012974 19.91288923 -16.1875 23.625 C-17.1775 23.955 -18.1675 24.285 -19.1875 24.625 C-19.1875 23.635 -19.1875 22.645 -19.1875 21.625 C-18.5275 21.625 -17.8675 21.625 -17.1875 21.625 C-17.1875 20.635 -17.1875 19.645 -17.1875 18.625 C-16.5275 18.625 -15.8675 18.625 -15.1875 18.625 C-14.17000595 16.61702501 -13.1800683 14.60845042 -12.2578125 12.5546875 C-11.94585937 11.87664062 -11.63390625 11.19859375 -11.3125 10.5 C-11.00570312 9.81679688 -10.69890625 9.13359375 -10.3828125 8.4296875 C-8.93729708 6.24724265 -7.5819139 5.59679142 -5.1875 4.625 C-5.1875 3.635 -5.1875 2.645 -5.1875 1.625 C-2.1875 -0.375 -2.1875 -0.375 0 0 Z " fill="#F5FE93" transform="translate(113.1875,324.375)"></path><path d="M0 0 C0.33 0 0.66 0 1 0 C2.6225546 5.65748715 3.2576553 10.51180275 3.046875 16.375 C3.02659241 17.14376465 3.00630981 17.9125293 2.9854126 18.70458984 C2.94015797 20.31819385 2.88944947 21.93165343 2.83349609 23.54492188 C2.75022779 25.99330206 2.68831615 28.44156229 2.62890625 30.890625 C2.58200195 32.46878834 2.53386586 34.04691565 2.484375 35.625 C2.45763702 36.706604 2.45763702 36.706604 2.43035889 37.81005859 C2.24184169 42.78218159 1.33741275 47.20524733 0 52 C-0.33 52 -0.66 52 -1 52 C-0.9285376 50.9881665 -0.8570752 49.97633301 -0.78344727 48.93383789 C-0.05836937 38.08809462 0.12294129 27.30438802 0.0625 16.4375 C0.05746411 14.82877747 0.05290498 13.22005337 0.04882812 11.61132812 C0.03801281 7.74084539 0.02086924 3.87044104 0 0 Z " fill="#728109" transform="translate(320,365)"></path><path d="M0 0 C0 0.66 0 1.32 0 2 C-2.64 2.33 -5.28 2.66 -8 3 C-8 3.66 -8 4.32 -8 5 C-8.680625 5.2475 -9.36125 5.495 -10.0625 5.75 C-13.15258129 6.98067478 -13.15258129 6.98067478 -16.375 9.0625 C-19.92568971 11.16169897 -22.91137702 11.66623486 -27 12 C-25.97154657 9.11665736 -25.2471818 8.13806199 -22.53125 6.62109375 C-5.57425743 0 -5.57425743 0 0 0 Z " fill="#E6F86B" transform="translate(176,286)"></path><path d="M0 0 C4.95 0 9.9 0 15 0 C15 0.66 15 1.32 15 2 C18.3 2.66 21.6 3.32 25 4 C25 4.33 25 4.66 25 5 C19.44104729 5.1193869 14.07956402 4.65795767 8.5625 4 C7.73556641 3.90460938 6.90863281 3.80921875 6.05664062 3.7109375 C4.03734861 3.47749334 2.01861318 3.23924304 0 3 C0 2.01 0 1.02 0 0 Z " fill="#BACC41" transform="translate(341,147)"></path><path d="M0 0 C0.66 0.33 1.32 0.66 2 1 C2.26218749 4.14624993 2.24754367 5.61837017 0.5 8.3125 C-0.2425 9.1478125 -0.2425 9.1478125 -1 10 C3.455 10.99 3.455 10.99 8 12 C8.33 11.01 8.66 10.02 9 9 C10.98 9 12.96 9 15 9 C15.33 9.99 15.66 10.98 16 12 C9.97403427 13.0712828 4.11090483 13.09945415 -2 13 C-3.18771723 9.57056481 -2.80226223 7.62215325 -1.5625 4.25 C-1.27503906 3.45078125 -0.98757813 2.6515625 -0.69140625 1.828125 C-0.46324219 1.22484375 -0.23507812 0.6215625 0 0 Z " fill="#D1E458" transform="translate(314,441)"></path><path d="M0 0 C2.38564077 0.57584432 4.66682784 1.22227595 7 2 C7 2.66 7 3.32 7 4 C8.32 4.66 9.64 5.32 11 6 C11 7.65 11 9.3 11 11 C8 11 8 11 5.95703125 9.1015625 C5.24933594 8.28429687 4.54164063 7.46703125 3.8125 6.625 C3.09707031 5.81289062 2.38164062 5.00078125 1.64453125 4.1640625 C0 2 0 2 0 0 Z " fill="#4B5704" transform="translate(393,159)"></path><path d="M0 0 C0.66 0 1.32 0 2 0 C2 0.66 2 1.32 2 2 C3.1446875 2.0309375 3.1446875 2.0309375 4.3125 2.0625 C5.6428125 2.5265625 5.6428125 2.5265625 7 3 C7.72869704 4.65612963 8.44431885 6.32126907 9.046875 8.02734375 C10.53616252 11.10968062 12.93929564 13.08136049 15.4765625 15.32421875 C17.18746869 17.20621556 17.59988367 18.51819736 18 21 C13.09450233 17.09562431 9.35223112 13.13112606 5.67578125 8.05078125 C4.07237831 5.90670197 4.07237831 5.90670197 1.79296875 4.41796875 C1.20128906 3.95003906 0.60960937 3.48210937 0 3 C0 2.01 0 1.02 0 0 Z " fill="#65740A" transform="translate(386,154)"></path><path d="M0 0 C-6.06865874 3.26773932 -11.69999602 4.29225423 -18.51171875 4.75390625 C-21.12913611 4.92008862 -21.12913611 4.92008862 -24 6 C-22.125 2.125 -22.125 2.125 -21 1 C-17.92441137 0.92752663 -14.86084597 1.00384561 -11.78515625 1.0625 C-7.75237104 0.97200272 -4.24841617 -0.07867437 0 0 Z " fill="#C8DB52" transform="translate(356,447)"></path><path d="M0 0 C0.66 0.33 1.32 0.66 2 1 C0.77602407 6.81388565 -0.93732869 10.92745064 -4 16 C-4.4640625 17.3303125 -4.4640625 17.3303125 -4.9375 18.6875 C-6.33116212 21.72076462 -8.31387629 23.09143842 -11 25 C-9.68561071 20.57708005 -7.92826229 16.97755847 -5.5 13.0625 C-2.89074488 8.7065086 -1.01538572 4.96410794 0 0 Z " fill="#90A20E" transform="translate(398,332)"></path><path d="M0 0 C2.31 0 4.62 0 7 0 C1.27710843 10.24096386 1.27710843 10.24096386 -4 12 C-3.42415568 9.61435923 -2.77772405 7.33317216 -2 5 C-1.34 5 -0.68 5 0 5 C0 3.35 0 1.7 0 0 Z " fill="#B0C627" transform="translate(258,536)"></path><path d="M0 0 C-0.33 0.99 -0.66 1.98 -1 3 C-3.31104818 4.05047644 -5.64583651 5.05007438 -8 6 C-8.66 6.66 -9.32 7.32 -10 8 C-12.92341206 9.3492671 -14.75207316 10 -18 10 C-18 10.99 -18 11.98 -18 13 C-19.65 13.33 -21.3 13.66 -23 14 C-19.44019951 8.23651349 -13.84827788 5.94529769 -8 3 C-7.34644531 2.65453125 -6.69289062 2.3090625 -6.01953125 1.953125 C-2.28832547 0 -2.28832547 0 0 0 Z " fill="#F1FBA5" transform="translate(150,295)"></path><path d="M0 0 C-0.99 0.33 -1.98 0.66 -3 1 C-4.70960623 2.79967389 -4.70960623 2.79967389 -6.375 4.9375 C-9.04810141 8.1079226 -10.93051833 9.83729095 -15 11 C-15.66 11.66 -16.32 12.32 -17 13 C-17 11.68 -17 10.36 -17 9 C-15.68 8.34 -14.36 7.68 -13 7 C-13 6.01 -13 5.02 -13 4 C-11.35 4 -9.7 4 -8 4 C-8 3.01 -8 2.02 -8 1 C-4.93251126 -0.86240388 -3.40254489 -1.2151946 0 0 Z " fill="#EFFB8B" transform="translate(140,304)"></path><path d="M0 0 C2.50982208 2.23887538 3.73028795 4.27478642 5 7.375 C6.10264394 10.01710451 7.07180555 12.10001487 8.75 14.4375 C10.72006559 18.47613445 10.23148268 22.58468227 10 27 C9.67 27 9.34 27 9 27 C8.90203125 26.45472656 8.8040625 25.90945312 8.703125 25.34765625 C7.32224327 18.38372683 5.00718236 12.22582879 1.25 6.1875 C0 4 0 4 0 0 Z " fill="#809112" transform="translate(407,181)"></path><path d="M0 0 C1.29325654 4.36963952 0.86341934 7.53900006 0 12 C-0.99 12.66 -1.98 13.32 -3 14 C-4.2188121 17.55672179 -4.2188121 17.55672179 -5 21 C-5.66 21 -6.32 21 -7 21 C-5.62820313 13.51747162 -3.07836721 6.94395046 0 0 Z " fill="#F2FD98" transform="translate(222,260)"></path><path d="M0 0 C0.66 0 1.32 0 2 0 C5 4.38461538 5 4.38461538 5 7 C5.66 7 6.32 7 7 7 C7 7.66 7 8.32 7 9 C7.66 9 8.32 9 9 9 C9.12375 9.515625 9.2475 10.03125 9.375 10.5625 C10.18641628 13.72702351 11.0945913 16.86124985 12 20 C8.31342496 16.85958422 6.35341814 13.25082077 4.1484375 9.0234375 C3.04150812 6.86422212 3.04150812 6.86422212 1 5 C0.375 2.375 0.375 2.375 0 0 Z " fill="#869711" transform="translate(303,319)"></path><path d="M0 0 C0.33 0.99 0.66 1.98 1 3 C6.61 3 12.22 3 18 3 C18 3.33 18 3.66 18 4 C12.48917196 4.58670413 6.97882534 5.08820948 1.4375 5.25 C0.63183594 5.27578125 -0.17382812 5.3015625 -1.00390625 5.328125 C-1.99197266 5.16570312 -1.99197266 5.16570312 -3 5 C-3.66 4.01 -4.32 3.02 -5 2 C-3.35 1.34 -1.7 0.68 0 0 Z " fill="#B4C732" transform="translate(214,280)"></path><path d="M0 0 C6.79651277 2.61404337 13.24002834 8.12154394 16.265625 14.7890625 C16.62914062 15.88347656 16.62914062 15.88347656 17 17 C16.34 17 15.68 17 15 17 C13.44921875 15.42578125 13.44921875 15.42578125 11.6875 13.3125 C8.09170938 9.08875426 4.64254482 5.09502988 0 2 C0 1.34 0 0.68 0 0 Z " fill="#899B0E" transform="translate(286,302)"></path><path d="M0 0 C0.33 0 0.66 0 1 0 C2.11164377 4.72979642 1.80910682 7.68887268 0.1875 12.25 C-0.34810547 13.80460937 -0.34810547 13.80460937 -0.89453125 15.390625 C-2 18 -2 18 -4 20 C-4.66 19.67 -5.32 19.34 -6 19 C-5.1654738 16.49642139 -4.20628008 14.33214148 -3 12 C-2.34 12 -1.68 12 -1 12 C-1.33 9.03 -1.66 6.06 -2 3 C-1.34 3 -0.68 3 0 3 C0 2.01 0 1.02 0 0 Z " fill="#889B0F" transform="translate(310,448)"></path><path d="M0 0 C-5.47934441 2.84114155 -9.5430378 4.2516558 -15.8125 4.125 C-16.97394531 4.10695313 -18.13539063 4.08890625 -19.33203125 4.0703125 C-20.21246094 4.04710937 -21.09289062 4.02390625 -22 4 C-18.59975397 2.02137273 -15.43669339 1.43933337 -11.5625 0.875 C-9.89380859 0.62363281 -9.89380859 0.62363281 -8.19140625 0.3671875 C-5.4191085 0.04822056 -2.7855773 -0.07289361 0 0 Z " fill="#D2E268" transform="translate(199,282)"></path><path d="M0 0 C0 0.99 0 1.98 0 3 C-0.70125 2.95875 -1.4025 2.9175 -2.125 2.875 C-6.4476188 3.06293995 -9.90576832 3.90576832 -13 7 C-16.125 7.125 -16.125 7.125 -19 7 C-16.31115623 3.53724548 -13.05779438 2.924596 -8.9375 1.8125 C-7.68839844 1.46832031 -6.43929688 1.12414062 -5.15234375 0.76953125 C-2 0 -2 0 0 0 Z " fill="#CDE158" transform="translate(336,149)"></path><path d="M0 0 C0.33 0.66 0.66 1.32 1 2 C1.99 2.33 2.98 2.66 4 3 C-1.36000789 5.25684543 -5.1977825 6.36263859 -11 6 C-10.67 5.01 -10.34 4.02 -10 3 C-9.278125 3.061875 -8.55625 3.12375 -7.8125 3.1875 C-4.47141026 2.96476068 -2.72967245 1.8717754 0 0 Z " fill="#CFE449" transform="translate(201,579)"></path><path d="M0 0 C0.66 0 1.32 0 2 0 C1.67 2.64 1.34 5.28 1 8 C0.01 8.33 -0.98 8.66 -2 9 C-3.37334617 11.28891028 -4.15250816 13.45752447 -5 16 C-5.66 15.67 -6.32 15.34 -7 15 C-3.535 7.575 -3.535 7.575 0 0 Z " fill="#ECF986" transform="translate(230,243)"></path><path d="M0 0 C0.66 0.33 1.32 0.66 2 1 C-1.9700218 5.21814817 -6.30840284 8.61227103 -11 12 C-11.66 11.34 -12.32 10.68 -13 10 C-12.22076172 9.41992188 -12.22076172 9.41992188 -11.42578125 8.828125 C-7.5657369 5.94557801 -3.73973042 3.03853097 0 0 Z " fill="#E2F56B" transform="translate(296,166)"></path><path d="M0 0 C2.3125 0.1875 2.3125 0.1875 5 1 C6.5 3.25 6.5 3.25 8 6 C9.62836738 7.7041054 11.28769752 9.38025441 13 11 C10.39406936 9.74915329 7.8805129 8.37594686 5.375 6.9375 C3.60426608 5.92096756 1.82621725 4.91310863 0 4 C0 2.68 0 1.36 0 0 Z " fill="#82970C" transform="translate(380,152)"></path><path d="M0 0 C1.66666667 1.66666667 3.33333333 3.33333333 5 5 C5.763125 5.721875 6.52625 6.44375 7.3125 7.1875 C9 9 9 9 9 11 C9.66 11 10.32 11 11 11 C11 11.66 11 12.32 11 13 C9.68 12.34 8.36 11.68 7 11 C7 10.34 7 9.68 7 9 C6.071875 8.8453125 6.071875 8.8453125 5.125 8.6875 C3 8 3 8 1 5 C0.34 4.67 -0.32 4.34 -1 4 C-0.67 2.68 -0.34 1.36 0 0 Z " fill="#4E5714" transform="translate(425,183)"></path><path d="M0 0 C0 3 0 3 -1.6875 5 C-5.015936 7.87864736 -7.50829595 10 -12 10 C-8.44984265 5.40493818 -5.52289491 2.23545746 0 0 Z " fill="#86990C" transform="translate(360,395)"></path><path d="M0 0 C2.91691525 -0.05401695 5.83282724 -0.09368066 8.75 -0.125 C9.575 -0.14175781 10.4 -0.15851563 11.25 -0.17578125 C12.04921875 -0.18222656 12.8484375 -0.18867188 13.671875 -0.1953125 C14.4050293 -0.20578613 15.13818359 -0.21625977 15.89355469 -0.22705078 C18.29896076 0.03222456 19.91251494 0.80774075 22 2 C22 2.33 22 2.66 22 3 C14.74 2.67 7.48 2.34 0 2 C0 1.34 0 0.68 0 0 Z " fill="#E0F25E" transform="translate(215,281)"></path><path d="M0 0 C0.33 0 0.66 0 1 0 C0.88485851 2.04224637 0.75742674 4.08380159 0.625 6.125 C0.52058594 7.83042969 0.52058594 7.83042969 0.4140625 9.5703125 C0.00556124 12.95393616 -0.80967569 15.81612441 -2 19 C-2.33 19 -2.66 19 -3 19 C-2.88534579 16.77027727 -2.75785234 14.54121247 -2.625 12.3125 C-2.55539062 11.07113281 -2.48578125 9.82976562 -2.4140625 8.55078125 C-2.03577906 5.30682228 -1.38020024 2.93432815 0 0 Z " fill="#738306" transform="translate(419,272)"></path><path d="M0 0 C0.66 0.33 1.32 0.66 2 1 C1.87890625 2.859375 1.87890625 2.859375 1 5 C-1.72265625 6.265625 -1.72265625 6.265625 -5.0625 7.25 C-6.16722656 7.58515625 -7.27195312 7.9203125 -8.41015625 8.265625 C-9.26480469 8.50796875 -10.11945313 8.7503125 -11 9 C-10.34 7.35 -9.68 5.7 -9 4 C-8.01 4.33 -7.02 4.66 -6 5 C-3.36195411 4.60602665 -3.36195411 4.60602665 -1 4 C-0.67 2.68 -0.34 1.36 0 0 Z " fill="#B7CA3C" transform="translate(374,436)"></path><path d="M0 0 C0.66 0.33 1.32 0.66 2 1 C2 2.98 2 4.96 2 7 C3.65 7 5.3 7 7 7 C4.56680171 9.94545056 2.67586393 10.32286717 -1 11 C-1.33 11.66 -1.66 12.32 -2 13 C-1.855625 12.154375 -1.71125 11.30875 -1.5625 10.4375 C-0.9941203 6.96406851 -0.48797607 3.48554338 0 0 Z " fill="#86980D" transform="translate(318,417)"></path><path d="M0 0 C0.99 0.33 1.98 0.66 3 1 C0.5 3 0.5 3 -2 5 C-2.78375 5.721875 -3.5675 6.44375 -4.375 7.1875 C-7.58821587 9.40614905 -10.14957054 9.69800553 -14 10 C-12.61401975 7.2280395 -10.67014989 7.02739 -7.91015625 5.93359375 C-5.86660294 4.93480185 -4.43201002 3.77181859 -2.75 2.25 C-1.8425 1.5075 -0.935 0.765 0 0 Z " fill="#98AB16" transform="translate(342,412)"></path><path d="M0 0 C0.33 0 0.66 0 1 0 C4.40909091 9.77272727 4.40909091 9.77272727 3 14 C2.15885829 12.56705502 1.32734313 11.12845595 0.5 9.6875 C0.0359375 8.88699219 -0.428125 8.08648438 -0.90625 7.26171875 C-2 5 -2 5 -2 2 C-1.34 2 -0.68 2 0 2 C0 1.34 0 0.68 0 0 Z " fill="#D9EC5A" transform="translate(77,512)"></path><path d="M0 0 C2.56761548 2.61478952 2.9956345 3.94528576 3.29296875 7.671875 C3.27316751 9.03156035 3.23759202 10.3910934 3.1875 11.75 C3.17396484 12.44738281 3.16042969 13.14476562 3.14648438 13.86328125 C3.1112945 15.57585541 3.05749155 17.28802941 3 19 C2.67 19 2.34 19 2 19 C0.82706111 12.6221448 -0.29530838 6.49678438 0 0 Z " fill="#697706" transform="translate(417,201)"></path><path d="M0 0 C4.27423375 2.44241929 6.55592906 6.38428859 8 11 C7.60546875 13.25390625 7.60546875 13.25390625 7 15 C6.0115904 13.44333045 5.03464918 11.87937574 4.0625 10.3125 C3.51722656 9.44238281 2.97195313 8.57226562 2.41015625 7.67578125 C1.02832828 5.05375311 0.41519827 2.91689925 0 0 Z " fill="#5B6A01" transform="translate(403,171)"></path><path d="M0 0 C1.305239 3.91571701 0.32239848 5.03892997 -1.4375 8.6875 C-1.91058594 9.68136719 -2.38367188 10.67523438 -2.87109375 11.69921875 C-3.42990234 12.83810547 -3.42990234 12.83810547 -4 14 C-4.66 13.34 -5.32 12.68 -6 12 C-6 9 -6 9 -5 7 C-4.34 7 -3.68 7 -3 7 C-2.690625 6.030625 -2.38125 5.06125 -2.0625 4.0625 C-1 1 -1 1 0 0 Z " fill="#748611" transform="translate(461,345)"></path><path d="M0 0 C3.86306207 1.4652994 5.1428051 3.37002815 7 7 C7.69822617 8.65369357 8.37498605 10.31727014 9 12 C7.13671875 11.7421875 7.13671875 11.7421875 5 11 C3.76953125 9.2578125 3.76953125 9.2578125 2.8125 7.125 C2.48894531 6.42632812 2.16539062 5.72765625 1.83203125 5.0078125 C1.15156685 3.36575287 0.56208466 1.68625397 0 0 Z " fill="#4A5409" transform="translate(436,197)"></path><path d="M0 0 C-1.423125 0.928125 -1.423125 0.928125 -2.875 1.875 C-5.94445109 3.81970969 -5.94445109 3.81970969 -8 6 C-9.32 6 -10.64 6 -12 6 C-10.9200311 2.86809018 -9.99049526 1.99400788 -7.125 0.1875 C-4.02316031 -0.99119908 -2.9798555 -1.26070809 0 0 Z " fill="#CEE458" transform="translate(317,157)"></path><path d="M0 0 C0.99 0 1.98 0 3 0 C6.125 5.5 6.125 5.5 5 10 C3.02 7.03 1.04 4.06 -1 1 C-0.67 0.67 -0.34 0.34 0 0 Z " fill="#D2E854" transform="translate(84,528)"></path><path d="M0 0 C-0.66 1.32 -1.32 2.64 -2 4 C-5.79557881 4 -7.62902617 3.49821059 -11 2 C-7.36576791 -0.32590854 -4.22911669 -0.16265833 0 0 Z " fill="#B6C930" transform="translate(210,284)"></path><path d="M0 0 C2.16874252 0.50603992 3.99967627 0.99983813 6 2 C6.40729228 4.32156597 6.74438677 6.6568787 7 9 C3.26115668 6.34345343 1.35021826 4.41889613 0 0 Z " fill="#566206" transform="translate(393,159)"></path><path d="M0 0 C0.66 0.33 1.32 0.66 2 1 C2 1.66 2 2.32 2 3 C1.34 3 0.68 3 0 3 C0.22816406 3.74765625 0.45632812 4.4953125 0.69140625 5.265625 C0.97886719 6.25046875 1.26632813 7.2353125 1.5625 8.25 C1.85253906 9.22453125 2.14257812 10.1990625 2.44140625 11.203125 C2.99249836 13.96243932 2.93789609 15.3912824 2 18 C0.04285717 12.21011912 -1.52257862 7.14029883 -1 1 C-0.67 0.67 -0.34 0.34 0 0 Z " fill="#E4F775" transform="translate(62,473)"></path><path d="M0 0 C1.32 0.99 2.64 1.98 4 3 C2 5 0 7 -2 9 C-1.125 1.125 -1.125 1.125 0 0 Z M-5 10 C-4.34 10.33 -3.68 10.66 -3 11 C-3.33 11.99 -3.66 12.98 -4 14 C-4.66 13.67 -5.32 13.34 -6 13 C-5.67 12.01 -5.34 11.02 -5 10 Z " fill="#E0F558" transform="translate(266,192)"></path><path d="M0 0 C3.44428265 1.44781793 5.36130962 3.27694609 7.75 6.125 C8.36359375 6.84945312 8.9771875 7.57390625 9.609375 8.3203125 C10.29773438 9.15175781 10.29773438 9.15175781 11 10 C10.67 10.66 10.34 11.32 10 12 C6.0747975 8.29909479 3.05419844 4.45040344 0 0 Z " fill="#77880A" transform="translate(393,163)"></path><path d="M0 0 C1.1171875 1.703125 1.1171875 1.703125 2 4 C1.3203125 6.359375 1.3203125 6.359375 0.125 8.75 C-0.26429688 9.54921875 -0.65359375 10.3484375 -1.0546875 11.171875 C-1.36664063 11.77515625 -1.67859375 12.3784375 -2 13 C-2.33 13 -2.66 13 -3 13 C-3 10.69 -3 8.38 -3 6 C-2.34 5.67 -1.68 5.34 -1 5 C-0.34444881 2.47266765 -0.34444881 2.47266765 0 0 Z " fill="#899E1A" transform="translate(301,474)"></path><path d="M0 0 C4.875 2.625 4.875 2.625 6 6 C6.66 6.33 7.32 6.66 8 7 C7.01 7.33 6.02 7.66 5 8 C4.34 7.67 3.68 7.34 3 7 C3 6.01 3 5.02 3 4 C2.01 4 1.02 4 0 4 C0 2.68 0 1.36 0 0 Z " fill="#505B10" transform="translate(417,176)"></path><path d="M0 0 C0.66 0.33 1.32 0.66 2 1 C1.67 1.66 1.34 2.32 1 3 C1.66 3 2.32 3 3 3 C3.66 4.98 4.32 6.96 5 9 C3.85073734 8.04578192 2.70569459 7.08647955 1.5625 6.125 C0.92441406 5.59132813 0.28632812 5.05765625 -0.37109375 4.5078125 C-2 3 -2 3 -3 1 C-2.01 0.67 -1.02 0.34 0 0 Z " fill="#CFE455" transform="translate(102,548)"></path><path d="M0 0 C0.66 0.33 1.32 0.66 2 1 C2.56638908 5.81430721 0.82561627 8.20307814 -2 12 C-3.15957207 8.52128379 -2.77456651 7.65780355 -1.5625 4.3125 C-1.13130859 3.10013672 -1.13130859 3.10013672 -0.69140625 1.86328125 C-0.46324219 1.24839844 -0.23507812 0.63351562 0 0 Z " fill="#C4D747" transform="translate(314,441)"></path><path d="M0 0 C1.60080151 4.00200378 0.29279692 7.04556236 -1 11 C-2.76462683 7.91190305 -3 6.76687864 -3 3 C-2.34 3 -1.68 3 -1 3 C-0.67 2.01 -0.34 1.02 0 0 Z " fill="#69770D" transform="translate(464,334)"></path><path d="M0 0 C0.33 0 0.66 0 1 0 C1.33 4.62 1.66 9.24 2 14 C1.01 13.67 0.02 13.34 -1 13 C-0.67 8.71 -0.34 4.42 0 0 Z " fill="#6C7916" transform="translate(469,278)"></path><path d="M0 0 C1.2065625 0.0309375 1.2065625 0.0309375 2.4375 0.0625 C2.4375 0.7225 2.4375 1.3825 2.4375 2.0625 C0.90625 3.3515625 0.90625 3.3515625 -1.0625 4.6875 C-1.7121875 5.13351562 -2.361875 5.57953125 -3.03125 6.0390625 C-3.5365625 6.37679688 -4.041875 6.71453125 -4.5625 7.0625 C-3.5234375 0.0859375 -3.5234375 0.0859375 0 0 Z " fill="#95A819" transform="translate(419.5625,407.9375)"></path><path d="M0 0 C-1.20842856 4.43090471 -2.51668565 6.98112756 -6 10 C-5.71872579 8.51882199 -5.42466268 7.04006751 -5.125 5.5625 C-4.96257812 4.73878906 -4.80015625 3.91507812 -4.6328125 3.06640625 C-4.42398437 2.38449219 -4.21515625 1.70257813 -4 1 C-2 0 -2 0 0 0 Z " fill="#829516" transform="translate(452,368)"></path><path d="M0 0 C0.66 0 1.32 0 2 0 C2.32613618 4.67461851 1.70582788 7.16674383 -1 11 C-2.41687119 6.74938644 -1.19320039 4.28148375 0 0 Z " fill="#788808" transform="translate(414,292)"></path><path d="M0 0 C1.2065625 0.0309375 1.2065625 0.0309375 2.4375 0.0625 C0.4575 1.0525 0.4575 1.0525 -1.5625 2.0625 C-1.5625 2.7225 -1.5625 3.3825 -1.5625 4.0625 C-4.9375 4.6875 -4.9375 4.6875 -8.5625 5.0625 C-9.2225 4.4025 -9.8825 3.7425 -10.5625 3.0625 C-9.428125 2.753125 -8.29375 2.44375 -7.125 2.125 C0 0 0 0 0 0 Z " fill="#CEE34D" transform="translate(183.5625,285.9375)"></path><path d="M0 0 C0.66 0.99 1.32 1.98 2 3 C0.35 4.65 -1.3 6.3 -3 8 C-4 5 -4 5 -3.1875 2.875 C-2 1 -2 1 0 0 Z " fill="#C0D43D" transform="translate(258,540)"></path><path d="M0 0 C0.66 0.33 1.32 0.66 2 1 C-1.625 6.875 -1.625 6.875 -5 8 C-5.33 6.68 -5.66 5.36 -6 4 C-4.68 4 -3.36 4 -2 4 C-1.34 2.68 -0.68 1.36 0 0 Z " fill="#AFC235" transform="translate(270,528)"></path><path d="M0 0 C0.99 0 1.98 0 3 0 C1.44499019 3.81684226 -1.03595495 6.19195732 -4 9 C-4.33 8.34 -4.66 7.68 -5 7 C-4.67 6.34 -4.34 5.68 -4 5 C-3.01 5 -2.02 5 -1 5 C-0.67 3.35 -0.34 1.7 0 0 Z " fill="#F1FD83" transform="translate(109,327)"></path><path d="M0 0 C0.66 0 1.32 0 2 0 C2.86375896 1.61992165 3.71575854 3.24611861 4.5625 4.875 C5.03816406 5.77992188 5.51382812 6.68484375 6.00390625 7.6171875 C6.33261719 8.40351563 6.66132813 9.18984375 7 10 C6.67 10.66 6.34 11.32 6 12 C3.21355437 8.09897612 1.31860889 4.61513112 0 0 Z " fill="#7B8C06" transform="translate(303,319)"></path><path d="M0 0 C0 0.66 0 1.32 0 2 C-5.94 2.495 -5.94 2.495 -12 3 C-8.62803192 -0.37196808 -4.5120049 -1.50400163 0 0 Z " fill="#C6DA40" transform="translate(210,282)"></path><path d="M0 0 C0.625 1.8125 0.625 1.8125 1 4 C0.01 5.485 0.01 5.485 -1 7 C-1 7.66 -1 8.32 -1 9 C-1.99 9.33 -2.98 9.66 -4 10 C-3.43454163 6.04179141 -2.19097652 3.3340947 0 0 Z " fill="#EDFA8D" transform="translate(236,233)"></path><path d="M0 0 C0.75 1.625 0.75 1.625 1 4 C-0.8125 7.25 -0.8125 7.25 -3 10 C-3.66 10 -4.32 10 -5 10 C-5 9.01 -5 8.02 -5 7 C-4.34 7 -3.68 7 -3 7 C-2.690625 6.030625 -2.38125 5.06125 -2.0625 4.0625 C-1 1 -1 1 0 0 Z " fill="#EFFC88" transform="translate(242,223)"></path><path d="M0 0 C0.66 0.33 1.32 0.66 2 1 C1.38125 1.9075 0.7625 2.815 0.125 3.75 C-1.44389611 6.14948817 -2.80443821 8.40961612 -4 11 C-5 8 -5 8 -3.6875 4.9375 C-2 2 -2 2 0 0 Z " fill="#EBFC75" transform="translate(95,348)"></path><path d="M0 0 C-5.14285714 4.42857143 -5.14285714 4.42857143 -9 5 C-9 4.01 -9 3.02 -9 2 C-3.375 -1.125 -3.375 -1.125 0 0 Z " fill="#CADD49" transform="translate(231,568)"></path><path d="M0 0 C0.99 0.33 1.98 0.66 3 1 C2.01 3.31 1.02 5.62 0 8 C-0.99 7.67 -1.98 7.34 -3 7 C-2.1654738 4.49642139 -1.20628008 2.33214148 0 0 Z " fill="#7D920B" transform="translate(307,460)"></path><path d="M0 0 C-1.24976756 3.65316671 -1.67098753 4.78065836 -5 7 C-4.625 4.0625 -4.625 4.0625 -4 1 C-2 0 -2 0 0 0 Z " fill="#849A10" transform="translate(445,380)"></path><path d="M0 0 C1.41573582 4.24720747 -0.23670387 6.4310024 -2.125 10.3125 C-2.41375 10.869375 -2.7025 11.42625 -3 12 C-3.66 11.67 -4.32 11.34 -5 11 C-3.35 7.37 -1.7 3.74 0 0 Z " fill="#EFF798" transform="translate(228,247)"></path><path d="M0 0 C0.66 0.66 1.32 1.32 2 2 C1.34 2 0.68 2 0 2 C0.33 2.99 0.66 3.98 1 5 C-0.65 6.32 -2.3 7.64 -4 9 C-4.33 8.34 -4.66 7.68 -5 7 C-4.34 7 -3.68 7 -3 7 C-3 6.01 -3 5.02 -3 4 C-2.34 4 -1.68 4 -1 4 C-0.67 2.68 -0.34 1.36 0 0 Z " fill="#E8F77B" transform="translate(253,207)"></path><path d="M0 0 C0.66 0.99 1.32 1.98 2 3 C0.6875 5 0.6875 5 -1 7 C-1.99 7 -2.98 7 -4 7 C-2.79618552 4.50638429 -1.54571278 2.31856917 0 0 Z " fill="#EAFC70" transform="translate(264,194)"></path><path d="M0 0 C1.32 0.33 2.64 0.66 4 1 C3.01 1.33 2.02 1.66 1 2 C1 2.66 1 3.32 1 4 C-0.98 4.99 -0.98 4.99 -3 6 C-3 4.68 -3 3.36 -3 2 C-2.01 2 -1.02 2 0 2 C0 1.34 0 0.68 0 0 Z " fill="#98AA24" transform="translate(407,418)"></path><path d="M0 0 C0.93423645 3.01031744 1.04449911 3.86650268 0 7 C-0.99 6.01 -1.98 5.02 -3 4 C-2.67 3.01 -2.34 2.02 -2 1 C-1.34 0.67 -0.68 0.34 0 0 Z " fill="#D2E84F" transform="translate(96,539)"></path><path d="M0 0 C0.99 0 1.98 0 3 0 C2.67 3.63 2.34 7.26 2 11 C1.67 11 1.34 11 1 11 C0.67 7.37 0.34 3.74 0 0 Z " fill="#657011" transform="translate(468,300)"></path><path d="M0 0 C-0.33 1.32 -0.66 2.64 -1 4 C-2.65 4.33 -4.3 4.66 -6 5 C-3.74193548 0 -3.74193548 0 0 0 Z " fill="#ECFD7A" transform="translate(155,293)"></path></svg>